<svg xmlns="http://www.w3.org/2000/svg" viewBox="0 0 44.82 67.57"><defs><style>.e095984b-8ef3-43c1-9cc9-006f3972a1b1{fill:#604c3f;}.a123a24f-dd9a-44e6-9e81-76451075ad8f,.a24a8095-f06c-4480-8b19-c5c07b233e59,.b0c61c89-c7da-48ec-8ca2-25c46d37a049,.b39ecf6c-2dd6-4a8c-aca4-eb045768fa97,.b3d257e3-4ed2-4a35-9a7a-db2922171cf0,.b91340c8-27fd-4521-9032-de011f88ccb4,.e095984b-8ef3-43c1-9cc9-006f3972a1b1,.e9df6c49-b326-40b9-986a-6a5b2bd50c76,.ece50373-ef3b-46a9-b1cf-c491640d89c2,.f2a27157-4226-4291-b04f-cc68b0aefd9e{stroke:#231815;stroke-linecap:round;stroke-linejoin:round;}.a123a24f-dd9a-44e6-9e81-76451075ad8f,.b0c61c89-c7da-48ec-8ca2-25c46d37a049,.b39ecf6c-2dd6-4a8c-aca4-eb045768fa97,.b3d257e3-4ed2-4a35-9a7a-db2922171cf0,.e095984b-8ef3-43c1-9cc9-006f3972a1b1,.e9df6c49-b326-40b9-986a-6a5b2bd50c76,.ece50373-ef3b-46a9-b1cf-c491640d89c2,.f2a27157-4226-4291-b04f-cc68b0aefd9e{stroke-width:0.5px;}.b0c61c89-c7da-48ec-8ca2-25c46d37a049{fill:#a48b78;}.be7f4814-9f33-45ce-bf88-3fc5b7ffea19{fill:#7a6a56;}.b3d257e3-4ed2-4a35-9a7a-db2922171cf0,.b91340c8-27fd-4521-9032-de011f88ccb4{fill:none;}.e9df6c49-b326-40b9-986a-6a5b2bd50c76{fill:#fff;}.fdf5c2a6-2aa9-4b7d-91a1-d35c7aa35f3d{font-size:4px;font-family:S-CoreDream-6Bold, S-Core Dream;font-weight:700;letter-spacing:-0.05em;}.a24a8095-f06c-4480-8b19-c5c07b233e59,.fdf5c2a6-2aa9-4b7d-91a1-d35c7aa35f3d{fill:#231815;}.ece50373-ef3b-46a9-b1cf-c491640d89c2{fill:#feefe5;}.b39ecf6c-2dd6-4a8c-aca4-eb045768fa97{fill:#523015;}.f2a27157-4226-4291-b04f-cc68b0aefd9e{fill:#4f2d13;}.b91340c8-27fd-4521-9032-de011f88ccb4{stroke-width:0.75px;}.a123a24f-dd9a-44e6-9e81-76451075ad8f{fill:#13ae67;}</style></defs><g id="ab163d9d-346b-405b-a525-bc1053d201d7" data-name="레이어 2"><g id="b9d45d23-cdb8-477e-a1ac-a89f0cdccc1e" data-name="레이어 1"><path class="e095984b-8ef3-43c1-9cc9-006f3972a1b1" d="M10.13,44.43V64.51c0,1.55,5.87,2.81,13.1,2.81s13.11-1.26,13.11-2.81V44.43Z"/><ellipse class="b0c61c89-c7da-48ec-8ca2-25c46d37a049" cx="23.23" cy="44.43" rx="13.1" ry="2.81"/><path class="be7f4814-9f33-45ce-bf88-3fc5b7ffea19" d="M33.06,66.18a4.64,4.64,0,0,1,3.21-3.52.38.38,0,0,0-.2-.73A5.39,5.39,0,0,0,32.34,66a.37.37,0,0,0,.72.2Z"/><path class="be7f4814-9f33-45ce-bf88-3fc5b7ffea19" d="M31.12,66.54a8.11,8.11,0,0,1,1.51-3.9A4.87,4.87,0,0,1,36,60.43c.48,0,.48-.79,0-.75a5.52,5.52,0,0,0-3.86,2.41,8.9,8.9,0,0,0-1.74,4.45c-.05.48.7.47.75,0Z"/><path class="be7f4814-9f33-45ce-bf88-3fc5b7ffea19" d="M29.14,66.89a11.82,11.82,0,0,1,7.28-9c.44-.17.25-.9-.2-.72a12.55,12.55,0,0,0-7.8,9.47c-.08.47.64.68.72.2Z"/><path class="be7f4814-9f33-45ce-bf88-3fc5b7ffea19" d="M31.12,46.92q-.21,4.77-.83,9.5c-.07.47.68.47.75,0q.62-4.72.83-9.5c0-.48-.73-.48-.75,0Z"/><path class="be7f4814-9f33-45ce-bf88-3fc5b7ffea19" d="M27.67,50.08Q27,56.88,26.51,63.7c0,.48.72.48.75,0q.43-6.83,1.16-13.62c0-.48-.7-.47-.75,0Z"/><path class="be7f4814-9f33-45ce-bf88-3fc5b7ffea19" d="M23.43,67a69.61,69.61,0,0,1,1.06-13.52c.08-.47-.64-.67-.73-.2A70.89,70.89,0,0,0,22.68,67a.38.38,0,0,0,.75,0Z"/><path class="be7f4814-9f33-45ce-bf88-3fc5b7ffea19" d="M20.94,47.35a121,121,0,0,0-1.2,14c0,.48.73.48.75,0a122,122,0,0,1,1.17-13.76c.07-.47-.66-.68-.72-.2Z"/><path class="be7f4814-9f33-45ce-bf88-3fc5b7ffea19" d="M16.43,66.6a54.91,54.91,0,0,1,1.21-11.78c.1-.47-.62-.67-.72-.2a55.51,55.51,0,0,0-1.24,12,.38.38,0,0,0,.75,0Z"/><path class="be7f4814-9f33-45ce-bf88-3fc5b7ffea19" d="M14.5,56.71q.72-4.74,1.62-9.44c.09-.47-.63-.68-.72-.2q-.92,4.7-1.62,9.44c-.07.47.65.68.72.2Z"/><path class="be7f4814-9f33-45ce-bf88-3fc5b7ffea19" d="M10.23,57.33a2.11,2.11,0,0,1,1.14,2,3.6,3.6,0,0,1-1.06,2.57c-.33.35.2.88.53.53a4.34,4.34,0,0,0,1.27-3.17,2.8,2.8,0,0,0-1.51-2.53.39.39,0,0,0-.51.13.39.39,0,0,0,.14.52Z"/><path class="be7f4814-9f33-45ce-bf88-3fc5b7ffea19" d="M10.22,55.23c2.07,0,3.28,2.13,3.27,4a8.17,8.17,0,0,1-.81,3.28,4.38,4.38,0,0,1-1.82,2.34c-.43.22,0,.86.38.64a5,5,0,0,0,2.12-2.68,8.6,8.6,0,0,0,.88-3.91c-.12-2.17-1.68-4.39-4-4.41a.38.38,0,0,0,0,.75Z"/><path class="e095984b-8ef3-43c1-9cc9-006f3972a1b1" d="M2.27,48.45l7.44,4c.57.3,1.6-.5,2.3-1.81s.8-2.61.23-2.92l-7.44-4Z"/><ellipse class="b0c61c89-c7da-48ec-8ca2-25c46d37a049" cx="3.54" cy="46.09" rx="2.68" ry="1.18" transform="translate(-38.76 27.45) rotate(-61.82)"/><path class="e095984b-8ef3-43c1-9cc9-006f3972a1b1" d="M44.19,48.45l-7.43,4c-.57.3-1.61-.5-2.3-1.81s-.8-2.61-.23-2.92l7.44-4Z"/><ellipse class="e095984b-8ef3-43c1-9cc9-006f3972a1b1" cx="42.93" cy="46.09" rx="1.18" ry="2.68" transform="translate(-16.68 25.73) rotate(-28.18)"/><path class="be7f4814-9f33-45ce-bf88-3fc5b7ffea19" d="M34.1,51.32c-.14,1.89-.38,3.78-.57,5.67-.05.48.7.48.75,0,.19-1.89.43-3.78.57-5.67,0-.49-.72-.48-.75,0Z"/><path class="b3d257e3-4ed2-4a35-9a7a-db2922171cf0" d="M10.13,44.43V64.51c0,1.55,5.87,2.81,13.1,2.81s13.11-1.26,13.11-2.81V44.43Z"/><ellipse class="b0c61c89-c7da-48ec-8ca2-25c46d37a049" cx="23.23" cy="44.43" rx="13.1" ry="2.81"/><path class="e095984b-8ef3-43c1-9cc9-006f3972a1b1" d="M44.19,48.45l-7.43,4c-.57.3-1.61-.5-2.3-1.81s-.8-2.61-.23-2.92l7.44-4Z"/><ellipse class="b0c61c89-c7da-48ec-8ca2-25c46d37a049" cx="42.93" cy="46.09" rx="1.18" ry="2.68" transform="translate(-16.68 25.73) rotate(-28.18)"/><path class="e095984b-8ef3-43c1-9cc9-006f3972a1b1" d="M2.27,48.45l7.44,4c.57.3,1.6-.5,2.3-1.81s.8-2.61.23-2.92l-7.44-4Z"/><ellipse class="b0c61c89-c7da-48ec-8ca2-25c46d37a049" cx="3.54" cy="46.09" rx="2.68" ry="1.18" transform="translate(-38.76 27.45) rotate(-61.82)"/><path class="be7f4814-9f33-45ce-bf88-3fc5b7ffea19" d="M4.41,48.44l2.51,1.49a.38.38,0,0,0,.52-.13.37.37,0,0,0-.14-.51l-2.51-1.5a.38.38,0,0,0-.51.14.38.38,0,0,0,.13.51Z"/><path class="be7f4814-9f33-45ce-bf88-3fc5b7ffea19" d="M8.12,47.93l2.51,1.49a.38.38,0,0,0,.52-.13.39.39,0,0,0-.14-.52L8.5,47.28a.38.38,0,0,0-.51.13.4.4,0,0,0,.13.52Z"/><path class="be7f4814-9f33-45ce-bf88-3fc5b7ffea19" d="M35.5,49.38,38.06,48a.39.39,0,0,0,.14-.52.4.4,0,0,0-.52-.13l-2.55,1.41a.39.39,0,0,0-.14.52.38.38,0,0,0,.51.13Z"/><path class="be7f4814-9f33-45ce-bf88-3fc5b7ffea19" d="M39,50.13l2.55-1.42a.37.37,0,0,0,.14-.51.39.39,0,0,0-.52-.13l-2.55,1.41a.38.38,0,0,0-.14.51.39.39,0,0,0,.52.14Z"/><path class="e9df6c49-b326-40b9-986a-6a5b2bd50c76" d="M21.69,9l1.51,3,2-2.77s12.39.85,12.4-3.74C37.59-.12,25,.34,25,.34S10.43-.82,9.59,5.37C9.59,5.37,9.08,10.27,21.69,9Z"/><text class="fdf5c2a6-2aa9-4b7d-91a1-d35c7aa35f3d" transform="translate(18.37 6.42)">하셈...</text><path class="ece50373-ef3b-46a9-b1cf-c491640d89c2" d="M10.07,26.18S6.28,44.6,23.51,44.6s16.35-22.77,3.24-26.08C26.75,18.52,22.49,24.16,10.07,26.18Z"/><path class="b39ecf6c-2dd6-4a8c-aca4-eb045768fa97" d="M26.7,18.52s1.5-8.59-9.61-3.84-11,10.66-9.36,21.43S4.8,43.8,4.8,43.8s7,4.05,9.35-2c0,0-6.11-4.71-4.12-15.58C10,26.18,21,24.94,26.7,18.52Z"/><path class="f2a27157-4226-4291-b04f-cc68b0aefd9e" d="M26,14.76s16.94-2,12.27,23c0,0-1.5,5,2,6.29,0,0-4.79,1.6-8.09-2.26,0,0,6.12-4.32,3.64-14,0,0-2.06-7.82-9.17-9.29A5,5,0,0,0,26,14.76Z"/><path class="b91340c8-27fd-4521-9032-de011f88ccb4" d="M22.15,36.15a1.93,1.93,0,0,0,2.17,0"/><path class="b91340c8-27fd-4521-9032-de011f88ccb4" d="M26.92,27.84a17.72,17.72,0,0,1,5,.08"/><path class="b91340c8-27fd-4521-9032-de011f88ccb4" d="M14,28a17.79,17.79,0,0,1,5-.26"/><path class="b91340c8-27fd-4521-9032-de011f88ccb4" d="M20.37,39.55A28.26,28.26,0,0,0,26,39.33"/><line class="a24a8095-f06c-4480-8b19-c5c07b233e59" x1="13.55" y1="32.61" x2="19.9" y2="32.14"/><line class="a24a8095-f06c-4480-8b19-c5c07b233e59" x1="26.69" y1="32.25" x2="32.65" y2="32.11"/><path class="a123a24f-dd9a-44e6-9e81-76451075ad8f" d="M5.55,49.27S6,55.34.25,54.53c0,0,0-.05,0-.14C.4,53.49,1.34,48.44,5.55,49.27Z"/><path class="a123a24f-dd9a-44e6-9e81-76451075ad8f" d="M5.31,49.43a64.66,64.66,0,0,1-5.06,5.1"/><path class="a123a24f-dd9a-44e6-9e81-76451075ad8f" d="M44,39.6s1.82,5.13-3.57,5.47a1.13,1.13,0,0,1,0-.12C40.27,44.16,39.94,39.66,44,39.6Z"/><path class="a123a24f-dd9a-44e6-9e81-76451075ad8f" d="M43.76,39.79a53.46,53.46,0,0,1-3.38,5.28"/><path class="a123a24f-dd9a-44e6-9e81-76451075ad8f" d="M37.65,12.4s.92,7.41-6.47,6.72c0,0,0-.06,0-.17C31.31,17.85,31.29,12.67,37.65,12.4Z"/><path class="a123a24f-dd9a-44e6-9e81-76451075ad8f" d="M37.35,12.61a81,81,0,0,1-6.17,6.51"/><line class="a123a24f-dd9a-44e6-9e81-76451075ad8f" x1="34.14" y1="16.17" x2="37.11" y2="16.2"/><line class="a123a24f-dd9a-44e6-9e81-76451075ad8f" x1="32.89" y1="17.45" x2="32.47" y2="14.91"/></g></g></svg>