<svg xmlns="http://www.w3.org/2000/svg" viewBox="0 0 48.4 72.18"><defs><style>.fe0b8586-1cb6-4589-b00c-a5a39aa50c38{fill:#e5dced;}.fd9d86b3-1943-44db-8db7-f9ae7901b596{fill:#feefe5;}.a04b7615-8b1e-446d-878a-715fd6b625fb,.a98e9adc-8452-438e-97b9-20e8c163d509,.adabbe5b-18d3-47e6-a55b-418a74b72ccf,.b1fd22cd-4ff2-4ba9-bda0-dd17c3184b06,.ea8bb963-ec68-42da-9fca-7ff861b86734,.eed0221c-5cea-45c1-998f-884c6638532f,.fd9d86b3-1943-44db-8db7-f9ae7901b596{stroke:#231815;stroke-linecap:round;stroke-linejoin:round;}.a04b7615-8b1e-446d-878a-715fd6b625fb,.adabbe5b-18d3-47e6-a55b-418a74b72ccf,.b1fd22cd-4ff2-4ba9-bda0-dd17c3184b06,.ea8bb963-ec68-42da-9fca-7ff861b86734,.fd9d86b3-1943-44db-8db7-f9ae7901b596{stroke-width:0.5px;}.b1fd22cd-4ff2-4ba9-bda0-dd17c3184b06{fill:#523015;}.ea8bb963-ec68-42da-9fca-7ff861b86734{fill:#4f2d13;}.adabbe5b-18d3-47e6-a55b-418a74b72ccf,.eed0221c-5cea-45c1-998f-884c6638532f{fill:none;}.a98e9adc-8452-438e-97b9-20e8c163d509,.eed0221c-5cea-45c1-998f-884c6638532f{stroke-width:0.75px;}.a04b7615-8b1e-446d-878a-715fd6b625fb{fill:#fff;}.a98e9adc-8452-438e-97b9-20e8c163d509{fill:#231815;}.ffca333e-f045-48a8-818e-0beaffe67643{fill:#eb6776;}</style></defs><g id="b9d5ac17-ab3c-4111-a682-dd5222f53f41" data-name="레이어 2"><g id="fec0f9be-86a9-4357-af46-af9f3cc2d993" data-name="레이어 1"><path class="fe0b8586-1cb6-4589-b00c-a5a39aa50c38" d="M38.29,61.81c4-7.67-3.38-11.22-3.38-11.22-6.37,3.32-13.63.21-13.63.21S14.54,56.51,19,62.64h0s-.67,5.2,0,7.65,17.57,1.81,19.45.32a44.72,44.72,0,0,0-.14-8.8Z"/><path class="fd9d86b3-1943-44db-8db7-f9ae7901b596" d="M14.68,33.9S11.2,52.39,28.42,52.1s16-23,2.81-26.13C31.23,26,27.07,31.68,14.68,33.9Z"/><path class="b1fd22cd-4ff2-4ba9-bda0-dd17c3184b06" d="M31.18,26s1.36-8.62-9.67-3.68-10.84,10.84-9,21.58S9.7,51.61,9.7,51.61s7,3.94,9.32-2.19c0,0-6.19-4.61-4.38-15.52C14.64,33.9,25.6,32.48,31.18,26Z"/><path class="ea8bb963-ec68-42da-9fca-7ff861b86734" d="M30.44,22.22S47.35,19.9,43.09,45c0,0-1.42,5,2.13,6.26,0,0-4.76,1.67-8.12-2.14,0,0,6-4.41,3.4-14,0,0-2.19-7.79-9.32-9.14A5,5,0,0,0,30.44,22.22Z"/><path class="adabbe5b-18d3-47e6-a55b-418a74b72ccf" d="M35,55.64h0c1.16,2.65-1.61,5.88-1.61,5.88l3.74,2.25c6.45-9-2.18-13.18-2.18-13.18-6.37,3.32-13.63.21-13.63.21s-8,6.78-.81,13.49l3.91-2.65a6.1,6.1,0,0,1-2.32-5.54"/><path class="adabbe5b-18d3-47e6-a55b-418a74b72ccf" d="M19,62.64s-.67,5.2,0,7.65,17.57,1.81,19.45.32a44.72,44.72,0,0,0-.14-8.8h0"/><path class="fd9d86b3-1943-44db-8db7-f9ae7901b596" d="M20.85,64s1.46,3,3.95,1.81S24,61.93,24,61.93Z"/><path class="fd9d86b3-1943-44db-8db7-f9ae7901b596" d="M36.89,63.73s-1.23,3.1-3.8,2.1.54-4,.54-4Z"/><path class="eed0221c-5cea-45c1-998f-884c6638532f" d="M26.93,43.68a1.91,1.91,0,0,0,2.16,0"/><path class="a04b7615-8b1e-446d-878a-715fd6b625fb" d="M23.07,51.41a13,13,0,0,0,5.06.75S24.49,57.44,23.07,51.41Z"/><path class="a04b7615-8b1e-446d-878a-715fd6b625fb" d="M33.08,51.41a13,13,0,0,1-5.06.75S31.66,57.44,33.08,51.41Z"/><path class="eed0221c-5cea-45c1-998f-884c6638532f" d="M17.16,39.69s2.94-3.33,7.93-1.28"/><path class="a98e9adc-8452-438e-97b9-20e8c163d509" d="M18.9,38.48a6.06,6.06,0,0,1,3.45-.69s1.21,4.34-1.39,4.56-2.06-3.6-2.06-3.6"/><line class="a98e9adc-8452-438e-97b9-20e8c163d509" x1="17.31" y1="39.54" x2="16.39" y2="38.82"/><line class="a98e9adc-8452-438e-97b9-20e8c163d509" x1="18.24" y1="38.72" x2="17.46" y2="37.85"/><path class="eed0221c-5cea-45c1-998f-884c6638532f" d="M38,39.69s-2.94-3.33-7.93-1.28"/><path class="a98e9adc-8452-438e-97b9-20e8c163d509" d="M36.29,38.48a6.06,6.06,0,0,0-3.45-.69s-1.21,4.34,1.39,4.56,2.06-3.6,2.06-3.6"/><line class="a98e9adc-8452-438e-97b9-20e8c163d509" x1="37.88" y1="39.54" x2="38.81" y2="38.82"/><line class="a98e9adc-8452-438e-97b9-20e8c163d509" x1="36.95" y1="38.72" x2="37.73" y2="37.85"/><path class="eed0221c-5cea-45c1-998f-884c6638532f" d="M31.55,34.67a17.71,17.71,0,0,1,5,0"/><path class="eed0221c-5cea-45c1-998f-884c6638532f" d="M18.61,34.69a18,18,0,0,1,5-.09"/><path class="eed0221c-5cea-45c1-998f-884c6638532f" d="M25.2,47a27.81,27.81,0,0,0,5.61,0"/><ellipse class="a04b7615-8b1e-446d-878a-715fd6b625fb" cx="8.64" cy="31.42" rx="1.57" ry="1.98" transform="translate(-23.54 36.6) rotate(-83.76)"/><ellipse class="a04b7615-8b1e-446d-878a-715fd6b625fb" cx="9.47" cy="24.98" rx="3.87" ry="2.42" transform="translate(-6.47 3.54) rotate(-15.87)"/><path class="a04b7615-8b1e-446d-878a-715fd6b625fb" d="M2.64,16.45s4.11,6.24,12.53,2.61c0,0,6.68,6.67,17.71,1.14,0,0,12.83,2.2,14.91-4.43,0,0,1.65-3.29-2.13-4.93,0,0,2.46-4.6-2.52-5.76a24.22,24.22,0,0,0-8.69-.53s.85-2.71-2.54-3.39S16.8-1.7,14.39,4.69c0,0-10.35-3.29-12.23,3.92C2.16,8.61-2.44,13.4,2.64,16.45Z"/><path class="a04b7615-8b1e-446d-878a-715fd6b625fb" d="M14,15.3s2.24-.08,2-3.43S14.71,2.18,25.2,3s6.55,11.37,6.55,11.37-1,3.36.44,3.9c0,0-3,.13-2.92-1.19,0,0-6.79,4.39-11.93-1.31A2.77,2.77,0,0,1,14,15.3Z"/><path class="eed0221c-5cea-45c1-998f-884c6638532f" d="M19,8.05s.25,2.83,3,1.12"/><path class="eed0221c-5cea-45c1-998f-884c6638532f" d="M18,9.31s.45.19,1.19-.51"/><path class="eed0221c-5cea-45c1-998f-884c6638532f" d="M28.83,9.8s-1.2,2.57-3.21,0"/><path class="eed0221c-5cea-45c1-998f-884c6638532f" d="M29.32,11.32s-.48,0-.93-.88"/><path class="ffca333e-f045-48a8-818e-0beaffe67643" d="M17.76,12.36A7.34,7.34,0,0,1,21.5,11l-.27-.64a18.55,18.55,0,0,0-1.68,1.86.38.38,0,0,0,.45.59,20,20,0,0,1,3-1.08l-.42-.56-.73,1.37a.38.38,0,0,0,.51.51A8,8,0,0,1,25.44,12l-.36-.47a2.94,2.94,0,0,1-.52,1c-.24.33.22.66.52.52a7.25,7.25,0,0,1,2.41-.69l-.32-.56-.75,1.15a.38.38,0,0,0,.42.55l3-.82a.37.37,0,0,0-.2-.72l-3,.81.43.56.75-1.16a.38.38,0,0,0-.33-.56,8.26,8.26,0,0,0-2.79.79l.51.51a3.79,3.79,0,0,0,.59-1.17.38.38,0,0,0-.36-.48A9,9,0,0,0,22,12.39l.52.52.72-1.37a.38.38,0,0,0-.42-.55,20.87,20.87,0,0,0-3.15,1.16l.45.59a18.55,18.55,0,0,1,1.68-1.86.38.38,0,0,0-.26-.64,8.06,8.06,0,0,0-4.12,1.47c-.39.28,0,.93.38.65Z"/><path class="eed0221c-5cea-45c1-998f-884c6638532f" d="M19.57,12.68s-.44,2.58,3,3.36c2.55.57,4.13-.79,4.48-2.45"/></g></g></svg>