<svg xmlns="http://www.w3.org/2000/svg" viewBox="0 0 55.02 58.88"><defs><style>.a988c29f-fdff-4850-b433-d4f59e74aa84{fill:#e5dced;}.b16b5e51-2b37-4c50-8aea-6c8d9ea0baa2,.b2279271-b91a-43fd-942b-8f222156b07c{fill:none;}.a5c735e7-aaab-4fc3-a061-a10aa1c42216,.a7ba33b8-9cd5-4d7c-b6eb-cde981bf9202,.a7ff3b51-b926-45a6-97a9-ec8fa32b8e47,.a9267c50-f34d-47a4-80ca-6eb42beaab16,.a987a8bd-2278-4fb1-a399-217b4d4a51b7,.aa62affd-c961-40cf-9748-317b21585b86,.aeb16e5b-42c8-40f0-beaa-6c5fedfa3cbd,.b16b5e51-2b37-4c50-8aea-6c8d9ea0baa2,.b2279271-b91a-43fd-942b-8f222156b07c,.ee927e18-1f7e-4184-9a32-0c38a6106c53,.ef6a50cd-59dd-417a-859d-797624c137cf{stroke:#231815;stroke-linecap:round;stroke-linejoin:round;}.a7ba33b8-9cd5-4d7c-b6eb-cde981bf9202,.a7ff3b51-b926-45a6-97a9-ec8fa32b8e47,.a9267c50-f34d-47a4-80ca-6eb42beaab16,.a987a8bd-2278-4fb1-a399-217b4d4a51b7,.aa62affd-c961-40cf-9748-317b21585b86,.aeb16e5b-42c8-40f0-beaa-6c5fedfa3cbd,.b2279271-b91a-43fd-942b-8f222156b07c,.ee927e18-1f7e-4184-9a32-0c38a6106c53,.ef6a50cd-59dd-417a-859d-797624c137cf{stroke-width:0.5px;}.a7ff3b51-b926-45a6-97a9-ec8fa32b8e47{fill:#f7f8f8;}.ee927e18-1f7e-4184-9a32-0c38a6106c53{fill:#feefe5;}.aeb16e5b-42c8-40f0-beaa-6c5fedfa3cbd{fill:#595757;}.a987a8bd-2278-4fb1-a399-217b4d4a51b7{fill:#523015;}.ef6a50cd-59dd-417a-859d-797624c137cf{fill:#4f2d13;}.a5c735e7-aaab-4fc3-a061-a10aa1c42216,.b16b5e51-2b37-4c50-8aea-6c8d9ea0baa2{stroke-width:0.75px;}.a5c735e7-aaab-4fc3-a061-a10aa1c42216{fill:#231815;}.b5bdc356-bf9c-4360-b66c-9e587f61b06f{fill:#fff;}.a7ba33b8-9cd5-4d7c-b6eb-cde981bf9202{fill:#898989;}.a9267c50-f34d-47a4-80ca-6eb42beaab16{fill:#e4007f;}.aa62affd-c961-40cf-9748-317b21585b86{fill:#2ea7e0;}</style></defs><g id="af18022d-274d-4fe8-9c5d-e046e61972b3" data-name="레이어 2"><g id="fdd0b45b-6fbf-4ee9-b457-1525a31e939e" data-name="레이어 1"><path class="a988c29f-fdff-4850-b433-d4f59e74aa84" d="M37.33,48.52c4-7.68-3.38-11.23-3.38-11.23-6.37,3.33-13.63.22-13.63.22S13.57,43.22,18,49.34h0s-.68,5.2,0,7.65,17.56,1.81,19.44.32a43.79,43.79,0,0,0-.14-8.79Z"/><path class="b2279271-b91a-43fd-942b-8f222156b07c" d="M34,42.35h0c-.39,2.65-3.33,5.41-3.33,5.41l5.46,2.72c6.45-9-2.17-13.19-2.17-13.19-6.37,3.33-13.63.22-13.63.22s-8,6.77-.82,13.48l5.06-3s-1.9-1.2-3.47-5.16"/><path class="b2279271-b91a-43fd-942b-8f222156b07c" d="M18,49.34s-.68,5.2,0,7.65,17.56,1.81,19.44.32a43.79,43.79,0,0,0-.14-8.79h0"/><path class="a7ff3b51-b926-45a6-97a9-ec8fa32b8e47" d="M22,38.06l3.66,4.72,1.63-1.09-2.24-3A16.16,16.16,0,0,1,22,38.06Z"/><path class="a7ff3b51-b926-45a6-97a9-ec8fa32b8e47" d="M30,38.59A14.19,14.19,0,0,0,34,37.29,20,20,0,0,1,22.83,46.1L22,44.7S29.37,41.15,30,38.59Z"/><path class="ee927e18-1f7e-4184-9a32-0c38a6106c53" d="M20.2,50.57s1.28,3.08,3.83,2-.6-4-.6-4Z"/><path class="ee927e18-1f7e-4184-9a32-0c38a6106c53" d="M35.11,50s-1,3.16-3.67,2.31.32-4,.32-4Z"/><ellipse class="aeb16e5b-42c8-40f0-beaa-6c5fedfa3cbd" cx="27.51" cy="17.09" rx="27.26" ry="4.07"/><path class="ee927e18-1f7e-4184-9a32-0c38a6106c53" d="M35.17,14.7H29c-2.31,1.87-6.84,4.62-14.58,6,0,0-3.48,18.49,13.74,18.2C43.26,38.65,44.12,21.06,35.17,14.7Z"/><path class="a987a8bd-2278-4fb1-a399-217b4d4a51b7" d="M14.34,20.71s8.73-1.13,14.58-6H13.41c-2.91,4-2.41,8.94-1.2,16,1.52,8.92-1.42,8.37-2.46,7.92,1.44.69,7,2.94,9-2.37C18.72,36.23,12.53,31.62,14.34,20.71Z"/><path class="ef6a50cd-59dd-417a-859d-797624c137cf" d="M42.79,31.81c1.42-8.42.47-13.74-1.43-17.11H35.23a15.14,15.14,0,0,1,5,7.22c2.64,9.6-3.41,14-3.41,14,3.37,3.8,8.13,2.13,8.13,2.13C41.37,36.84,42.79,31.81,42.79,31.81Z"/><path class="b16b5e51-2b37-4c50-8aea-6c8d9ea0baa2" d="M26.63,30.49a1.91,1.91,0,0,0,2.16,0"/><path class="b16b5e51-2b37-4c50-8aea-6c8d9ea0baa2" d="M31.46,22.14a17.71,17.71,0,0,1,5,0"/><path class="b16b5e51-2b37-4c50-8aea-6c8d9ea0baa2" d="M18.52,22.17a17.57,17.57,0,0,1,5-.09"/><path class="b16b5e51-2b37-4c50-8aea-6c8d9ea0baa2" d="M24.9,33.76a27.77,27.77,0,0,0,5.61,0"/><path class="a5c735e7-aaab-4fc3-a061-a10aa1c42216" d="M18.79,25.37a7.64,7.64,0,0,1,3.86-.65S24,28.83,21.1,29s-2.31-3.42-2.31-3.42"/><ellipse class="b5bdc356-bf9c-4360-b66c-9e587f61b06f" cx="19.74" cy="25.47" rx="0.81" ry="0.67" transform="translate(-5.37 5.28) rotate(-13.42)"/><path class="b16b5e51-2b37-4c50-8aea-6c8d9ea0baa2" d="M17.21,26.15s2.55-2.87,7.52-.86"/><path class="a5c735e7-aaab-4fc3-a061-a10aa1c42216" d="M31.87,25.25a7.75,7.75,0,0,1,3.89-.44S36.89,29,34,29s-2.12-3.54-2.12-3.54"/><ellipse class="b5bdc356-bf9c-4360-b66c-9e587f61b06f" cx="32.82" cy="25.4" rx="0.81" ry="0.67" transform="matrix(0.98, -0.18, 0.18, 0.98, -4.02, 6.29)"/><path class="b16b5e51-2b37-4c50-8aea-6c8d9ea0baa2" d="M30.25,25.94s2.7-2.72,7.56-.45"/><path class="a7ba33b8-9cd5-4d7c-b6eb-cde981bf9202" d="M.29,17.09c4.33-.54,24.74-2.73,54.47-.25a1,1,0,0,0-.38-.65h0c-1.5-1.31-7.21-2.4-15-3-1.55-.19-2.06-.27-3.78-.41L33.38.25H20.16L18,12.73a64.68,64.68,0,0,0-7,.91c-5.36.61-9.16,1.51-10.35,2.54h0a.92.92,0,0,0-.39.68A.89.89,0,0,0,.29,17.09Z"/><path class="a9267c50-f34d-47a4-80ca-6eb42beaab16" d="M9.94,45.56a3.94,3.94,0,1,0-1.51.55L9,47.6l-1.89.69.55,1.52,1.89-.69.79,2.15,1.51-.56L11,48.56l1.89-.69-.55-1.51-1.89.69Zm-4-2.64a2.08,2.08,0,1,1,2.67,1.24A2.08,2.08,0,0,1,5.91,42.92Z"/><path class="aa62affd-c961-40cf-9748-317b21585b86" d="M47,44.42l.54-2.54,1.77.38-1.66-4.7S44.29,41,44.17,41.17l1.77.38-.54,2.53a3.95,3.95,0,1,0,1.58.34Zm-2,5.64a2.08,2.08,0,1,1,2.46-1.6A2.08,2.08,0,0,1,45,50.06Z"/></g></g></svg>