<svg xmlns="http://www.w3.org/2000/svg" viewBox="0 0 36.02 62.78"><defs><style>.e7b954f7-5198-4980-9953-3b0d2ab2e0b1{fill:#e5dced;}.a2e0ebd6-9d01-4565-8ce5-e78681468a7a,.a4616c17-34e7-455a-b11a-792d6c358de2,.a5abd470-24d8-4914-9d72-8c80b359e3f4,.a9eae45f-b4b8-4b08-bb78-cf5c5f7ab356,.bfbf829f-6f84-406f-aba1-bbe567fb612e,.e7b954f7-5198-4980-9953-3b0d2ab2e0b1,.edb9a1ca-72ab-4c19-8eed-e71f1bd93dbe{stroke:#231815;stroke-linecap:round;stroke-linejoin:round;}.a4616c17-34e7-455a-b11a-792d6c358de2,.a5abd470-24d8-4914-9d72-8c80b359e3f4,.a9eae45f-b4b8-4b08-bb78-cf5c5f7ab356,.bfbf829f-6f84-406f-aba1-bbe567fb612e,.e7b954f7-5198-4980-9953-3b0d2ab2e0b1,.edb9a1ca-72ab-4c19-8eed-e71f1bd93dbe{stroke-width:0.5px;}.a2e0ebd6-9d01-4565-8ce5-e78681468a7a,.a5abd470-24d8-4914-9d72-8c80b359e3f4{fill:none;}.bfbf829f-6f84-406f-aba1-bbe567fb612e{fill:#fff;}.f2b6af05-10ee-4dd3-8d7d-6a5c1276d90f{font-size:4px;fill:#231815;font-family:S-CoreDream-6Bold, S-Core Dream;font-weight:700;letter-spacing:-0.1em;}.a4616c17-34e7-455a-b11a-792d6c358de2{fill:#feefe5;}.edb9a1ca-72ab-4c19-8eed-e71f1bd93dbe{fill:#523015;}.a9eae45f-b4b8-4b08-bb78-cf5c5f7ab356{fill:#4f2d13;}.a2e0ebd6-9d01-4565-8ce5-e78681468a7a{stroke-width:0.75px;}</style></defs><g id="ba3d4f13-fb1f-4c06-8252-3b20d3373b5e" data-name="레이어 2"><g id="bc9b3ce3-f303-414e-a108-c4e251f1e0ba" data-name="레이어 1"><path class="e7b954f7-5198-4980-9953-3b0d2ab2e0b1" d="M10.21,51.38s-1.28,8.85-.85,10,14,1.84,18.61,0c0,0,.29-8-.58-10S10.21,51.38,10.21,51.38Z"/><path class="e7b954f7-5198-4980-9953-3b0d2ab2e0b1" d="M24.9,48.28c-6.59-1.44-9,1.36-9.79,2.76-.24.43-.38.5-.38.5,11.18,2.24,13.7-.31,13.7-.31s1-10.64-3.63-9.19-13.4,0-13.4,0S9,42.82,8.78,48.91s6.09,2.56,6.09,2.56"/><path class="a5abd470-24d8-4914-9d72-8c80b359e3f4" d="M19.5,48.07s-3-2.25-7.91-.87"/><path class="bfbf829f-6f84-406f-aba1-bbe567fb612e" d="M17,9l1.51,3,2-2.77s12.39.85,12.4-3.74C32.94-.12,20.3.34,20.3.34S5.78-.82,4.94,5.37C4.94,5.37,4.43,10.27,17,9Z"/><text class="f2b6af05-10ee-4dd3-8d7d-6a5c1276d90f" transform="translate(10.47 6.42)">나 정도면 -</text><path class="bfbf829f-6f84-406f-aba1-bbe567fb612e" d="M13.87,43.59a13.18,13.18,0,0,0,5.06.74S15.3,49.62,13.87,43.59Z"/><path class="bfbf829f-6f84-406f-aba1-bbe567fb612e" d="M23.89,43.58a13,13,0,0,1-5.06.75S22.47,49.61,23.89,43.58Z"/><path class="a4616c17-34e7-455a-b11a-792d6c358de2" d="M5.53,25.94S1.73,44.36,19,44.36s16.36-22.75,3.25-26.07C22.21,18.29,18,23.93,5.53,25.94Z"/><path class="edb9a1ca-72ab-4c19-8eed-e71f1bd93dbe" d="M22.17,18.29s1.5-8.59-9.62-3.85S1.53,25.1,3.19,35.87.25,43.56.25,43.56s7,4.06,9.35-2c0,0-6.11-4.72-4.11-15.59C5.49,25.94,16.48,24.71,22.17,18.29Z"/><path class="a9eae45f-b4b8-4b08-bb78-cf5c5f7ab356" d="M21.49,14.53s16.94-2,12.25,23c0,0-1.5,5,2,6.29,0,0-4.79,1.59-8.09-2.27,0,0,6.12-4.31,3.65-13.95,0,0-2.06-7.83-9.16-9.3A5.09,5.09,0,0,0,21.49,14.53Z"/><path class="a2e0ebd6-9d01-4565-8ce5-e78681468a7a" d="M17.62,35.92a1.91,1.91,0,0,0,2.16,0"/><path class="a2e0ebd6-9d01-4565-8ce5-e78681468a7a" d="M8.73,30.7s1.32,4.91,6,1.13"/><path class="a2e0ebd6-9d01-4565-8ce5-e78681468a7a" d="M7,32.92s.9.21,2.06-1.22"/><path class="a2e0ebd6-9d01-4565-8ce5-e78681468a7a" d="M27.75,31s-1.48,4.87-6,.94"/><path class="a2e0ebd6-9d01-4565-8ce5-e78681468a7a" d="M29.41,33.3s-.9.18-2-1.29"/><path class="a2e0ebd6-9d01-4565-8ce5-e78681468a7a" d="M27.78,34.26s-.63.17-1.41-1.17"/><path class="a2e0ebd6-9d01-4565-8ce5-e78681468a7a" d="M8.47,33.94s.63.18,1.45-1.13"/><path class="a2e0ebd6-9d01-4565-8ce5-e78681468a7a" d="M14.52,38.49s4.19,3.93,8.25-.91"/></g></g></svg>