<svg xmlns="http://www.w3.org/2000/svg" viewBox="0 0 38.83 69.36"><defs><style>.aac5aaaf-81bf-43e2-a8be-7f6e5559ac0d{fill:#e5dced;}.fb7e8b2b-ac69-4a45-8b7e-50a0c89d8a3a{fill:#feefe5;}.a12e6e07-bde8-4d12-9b11-7709e7f5f396,.ab39fca3-8a35-43d7-80b1-0a6e5c278b8a,.aecbcf52-ce75-467f-9e06-fe1f5a2c8dec,.b115ccbb-988b-4d1d-a8cf-5d46c837aeb4,.b67862dd-919c-4a64-9ecb-764c7f36e587,.be459384-ab42-4ca9-906a-2fc6715a95a6,.e84f1c9c-1e0f-4102-94e8-7c4cbff784de,.fb7e8b2b-ac69-4a45-8b7e-50a0c89d8a3a{stroke:#231815;stroke-linecap:round;stroke-linejoin:round;}.a12e6e07-bde8-4d12-9b11-7709e7f5f396,.ab39fca3-8a35-43d7-80b1-0a6e5c278b8a,.b67862dd-919c-4a64-9ecb-764c7f36e587,.be459384-ab42-4ca9-906a-2fc6715a95a6,.e84f1c9c-1e0f-4102-94e8-7c4cbff784de,.fb7e8b2b-ac69-4a45-8b7e-50a0c89d8a3a{stroke-width:0.5px;}.a12e6e07-bde8-4d12-9b11-7709e7f5f396{fill:#523015;}.ab39fca3-8a35-43d7-80b1-0a6e5c278b8a{fill:#4f2d13;}.aecbcf52-ce75-467f-9e06-fe1f5a2c8dec,.b115ccbb-988b-4d1d-a8cf-5d46c837aeb4,.b67862dd-919c-4a64-9ecb-764c7f36e587{fill:none;}.b115ccbb-988b-4d1d-a8cf-5d46c837aeb4{stroke-width:0.75px;}.be459384-ab42-4ca9-906a-2fc6715a95a6{fill:#e83a4f;}.e84f1c9c-1e0f-4102-94e8-7c4cbff784de{fill:#fff;}</style></defs><g id="eb4f27b7-7858-4485-bc54-8e54b233fdcb" data-name="레이어 2"><g id="a78d0267-be59-4a45-a609-1f619af6e94f" data-name="레이어 1"><path class="aac5aaaf-81bf-43e2-a8be-7f6e5559ac0d" d="M31.66,59c4-7.68-3.38-11.23-3.38-11.23C21.91,51.1,14.65,48,14.65,48S7.9,53.7,12.36,59.83h0s-.68,5.19,0,7.64,17.56,1.81,19.44.33a44.73,44.73,0,0,0-.14-8.8Z"/><path class="fb7e8b2b-ac69-4a45-8b7e-50a0c89d8a3a" d="M8,31.09S4.56,49.57,21.79,49.28s16-23,2.8-26.13C24.59,23.15,20.43,28.86,8,31.09Z"/><path class="a12e6e07-bde8-4d12-9b11-7709e7f5f396" d="M24.55,23.15s1.35-8.61-9.68-3.68S4,30.31,5.87,41.05,3.06,48.8,3.06,48.8s7,3.93,9.32-2.2c0,0-6.19-4.61-4.38-15.51C8,31.09,19,29.67,24.55,23.15Z"/><path class="ab39fca3-8a35-43d7-80b1-0a6e5c278b8a" d="M23.81,19.4s16.9-2.31,12.64,22.78c0,0-1.42,5,2.13,6.26,0,0-4.76,1.67-8.12-2.13,0,0,6-4.42,3.4-14,0,0-2.18-7.78-9.31-9.14A5.1,5.1,0,0,0,23.81,19.4Z"/><path class="b67862dd-919c-4a64-9ecb-764c7f36e587" d="M28.32,52.83h0c1.16,2.64-1.61,5.87-1.61,5.87L30.45,61c6.45-9-2.17-13.19-2.17-13.19C21.91,51.1,14.65,48,14.65,48s-8,6.77-.82,13.48l3.91-2.64a6.12,6.12,0,0,1-2.32-5.55"/><path class="b67862dd-919c-4a64-9ecb-764c7f36e587" d="M12.36,59.83s-.68,5.19,0,7.64,17.56,1.81,19.44.33a44.73,44.73,0,0,0-.14-8.8h0"/><path class="fb7e8b2b-ac69-4a45-8b7e-50a0c89d8a3a" d="M14.21,61.22s1.47,3,3.95,1.8-.84-3.91-.84-3.91Z"/><path class="fb7e8b2b-ac69-4a45-8b7e-50a0c89d8a3a" d="M30.25,60.91S29,64,26.45,63s.54-4,.54-4Z"/><path class="b115ccbb-988b-4d1d-a8cf-5d46c837aeb4" d="M16.91,43.76a2.94,2.94,0,0,0,4.34-.43s3.07,2.06,4.61-1"/><path class="aecbcf52-ce75-467f-9e06-fe1f5a2c8dec" d="M14.49,37.37s.61,1.1,1.44,0-.43-3.22-2.35-1.65.43,3.55.43,3.55,3.73,1.78,4.5-3c0,0,.33-5-5.52-2.49a3.92,3.92,0,0,0-1.94,4"/><path class="aecbcf52-ce75-467f-9e06-fe1f5a2c8dec" d="M27.76,37.37s.61,1.1,1.43,0-.42-3.22-2.34-1.65.43,3.55.43,3.55,3.73,1.78,4.5-3c0,0,.33-5-5.52-2.49a3.92,3.92,0,0,0-1.94,4"/><path class="aecbcf52-ce75-467f-9e06-fe1f5a2c8dec" d="M24.48,28.65s2.49,3,5.88,1.84"/><polygon class="be459384-ab42-4ca9-906a-2fc6715a95a6" points="18.9 14.48 23 13.48 23.36 15.56 19.27 16.42 18.9 14.48"/><path class="be459384-ab42-4ca9-906a-2fc6715a95a6" d="M18.34,12.86l4.24-1-.6-2s4.54-1.23,1.83-6.45-8.26-2.33-8.26-2.33-6.2,2.26-2.2,7.42l2.78-.77s-2.87-4.32,2.95-4.19c0,0,3.23,1,2,4.06,0,0-1.22,2.13-3.09,2.19Z"/><polygon class="be459384-ab42-4ca9-906a-2fc6715a95a6" points="7.47 19.28 9.88 17.5 10.68 18.76 8.25 20.44 7.47 19.28"/><path class="be459384-ab42-4ca9-906a-2fc6715a95a6" d="M6.67,18.37l2.48-1.84-.94-1.14s2.63-2-.57-4.71-6,.74-6,.74-3.43,3.17.6,5.45l1.6-1.27s-3.06-2,.78-3.54A2.13,2.13,0,0,1,7,14.16a3.12,3.12,0,0,1-1.42,2.28Z"/><path class="b115ccbb-988b-4d1d-a8cf-5d46c837aeb4" d="M20.3,40.86a1.92,1.92,0,0,0,2.16,0"/><path class="e84f1c9c-1e0f-4102-94e8-7c4cbff784de" d="M16.43,48.6a13.18,13.18,0,0,0,5.06.74S17.85,54.63,16.43,48.6Z"/><path class="e84f1c9c-1e0f-4102-94e8-7c4cbff784de" d="M26.44,48.6a13.11,13.11,0,0,1-5.06.74S25,54.63,26.44,48.6Z"/></g></g></svg>