<svg xmlns="http://www.w3.org/2000/svg" xmlns:xlink="http://www.w3.org/1999/xlink" viewBox="0 0 76.23 68.4"><defs><style>.b41c7125-bdc6-4b73-bfc5-20dcef0f0b9e{fill:url(#bec88da2-1e91-4a68-8c31-d212f1e3321a);}.a4728c5e-f4a9-42a1-8635-f18edc7f6325{fill:#e5dced;}.a4728c5e-f4a9-42a1-8635-f18edc7f6325,.a788b6fb-0baa-413d-806d-03ed120fd78d,.a9ad3b67-93db-45d6-ab51-ec0f8f97e9b0,.aeb1c63f-493c-4387-80a7-47af5db52b15,.af85593c-550d-4606-a84d-f7fe8f98cd48,.b1c8e3e6-5154-4de2-bc8c-b717d074cde8,.b25a0170-4b85-4a78-9423-07b863b3c7a8,.e909cc34-28fe-4715-8fab-7b5c212bee46,.f62776d0-fe1e-4254-b602-9937761c3610{stroke:#231815;stroke-linecap:round;stroke-linejoin:round;}.a4728c5e-f4a9-42a1-8635-f18edc7f6325,.a788b6fb-0baa-413d-806d-03ed120fd78d,.a9ad3b67-93db-45d6-ab51-ec0f8f97e9b0,.aeb1c63f-493c-4387-80a7-47af5db52b15,.af85593c-550d-4606-a84d-f7fe8f98cd48,.b1c8e3e6-5154-4de2-bc8c-b717d074cde8,.e909cc34-28fe-4715-8fab-7b5c212bee46,.f62776d0-fe1e-4254-b602-9937761c3610{stroke-width:0.5px;}.af85593c-550d-4606-a84d-f7fe8f98cd48,.b25a0170-4b85-4a78-9423-07b863b3c7a8{fill:none;}.a788b6fb-0baa-413d-806d-03ed120fd78d{fill:#fff;}.a9ad3b67-93db-45d6-ab51-ec0f8f97e9b0{fill:#feefe5;}.f62776d0-fe1e-4254-b602-9937761c3610{fill:#523015;}.e909cc34-28fe-4715-8fab-7b5c212bee46{fill:#4f2d13;}.b25a0170-4b85-4a78-9423-07b863b3c7a8{stroke-width:0.75px;}.b1c8e3e6-5154-4de2-bc8c-b717d074cde8{fill:#f8df61;}.aeb1c63f-493c-4387-80a7-47af5db52b15{fill:#3e3a39;}</style><radialGradient id="bec88da2-1e91-4a68-8c31-d212f1e3321a" cx="38.12" cy="26.41" r="32.95" gradientTransform="translate(0 5.21) scale(1 1.09)" gradientUnits="userSpaceOnUse"><stop offset="0.07" stop-color="#fac100"/><stop offset="0.15" stop-color="#fac309" stop-opacity="0.96"/><stop offset="0.28" stop-color="#fbc922" stop-opacity="0.87"/><stop offset="0.45" stop-color="#fbd34b" stop-opacity="0.71"/><stop offset="0.64" stop-color="#fde183" stop-opacity="0.49"/><stop offset="0.85" stop-color="#fef2ca" stop-opacity="0.21"/><stop offset="1" stop-color="#fff" stop-opacity="0"/></radialGradient></defs><g id="e3c5d392-bc62-4d72-ab83-5871cefce18d" data-name="레이어 2"><g id="bc4d6b59-47a1-4e2c-8622-a7a511341ae8" data-name="레이어 1"><ellipse class="b41c7125-bdc6-4b73-bfc5-20dcef0f0b9e" cx="38.12" cy="33.94" rx="34.62" ry="33.94"/><path class="a4728c5e-f4a9-42a1-8635-f18edc7f6325" d="M29.75,56.47s-1.28,8.85-.85,10,14,1.84,18.61,0c0,0,.29-8-.58-10S29.75,56.47,29.75,56.47Z"/><path class="a4728c5e-f4a9-42a1-8635-f18edc7f6325" d="M44.43,53.37c-6.58-1.44-9,1.36-9.79,2.76-.24.43-.37.5-.37.5,11.18,2.24,13.7-.3,13.7-.3s1-10.65-3.63-9.2-13.41,0-13.41,0-2.41.78-2.61,6.87,6.08,2.56,6.08,2.56"/><path class="af85593c-550d-4606-a84d-f7fe8f98cd48" d="M39,53.16s-3-2.25-7.91-.87"/><path class="a788b6fb-0baa-413d-806d-03ed120fd78d" d="M33.41,48.68a12.93,12.93,0,0,0,5.06.74S34.84,54.71,33.41,48.68Z"/><path class="a788b6fb-0baa-413d-806d-03ed120fd78d" d="M43.43,48.67a13,13,0,0,1-5.06.75S42,54.71,43.43,48.67Z"/><path class="a9ad3b67-93db-45d6-ab51-ec0f8f97e9b0" d="M25.07,31S21.27,49.45,38.5,49.46,54.86,26.7,41.75,23.38C41.75,23.38,37.49,29,25.07,31Z"/><path class="f62776d0-fe1e-4254-b602-9937761c3610" d="M41.71,23.38s1.5-8.59-9.62-3.84S21.07,30.19,22.73,41s-2.94,7.69-2.94,7.69,7,4.06,9.35-2c0,0-6.11-4.72-4.11-15.59C25,31,36,29.8,41.71,23.38Z"/><path class="e909cc34-28fe-4715-8fab-7b5c212bee46" d="M41,19.62s16.94-2,12.25,23c0,0-1.5,5,2,6.29,0,0-4.79,1.59-8.09-2.27,0,0,6.12-4.31,3.64-14,0,0-2-7.83-9.15-9.3A5.09,5.09,0,0,0,41,19.62Z"/><path class="b25a0170-4b85-4a78-9423-07b863b3c7a8" d="M37.16,41a1.91,1.91,0,0,0,2.16,0"/><path class="b25a0170-4b85-4a78-9423-07b863b3c7a8" d="M28.26,35.79s1.32,4.91,6,1.13"/><path class="b25a0170-4b85-4a78-9423-07b863b3c7a8" d="M26.51,38s.89.21,2.06-1.22"/><path class="b25a0170-4b85-4a78-9423-07b863b3c7a8" d="M47.28,36.1s-1.47,4.86-6,.93"/><path class="b25a0170-4b85-4a78-9423-07b863b3c7a8" d="M49,38.39s-.91.18-2-1.28"/><path class="b25a0170-4b85-4a78-9423-07b863b3c7a8" d="M47.32,39.36s-.63.16-1.41-1.18"/><path class="b25a0170-4b85-4a78-9423-07b863b3c7a8" d="M28,39s.63.18,1.45-1.13"/><path class="b25a0170-4b85-4a78-9423-07b863b3c7a8" d="M34.06,43.58s4.19,3.93,8.25-.91"/><path class="b1c8e3e6-5154-4de2-bc8c-b717d074cde8" d="M31.7,20.59s7.16,1.93,13,0l-.39-5.1s-2.83,5.8-6.1,0c0,0-3.77,5.61-6.48,0Z"/><path class="aeb1c63f-493c-4387-80a7-47af5db52b15" d="M71.5,63.6c-4.34,1.09-4.16,0-4.16,0a10.26,10.26,0,0,0,1.57-2.87c-.75.13-1.51.24-2.26.34-1.34.19-2.68.41-4,.51-.14,4.94,1.1,5.31,1.1,5.31,2.19.91,9-1.37,9-1.37a2.57,2.57,0,0,0,.68,1.69c.69.64,1.1,0,1.1,0,0-.54.14-2.56.14-2.56S75.84,62.5,71.5,63.6Z"/><path class="aeb1c63f-493c-4387-80a7-47af5db52b15" d="M57.17,61.91l-2.09,0h-.47c.34,1.86-2.26,4.58-2.26,4.58s-2.46.51-2.28,1.06,4.8,0,4.8,0a11.52,11.52,0,0,0,2.84-5.65Z"/><path class="aeb1c63f-493c-4387-80a7-47af5db52b15" d="M55.81,61.92s-6.38.3-5.89-4.17C50.44,53,55,53.09,57.53,55.6c0,0,9.28-1.69,11.94,1.19S68.55,64,68.55,64s-.18,1.1,4.16,0,3.11,1,3.11,1-.07,1.94-.14,2.56c0,0-.41.64-1.09,0a2.55,2.55,0,0,1-.69-1.69s-6.77,2.28-9,1.37c0,0-1.28-.37-1.1-5.53L59,62a11.74,11.74,0,0,1-2.88,5.86s-4.61.56-4.8,0,2.29-1.06,2.29-1.06S56.59,63.76,55.81,61.92Z"/><path class="af85593c-550d-4606-a84d-f7fe8f98cd48" d="M51.23,60.71s1.55-1.79,3-1.85c0,0-1.31-1.56.64-1.65S56,58.61,56,58.61s2.68.34,1.58-3"/><path class="aeb1c63f-493c-4387-80a7-47af5db52b15" d="M4.73,63.6c4.34,1.09,4.16,0,4.16,0a10.55,10.55,0,0,1-1.57-2.87c.76.13,1.51.24,2.27.34,1.33.19,2.67.41,4,.51.14,4.94-1.1,5.31-1.1,5.31-2.19.91-9-1.37-9-1.37a2.57,2.57,0,0,1-.68,1.69c-.69.64-1.1,0-1.1,0,0-.54-.14-2.56-.14-2.56S.39,62.5,4.73,63.6Z"/><path class="aeb1c63f-493c-4387-80a7-47af5db52b15" d="M19.06,61.91l2.1,0h.46c-.34,1.86,2.26,4.58,2.26,4.58s2.47.51,2.28,1.06-4.8,0-4.8,0a11.61,11.61,0,0,1-2.84-5.65Z"/><path class="aeb1c63f-493c-4387-80a7-47af5db52b15" d="M20.43,61.92s6.37.3,5.88-4.17C25.8,53,21.19,53.09,18.7,55.6c0,0-9.28-1.69-11.93,1.19S7.68,64,7.68,64s.18,1.1-4.16,0-3.11,1-3.11,1S.48,67,.55,67.62c0,0,.41.64,1.1,0a2.57,2.57,0,0,0,.68-1.69s6.77,2.28,9,1.37c0,0,1.28-.37,1.1-5.53l4.8.27a11.74,11.74,0,0,0,2.88,5.86s4.62.56,4.8,0-2.29-1.06-2.29-1.06S19.64,63.76,20.43,61.92Z"/><path class="af85593c-550d-4606-a84d-f7fe8f98cd48" d="M25,60.71s-1.55-1.79-3-1.85c0,0,1.31-1.56-.64-1.65s-1.07,1.4-1.07,1.4-2.68.34-1.58-3"/></g></g></svg>