<svg xmlns="http://www.w3.org/2000/svg" viewBox="0 0 121.51 104.36"><defs><style>.a02d9949-067d-4baf-95a9-b5df9e3a0c28{fill:#feefe5;}.a02d9949-067d-4baf-95a9-b5df9e3a0c28,.a150096e-50f4-4eab-a5ec-2b18494c2bb3,.a358ffd1-4d69-42b5-ab9a-2791d30929c2,.a49d1e80-cd4f-4475-a425-ea991c9f831a,.a64d7028-9ddb-4047-b561-e09250164652,.b29a6217-5eb1-45c0-88a9-e63fe6f8e239,.b9dfffa6-56cb-444b-a37e-9ca7122667cd,.e0babd7f-9d7e-4981-bfe7-bdd264e1173f,.efb5b48d-385a-4261-a288-66f048c442ab{stroke:#231815;}.a02d9949-067d-4baf-95a9-b5df9e3a0c28,.a150096e-50f4-4eab-a5ec-2b18494c2bb3,.a358ffd1-4d69-42b5-ab9a-2791d30929c2,.a49d1e80-cd4f-4475-a425-ea991c9f831a,.a64d7028-9ddb-4047-b561-e09250164652,.b29a6217-5eb1-45c0-88a9-e63fe6f8e239,.b9dfffa6-56cb-444b-a37e-9ca7122667cd,.e0babd7f-9d7e-4981-bfe7-bdd264e1173f{stroke-linecap:round;stroke-linejoin:round;}.a02d9949-067d-4baf-95a9-b5df9e3a0c28,.a150096e-50f4-4eab-a5ec-2b18494c2bb3,.a358ffd1-4d69-42b5-ab9a-2791d30929c2,.a64d7028-9ddb-4047-b561-e09250164652,.b9dfffa6-56cb-444b-a37e-9ca7122667cd,.e0babd7f-9d7e-4981-bfe7-bdd264e1173f,.efb5b48d-385a-4261-a288-66f048c442ab{stroke-width:0.5px;}.a358ffd1-4d69-42b5-ab9a-2791d30929c2{fill:#f3fafd;}.a64d7028-9ddb-4047-b561-e09250164652{fill:#d4ecec;}.a49d1e80-cd4f-4475-a425-ea991c9f831a,.e0babd7f-9d7e-4981-bfe7-bdd264e1173f{fill:none;}.a150096e-50f4-4eab-a5ec-2b18494c2bb3{fill:#523015;}.b9dfffa6-56cb-444b-a37e-9ca7122667cd{fill:#4f2d13;}.a49d1e80-cd4f-4475-a425-ea991c9f831a,.b29a6217-5eb1-45c0-88a9-e63fe6f8e239{stroke-width:0.75px;}.b29a6217-5eb1-45c0-88a9-e63fe6f8e239{fill:#231815;}.bef79346-77a2-4edd-b84a-f254a48ab2ed{fill:#fff;}.efb5b48d-385a-4261-a288-66f048c442ab{fill:#036eb8;stroke-miterlimit:10;}</style></defs><g id="a5bbc10e-12a7-4a72-a971-f97a50ef58c3" data-name="레이어 2"><g id="a49482c7-9a18-4802-ac9b-440531c7f6d2" data-name="레이어 1"><path class="a02d9949-067d-4baf-95a9-b5df9e3a0c28" d="M43.13,70.6c-13.83-3-18.92,2.84-20.56,5.78-.5.91-.8,1.06-.8,1.06,23.49,4.71,28.78-.64,28.78-.64s2-22.36-7.62-19.31-28.15,0-28.15,0S9.7,59.12,9.29,71.92s12.78,5.37,12.78,5.37"/><rect class="a358ffd1-4d69-42b5-ab9a-2791d30929c2" x="0.25" y="90.79" width="117.37" height="13.33"/><path class="a64d7028-9ddb-4047-b561-e09250164652" d="M8.84,69.45S.67,69.16.38,78.18s0,16.33,0,16.33,51.36-7,117.9,0c0,0,6.32-26.1-12.94-25.07S8.84,69.45,8.84,69.45Z"/><path class="a02d9949-067d-4baf-95a9-b5df9e3a0c28" d="M98.91,71.3c-12.8-2.8-17.51,2.63-19,5.35-.46.84-.73,1-.73,1,21.73,4.36,26.62-.6,26.62-.6s1.88-20.68-7-17.86-26,0-26,0S68,60.67,67.6,72.52s11.82,5,11.82,5"/><path class="e0babd7f-9d7e-4981-bfe7-bdd264e1173f" d="M88.42,70.88s-5.87-4.37-15.37-1.69"/><circle class="a02d9949-067d-4baf-95a9-b5df9e3a0c28" cx="30" cy="35" r="27.94"/><path class="a02d9949-067d-4baf-95a9-b5df9e3a0c28" d="M60.74,26.29S53.83,62.93,88,62.35s31.65-45.65,5.57-51.79C93.54,10.56,85.29,21.88,60.74,26.29Z"/><path class="a150096e-50f4-4eab-a5ec-2b18494c2bb3" d="M93.45,10.56S96.13-6.51,74.27,3.28,52.78,24.76,56.43,46.05,50.87,61.4,50.87,61.4s13.92,7.8,18.47-4.35c0,0-12.27-9.15-8.69-30.76C60.65,26.29,82.39,23.48,93.45,10.56Z"/><path class="b9dfffa6-56cb-444b-a37e-9ca7122667cd" d="M92,3.14s33.5-4.6,25.06,45.15c0,0-2.81,10,4.22,12.4,0,0-9.43,3.31-16.09-4.22,0,0,12-8.76,6.74-27.78,0,0-4.33-15.44-18.46-18.13A10,10,0,0,0,92,3.14Z"/><path class="a49d1e80-cd4f-4475-a425-ea991c9f831a" d="M85,45.67a3.81,3.81,0,0,0,4.29,0"/><path class="b29a6217-5eb1-45c0-88a9-e63fe6f8e239" d="M68.63,36.21a35.36,35.36,0,0,1,7.65-1.29S79,43.08,73.2,43.49s-4.57-6.77-4.57-6.77"/><ellipse class="bef79346-77a2-4edd-b84a-f254a48ab2ed" cx="70.51" cy="36.33" rx="1.61" ry="1.32" transform="translate(-6.51 17.36) rotate(-13.42)"/><path class="a49d1e80-cd4f-4475-a425-ea991c9f831a" d="M64.71,36a60.15,60.15,0,0,0,15-3.12"/><path class="b29a6217-5eb1-45c0-88a9-e63fe6f8e239" d="M103.5,36.21a35.36,35.36,0,0,0-7.65-1.29s-2.69,8.16,3.08,8.57,4.57-6.77,4.57-6.77"/><ellipse class="bef79346-77a2-4edd-b84a-f254a48ab2ed" cx="97.66" cy="35.95" rx="1.32" ry="1.61" transform="translate(40.03 122.61) rotate(-76.58)"/><path class="a49d1e80-cd4f-4475-a425-ea991c9f831a" d="M107.42,36a60.15,60.15,0,0,1-15-3.12"/><path class="a49d1e80-cd4f-4475-a425-ea991c9f831a" d="M67.2,30.86s7.57,1.08,9.33-5.15"/><path class="a49d1e80-cd4f-4475-a425-ea991c9f831a" d="M94.48,26.51s5.21-1,10.92,3.63"/><line class="a49d1e80-cd4f-4475-a425-ea991c9f831a" x1="83.53" y1="52.03" x2="90.82" y2="52.03"/><path class="efb5b48d-385a-4261-a288-66f048c442ab" d="M24.68,43.13V40.48a12.59,12.59,0,0,1,.56-4.13,5.16,5.16,0,0,1,2.4-2.7c.95-.58,1.81-1.1,2.56-1.57A13.13,13.13,0,0,0,32,30.78,5.69,5.69,0,0,0,33.42,29a4.91,4.91,0,0,0,.35-1.94,2.94,2.94,0,0,0-1.05-2.39,3.79,3.79,0,0,0-2.52-.87,5.19,5.19,0,0,0-2.72.72A3.38,3.38,0,0,0,25.9,26.6,4.21,4.21,0,0,1,24.16,29a4.81,4.81,0,0,1-3.09.7,4.44,4.44,0,0,1-1.44-.33,3.37,3.37,0,0,1-1.2-.8,4,4,0,0,1-.8-1.28,4.29,4.29,0,0,1-.26-1.77,7.35,7.35,0,0,1,1.09-3.72,10.32,10.32,0,0,1,2.78-3,13.88,13.88,0,0,1,4.05-2,16.33,16.33,0,0,1,4.91-.72,17.49,17.49,0,0,1,5,.67,11.31,11.31,0,0,1,3.94,2,9.44,9.44,0,0,1,2.59,3.42,11.72,11.72,0,0,1,.93,4.85,12.4,12.4,0,0,1-.52,3.83,8.85,8.85,0,0,1-1.7,3A17.61,17.61,0,0,1,38,36.17c-1,.76-2,1.48-3.07,2.18a2.83,2.83,0,0,0-1.17,1.28,4.11,4.11,0,0,0-.27,1.54v2Zm-.26,6.44a4.27,4.27,0,0,1,1.21-3.22,4.76,4.76,0,0,1,3.44-1.17,4.75,4.75,0,0,1,3.44,1.19,4.81,4.81,0,0,1,0,6.4A4.75,4.75,0,0,1,29.07,54a4.76,4.76,0,0,1-3.44-1.17A4.27,4.27,0,0,1,24.42,49.57Z"/></g></g></svg>