<svg xmlns="http://www.w3.org/2000/svg" viewBox="0 0 141.09 128.13"><defs><style>.b1886b84-4d34-4905-b8f9-b84cb92817a3{fill:#006934;}.afd713ee-12d7-48b2-b63d-3b41e94c189f{fill:#231815;}.ab418911-b04d-4c5a-b095-11f1a4651398,.f199c129-bdb2-49b0-b25e-85c21671bfd4{fill:#feefe5;}.ab418911-b04d-4c5a-b095-11f1a4651398{stroke:#231815;stroke-linecap:round;stroke-linejoin:round;stroke-width:0.5px;}.ad5cb15f-ed69-41ab-9b8d-2139d2763573{fill:#fff;}.a5d3854c-4ab7-419c-9ba8-1e7d9f09d816{fill:#e60012;}.b0537f9f-12fb-4d16-bc32-35e57df36d8e{fill:#3e3a39;}.abc893bb-aa34-428d-b7df-b72331464894{fill:#727171;}.f8e09997-bb5b-4a67-b979-d2e1102038fe{fill:#604c3f;}</style></defs><g id="eea9f6e2-95d1-4ad2-92f0-8bbc36eb418d" data-name="레이어 2"><g id="e5b28fa7-02da-4ed1-b690-9c78b9b00e9d" data-name="레이어 1"><path d="M139.81,84c-1.07-.06-2.13-.21-3.29-.33,0-1.35-.05-2.63,0-3.9a16,16,0,0,0,0-3.32,14.2,14.2,0,0,1-.08-2.06,6.76,6.76,0,0,0,.08-1.47,5.57,5.57,0,0,1,0-1.73c0-.27,0-.55,0-.83,0-1.14,0-2.28-.05-3.42s0-2.4,0-3.59c-.12-2.33-.32-4.65-.22-7,.05-1.06-.07-2.11-.08-3.17,0-.91.07-1.82.06-2.73,0-1.75-.1-3.49-.15-5.24,0-1-.09-2-.1-3,0-1.5,0-3,0-4.5,0-.47-.19-.93-.22-1.4-.06-.94-.05-1.88-.11-2.82-.12-1.89-.3-3.77-.39-5.66a26.79,26.79,0,0,1,.07-3.23,63.9,63.9,0,0,0,0-7.58c0-.53,0-1.06-.05-1.59-.07-1.08-.15-2.16-.21-3.24a14.76,14.76,0,0,0-.76-4.84c-.19-.46-.37-.93-.53-1.4a4.3,4.3,0,0,0-1.57-2.39,3.34,3.34,0,0,1-.52-.54,5.25,5.25,0,0,0-2.88-1.69c-1.31-.24-2.64-.41-3.94-.71a20.26,20.26,0,0,0-4.39-.39c-2,0-4.06,0-6.09,0C111.32.17,108.2,0,105.09,0c-2.87,0-5.74.06-8.61.09-.64,0-1.28,0-1.92,0-1.89.13-3.77.3-5.66.45a21.23,21.23,0,0,1-2.25.14,39,39,0,0,0-7,.45,59.56,59.56,0,0,1-5.94.77c-1.74.1-3.46.4-5.22.38-2.33,0-4.67.12-7,.2-1.28,0-2.56.12-3.84.18s-2.56.16-3.84.16c-2.59,0-5.18-.16-7.77-.08-3.56.11-7.12.38-10.68.56-1.64.09-3.28.14-4.93.22-1.36.07-2.72.12-4.07.24-1.16.11-2.31.42-3.47.44-3.46.07-6.86.71-10.29,1.08a15.64,15.64,0,0,0-2.5.59c-1.16.32-2.33.61-3.44,1A6.26,6.26,0,0,0,4.2,8.43a23.29,23.29,0,0,0-1.45,1.83,9,9,0,0,0-1.51,3.81c-.19,1-.35,2.08-.52,3.12a24.82,24.82,0,0,0-.36,2.55c-.13,2.45-.21,4.9-.28,7.34,0,1.59,0,3.18,0,4.76,0,1.11.09,2.22,0,3.33a37.3,37.3,0,0,0,.17,6.34c.09.71.24,1.42.31,2.14.1.94.11,1.89.21,2.83.15,1.49.33,3,.52,4.47.23,1.9.49,3.8.72,5.7.06.49,0,1,.08,1.49.29,2.31.63,4.62.91,6.94.29,2.51.53,5,.82,7.54.24,2.1.51,4.19.79,6.28a20.49,20.49,0,0,1,.33,4c-1.14.12-2.24.25-3.34.34a1.54,1.54,0,0,0-.56.13,14,14,0,0,0-.37,4.08c0,1.57,0,3.13,0,4.69,0,.57,0,1.13-.06,1.7a.59.59,0,0,1,.06.14c.28,1.52,2.36,1.4,3.57,1.39,2,0,4,0,6.06,0h2l.24,0c2-.1,3.93-.14,5.89-.21L20.69,95l2.94-.11a11,11,0,0,1,2.68-.19l.08,0,.15,0H44.75a1,1,0,0,1,1,.72.92.92,0,0,1,.16.31.69.69,0,0,1,.05.13,6.47,6.47,0,0,1,.71,1.35,1.47,1.47,0,0,0,.16.28l.25.27c.72-.19,1.44-.4,2.14-.65.37-.12.73-.26,1.09-.4l.47-.19-.12,0,.16-.06.25-.11h0a.93.93,0,0,0,.33-.79,6.82,6.82,0,0,0-.07-.9c.09,0,.16-.13.24-.13,1.21,0,2.41-.47,3.64-.13a1.85,1.85,0,0,0,.41,0l5.17.2c.7,0,.78.1.79.77,0,1.25,0,2.5,0,3.74,0,.53-.11,1.05-.16,1.57s-.12.94-.13,1.41a2.39,2.39,0,0,0,.14.88A1.69,1.69,0,0,0,63,104.14c0,.17,0,.28,0,.39,0,.63,0,1.28.09,1.91.21,1.7.47,3.39.68,5.09a1.41,1.41,0,0,0,1.31,1.35l4.9.5c.43.05.62.16.7.42a1.25,1.25,0,0,1,.22.41,1.08,1.08,0,0,1,.1.43v5.88s0,0,0,0a.9.9,0,0,1-.34,1,8.05,8.05,0,0,1-2.25,2.06,2.5,2.5,0,0,0-.58.46,1,1,0,0,0-.29,1.21c0,.16.15.3.2.46a1.35,1.35,0,0,0,1.52,1.19c1.36,0,2.73,0,4.08-.1a1.1,1.1,0,0,1,1.24.61,1.39,1.39,0,0,0,1.4.72c1,0,1.94-.06,2.91-.08a1.52,1.52,0,0,0,1.44-.8,2.81,2.81,0,0,1,.89-.82,4.26,4.26,0,0,1,.89-.38l.3,1.19a1,1,0,0,0,1.37.8c.5-.17,1-.37,1.49-.57l.11-.06c.28-.47.54-.94.78-1.43.06-.12.11-.24.17-.35s.19-.31.24-.47l0-.07c.32-1.37.65-2.73.93-4.11s.5-2.84.78-4.25c.19-.93.44-1.85.67-2.78,1,.22,1.52.09,1.93-.57a7.8,7.8,0,0,0,.6-1.19c.49-1.3,1-2.61,1.43-3.91.3-.8.63-1.58.95-2.38.54.13.93.19,1.29.32a20.47,20.47,0,0,0,4.71,1.36,2,2,0,0,0,1.65-.32,1.69,1.69,0,0,0,0-2.61c-.45-.41-.91-.81-1.35-1.25s-.43-.62-.07-1.12.76-1.16,1.13-1.74c.18-.28.35-.56.54-.83.75-1,1.5-2.06,2.26-3.08a1.18,1.18,0,0,1,.4-.37,5.37,5.37,0,0,1,.44-.37,3.22,3.22,0,0,1,.81-.4,7,7,0,0,1,1.63-.31.59.59,0,0,1,.23,0h22.65a9.79,9.79,0,0,0,1.07-.14,6.54,6.54,0,0,1,1.46-.17H133a21,21,0,0,1,3.54-.27c.61,0,1.21,0,1.82,0,.29,0,.6,0,.89-.06a0,0,0,0,0,0,0c0-.07.05-.15.07-.23.07-.27.14-.55.22-.82a4.51,4.51,0,0,1,.08-.53c0-.18.11-.35.15-.52v0a3.73,3.73,0,0,1,0-.46c.09-.62.21-1.25.3-1.88,0-.3,0-.61.11-.9.27-1.17.53-2.33.85-3.48A1.26,1.26,0,0,0,139.81,84Zm-120,8.84a88.52,88.52,0,0,1-16.44,0L4,92.72a39.2,39.2,0,0,1,6.59-.08c.33,0,.66.13,1,.14,1.22,0,2.43,0,3.65,0s2.27,0,3.4-.07c.25,0,.5-.07.75-.09a4.17,4.17,0,0,1,.5,0Zm19-4.94c0,.22.09.42.17.78l-.87-.12-.47,1c.28.11.77-.21.76.43-1.07.09-2.14.21-3.21.28s-2,0-3.08.1c-.74.05-1.47.26-2.22.31-1.47.11-2.94.17-4.41.22-1.69.05-3.38.09-5.08.1-1.22,0-2.44,0-3.67,0-.52,0-1,.14-1.57.13-1.25,0-2.5-.06-3.75-.1A44.72,44.72,0,0,0,4,91a13.73,13.73,0,0,1-1.71,0,7.13,7.13,0,0,1-.15-1.25c0-1.24.15-2.49.24-3.74.05-.68.15-.76.83-.94a21.52,21.52,0,0,1,4.81-.34c1.08,0,2.16-.18,3.24-.23s2.39-.12,3.58-.1c1.61,0,3.22.15,4.82.16,1.36,0,2.71-.1,4.07-.12.71,0,1.43.12,2.15.11,1.7,0,3.39-.14,5.08-.18s3.38,0,5.07,0a16.82,16.82,0,0,0,2.24-.22,5.8,5.8,0,0,1,3.14.14c-.18.36-.56.36-.84.44C39.05,85.15,38.56,85.85,38.85,87.89ZM12.42,79.3A2.92,2.92,0,0,1,13.54,79c2.91,0,5.83,0,8.74,0,1.53,0,3,.11,4.58.19.62,0,.8.2.82.8a15.22,15.22,0,0,1,0,1.91c-.06.63-.2.71-.8.71-2.89,0-5.78,0-8.67,0-1.83,0-3.66-.15-5.67-.23-.21-.66-.47-1.33-.65-2S11.81,79.57,12.42,79.3ZM43.13,91.14V91h1c.69,0,1-.41,1-1.22,0-.58-.17-.75-.89-.83l-.33,0a9.17,9.17,0,0,1,.26-1.18c.13-.38,0-.61-.36-.67a4.09,4.09,0,0,0-1.05,0c-.62,0-1.24.13-2,.21.33-.8,1-.88,1.44-1.16.31-.17.66-.29,1-.44a1.2,1.2,0,0,1,1.79.84,16.22,16.22,0,0,0,1.4,3.36c.19.36.33.74.51,1.16C45.6,91.29,44.38,91.67,43.13,91.14ZM39.82,75c-.72-1.63-1.39-3.28-2.1-4.91q-1.89-4.3-3.8-8.6c-.62-1.39-1.34-2.74-2-4.13a19.38,19.38,0,0,1-.62-2.06l1.58-.85,1.49,3.45c.32.73.65,1.46,1,2.19.22.51.45,1,.68,1.52.55,1.22,1.1,2.43,1.64,3.65.34.76.67,1.53,1,2.29q1,2.3,2,4.6c.25.61.51,1.21.75,1.83.69,1.82,1.37,3.63,2,5.45.33.9.65,1.81,1,2.86l-.62,1c-.34-.56-.64-1-.88-1.48-.35-.69-.66-1.4-1-2.1C41.27,78.12,40.52,76.57,39.82,75ZM48.2,95.77c-.47-.87-1.3-1.46-1.49-2.58l1.3-.48a17.83,17.83,0,0,1,1.27,2.73Zm5.41-4.43,0-.09c.21-.09.41-.18.62-.25l3.08-1c.38-.13.76-.39,1.18,0,.07.06.29,0,.44-.08A1.19,1.19,0,0,1,60.47,91Zm9-1.45a3,3,0,0,0-2.35-2.14,6.7,6.7,0,0,0-4.57.55,19.74,19.74,0,0,1-4.25,1.45,17.31,17.31,0,0,0-2.42.77c-.62-1.17-1.3-2.32-1.86-3.52a2.29,2.29,0,0,1-.18-2.22c.14-.26.24-.49.5-.57.63-.19,1.28-.35,1.91-.52a2.53,2.53,0,0,0,.49-.14c.84-.41,1.66-.88,2.52-1.26A12.78,12.78,0,0,0,55,80.64a8.83,8.83,0,0,1,1.51-.82A24.6,24.6,0,0,0,61,77.31a.79.79,0,0,1,.3-.08,4.94,4.94,0,0,1-.8,1.91c-.6,1-.41,1.67.68,2.17s2.07,1.08,3.13,1.55c1.21.53,2.46,1,3.69,1.48.41.16.79.37,1.26.58a3.86,3.86,0,0,1-1.28,1.37,2.18,2.18,0,0,0-1.11,1.07,2.11,2.11,0,0,1-.49.66,14.46,14.46,0,0,0-2.65,3,2.31,2.31,0,0,1-.5.43C63,90.91,62.72,90.41,62.56,89.89ZM104,40.29A6.41,6.41,0,0,0,103,38.62a23,23,0,0,0-2.8-3.27,10.09,10.09,0,0,0-1.2-.86,19.06,19.06,0,0,0-5-2.31c-1.57-.46-3.14-1-4.73-1.33-1.22-.28-2.47-.38-3.71-.57a17.22,17.22,0,0,1-2.78-.5c-2.38-.75-4.73-1.64-7.11-2.4a12.42,12.42,0,0,1-3.78-2.19,27.43,27.43,0,0,1-2.5-2,3.9,3.9,0,0,1-1-1.52,1.18,1.18,0,0,0-2-.63,12.26,12.26,0,0,1-3.09,1.75,12.16,12.16,0,0,0-3.66,2.3c-.77.71-1.6,1.37-2.41,2a28.21,28.21,0,0,0-5.07,5.62,5.58,5.58,0,0,1-2.14,2,4.67,4.67,0,0,0-1.58,1.55c-.43.59-.31.87.31,1.27a1.54,1.54,0,0,1,.23.18L48,41.14l-1.92.26A10,10,0,0,1,45.84,40c-.05-1.31-.14-2.62-.07-3.92A17.27,17.27,0,0,1,46.66,31,20.13,20.13,0,0,1,47.74,28a19.54,19.54,0,0,1,3.35-4.63c.91-.89,1.75-1.87,2.63-2.79a5.57,5.57,0,0,1,.64-.52c.28-.22.56-.44.83-.67a10.87,10.87,0,0,1,2.44-1.53c1.37-.67,2.73-1.35,4.12-2a7.9,7.9,0,0,1,2-.69,17,17,0,0,1,3.11-.51c.73,0,1.44.06,2.15.13a4.36,4.36,0,0,1,1.27.35,1.33,1.33,0,0,0,1.48-.1,5.57,5.57,0,0,1,1.76-.69,11.3,11.3,0,0,1,2.36-.51,20.78,20.78,0,0,1,6.14.44c.6.12,1.21.18,1.8.33a16.49,16.49,0,0,1,2.15.63c1,.41,2.09.87,3.11,1.37s1.82,1,2.72,1.46l3.84,2.17a3.36,3.36,0,0,1,.54.39c1.54,1.35,3.15,2.64,4.6,4.1A12.8,12.8,0,0,1,104,29.62a10.74,10.74,0,0,0,.54,1.2,27.84,27.84,0,0,1,2.31,8.74c.23,1.89-.11,3.73,0,5.61l-2.18.3a2,2,0,0,1-.08-.59A9.93,9.93,0,0,0,104,40.29ZM53.38,34.45a1.13,1.13,0,0,1,.12-.38c.81-1,1.56-2.1,2.46-3s2.1-2,3.17-2.93c.71-.63,1.47-1.19,2.17-1.82A13.56,13.56,0,0,1,65.13,24l1.74-.74c.48.51,1,1,1.52,1.64a9.35,9.35,0,0,0,2.19,1.78,31.34,31.34,0,0,0,2.77,1.81,6.52,6.52,0,0,0,2.14.82,10,10,0,0,1,1.87.69c1.69.6,3.38,1.22,5.07,1.8a5.64,5.64,0,0,0,1.47.29A31.14,31.14,0,0,1,90,33.13a3,3,0,0,1,.32.16c-.25,0-.37,0-.5,0a3.51,3.51,0,0,0-2.21.52c-1,.6-2.09,1-3.14,1.53-.7.34-1.41.67-2.07,1.07a10.9,10.9,0,0,1-3.71,1.19c-1,.19-1,.16-1.59,1.06a1.37,1.37,0,0,0,1.45,1,8.54,8.54,0,0,0,3.42-.95c2-1,4-2,6-3a3,3,0,0,1,3.22.2,5.87,5.87,0,0,1,2.27,2,.88.88,0,0,0,.7.3.61.61,0,0,0,.57-.62,5.57,5.57,0,0,0-.1-.82c0-.16-.14-.36-.08-.48.28-.59-.09-.76-.52-1a13.9,13.9,0,0,1-2.3-1.59c.65.2,1.31.37,2,.61.91.33,1.8.7,2.7,1.06a3.36,3.36,0,0,1,.6.3,11.92,11.92,0,0,1,4.13,4.16H99a44.09,44.09,0,0,0-6.07.39,89,89,0,0,0-11.86,2.63c-1.25.36-2.54.55-3.81.84A4.8,4.8,0,0,0,76,44.1a1.75,1.75,0,0,1-1.66,0A3.85,3.85,0,0,0,72,44c-.62.12-1.28.06-1.91.15s-1.16.26-1.86.43c-1-1-2.49-1.27-3.89-1.75A10.82,10.82,0,0,0,62,42.5c-1.16-.13-2.32-.24-3.47-.41s-2.07-.39-3.12-.53c-.6-.09-1.22-.06-1.83-.09-1,0-2-.09-3.08-.17-.56,0-.79-.34-.59-.84a16.62,16.62,0,0,1,2.17-4.09l2.07.62,1.59.49a22.52,22.52,0,0,1,5.1,2.43,2.72,2.72,0,0,0,.84.35,1,1,0,0,0,1.29-1c0-.22,0-.44,0-.79Zm-6.79,8.84a18.78,18.78,0,0,0,2.12-.43l3.74.26c.59,0,1.18,0,1.75.08,1.13.14,2.25.35,3.38.53.3.05.6.12.9.15,1.3.12,2.59.25,3.9.32a16.45,16.45,0,0,1,3.84,1.06,1.58,1.58,0,0,1,1,.94,1.08,1.08,0,0,0,1.81.46,3.44,3.44,0,0,1,2.09-.72,6.35,6.35,0,0,1,2.64.09c.36.14.73.27,1.08.42s.71.34,1.1,0a7.61,7.61,0,0,1,3.35-1.3c1.15-.21,2.28-.52,3.41-.82s2.5-.76,3.77-1,2.41-.42,3.61-.62c1-.17,1.91-.38,2.87-.5a24,24,0,0,1,4.56-.29c.67,0,1.34,0,2,0a6.48,6.48,0,0,1,2.34.52c.25.1.46.21.48.51a13.74,13.74,0,0,1,0,2.72.46.46,0,0,1-.11.22,14.83,14.83,0,0,1-1.33,1.79,35,35,0,0,1-3.65,3.34c-.59.45-1.14.95-1.73,1.41-1.6,1.24-3.17,2.52-4.83,3.68a5.79,5.79,0,0,1-3.53,1.09,3.33,3.33,0,0,1-1.69-.63,26,26,0,0,1-3.4-3c-.66-.68-1.42-1.25-2.1-1.91s-1.32-1.41-2-2.11c-.21-.22-.41-.52-.68-.61a7.52,7.52,0,0,1-1.77-1,3.89,3.89,0,0,0-2.23-.54c-1.19,0-2.38.15-3.57.25a7.47,7.47,0,0,0-1.24.21,1.79,1.79,0,0,0-1.17.72,1.68,1.68,0,0,1-.68.59,8.85,8.85,0,0,0-2.09,1.65c-1,.86-2,1.79-3.05,2.68A14.91,14.91,0,0,1,57.55,56a3.83,3.83,0,0,1-4-.48c-1.33-1-2.65-2-3.95-3-.6-.48-1.1-1.1-1.73-1.55a23.66,23.66,0,0,1-2.5-2.18,5.23,5.23,0,0,1-1.19-3,.93.93,0,0,1,.1-.48A2.88,2.88,0,0,1,46.59,43.29ZM48,53.84l1.72,1.4c.26.21.5.44.77.63.62.43,1.27.81,1.86,1.27a5.25,5.25,0,0,0,5.78.62,20.08,20.08,0,0,0,5.16-3.28c1.18-1,2.43-2,3.65-3a4.22,4.22,0,0,1,.54-.28A6.14,6.14,0,0,1,66.11,54a5.48,5.48,0,0,1-1.06.6c-.37.2-.9.21-.88.84A1.23,1.23,0,0,0,65,56.63c1.07.44,2.12.94,3.19,1.4a.84.84,0,0,0,.47,0,2.38,2.38,0,0,0,.73-1.4.84.84,0,0,0-.76-.77,1.36,1.36,0,0,1-.48-.12c-.26-.13-.52-.3-.78-.46.37-.51.75-1,1.08-1.48a4.71,4.71,0,0,0,1-3,4.19,4.19,0,0,1,.14-.9,2.73,2.73,0,0,1,1.75-.36,11.21,11.21,0,0,0,1.42,0,3.62,3.62,0,0,1,1.84.46c.16.09.36.23.52.21.78-.1,1.15.4,1.53.93a4.12,4.12,0,0,0,.49.67c.8.77,1.62,1.51,2.42,2.27.24.23.44.49.69.71A22.13,22.13,0,0,0,83.92,58a14.21,14.21,0,0,0,2.41,1.11,3.55,3.55,0,0,0,2,0,12,12,0,0,0,3.07-1.24,25.55,25.55,0,0,0,3.09-2.11c1.24-.93,2.43-1.92,3.67-2.86a25.39,25.39,0,0,0,3.65-3.15,16.94,16.94,0,0,1,1.61-1.43,1,1,0,0,1,.37-.16,12.52,12.52,0,0,0,1.35-.59,1.15,1.15,0,0,1,1.39,0,2.74,2.74,0,0,1,1.12,2.9,8.17,8.17,0,0,1-3.87,5.46,2.87,2.87,0,0,1-1.74.46c-.91,0-1.34.28-1.4,1.16a7.63,7.63,0,0,1-1.06,3,8.31,8.31,0,0,1-2.09,2.88c-1.21,1-2.23,2.23-3.81,2.68,0,0-.06,0-.08,0a6,6,0,0,1-1,.85c-.35.18-.75.2-1.13.43a7.92,7.92,0,0,1-2.07.82c-1.52.43-3,1-4.46,1.54-.34.13-.68.26-1,.36L78.1,71.6a27.41,27.41,0,0,1-6.22,1.09,10.53,10.53,0,0,1-3.06-.28c-.7-.19-1.42-.28-2.13-.42A35.63,35.63,0,0,1,61,70.44a16.9,16.9,0,0,1-5.23-2.86c-1-.83-2.07-1.51-3-2.4-1.8-1.78-3.45-3.67-3.92-6.32-.28-1.63-.72-3.24-1.09-4.86ZM96.49,75.77a5.2,5.2,0,0,1-.6-.78c-1-1.39-2.09-2.8-3.17-4.18a8.33,8.33,0,0,0-1.15-1c1-.4,1.93-.75,2.84-1.06a5.34,5.34,0,0,0,1.14-.65,15.54,15.54,0,0,0,3.72-3.87,32.34,32.34,0,0,0,2.12-3.08,13.28,13.28,0,0,0,1-2.2,1.29,1.29,0,0,1,1-.87,12.33,12.33,0,0,0,1.77-.67c-1.94,7.61-2.39,15.33-2.72,23.13-1.18-.41-1.94-1.4-3-1.92s-2-1.1-3.08-1.68C97.09,76.37,97.07,76.31,96.49,75.77ZM81.76,78.56a1.78,1.78,0,0,0,.82,1.08c.24.13.39.44.57.68.58.78,1.14,1.56,1.8,2.46a14.54,14.54,0,0,1-1.64.71,60.44,60.44,0,0,0-7,2.6,28.41,28.41,0,0,1-4,1.49c-1.07.25-2.1.69-3.16,1a2.44,2.44,0,0,1-.39,0,3.51,3.51,0,0,1,.44-.56,23.54,23.54,0,0,0,4.18-4.83c.64-.93,1.44-1.76,2.16-2.64.12-.15.21-.32.32-.47.28-.42.54-.85.84-1.24,1-1.28,2-2.55,3-3.84.48-.62.9-1.27,1.37-1.88a1.26,1.26,0,0,1,.61-.39c1.11-.34,2.24-.62,3.35-1a26.18,26.18,0,0,0,2.89-1,1.86,1.86,0,0,1,2.26.43,19.09,19.09,0,0,0,1.44,1.26A11,11,0,0,1,94,75.75a4.2,4.2,0,0,1-1.88.34c-.55,0-1.11,0-1.65,0s-1.36.27-2,.41c-1.09.22-2.17.48-3.26.64a15.54,15.54,0,0,1-2.16.07c-.17,0-.33,0-.5,0C81.73,77.29,81.46,77.82,81.76,78.56ZM70.2,80c.59.57,1.16,1.16,1.79,1.78A12.37,12.37,0,0,1,71.06,83a.79.79,0,0,1-.67.12,24.29,24.29,0,0,1-5.07-2.28A17,17,0,0,0,63.43,80c-.36-.17-.69-.4-1.09-.64l.89-1.8,1.55-3a1.62,1.62,0,0,1,.3-.39.46.46,0,0,1,.74,0,20.46,20.46,0,0,1,1.53,1.82,8,8,0,0,1,.86,1.6A8,8,0,0,0,70.2,80Zm-1.07-5.4c1.59-.08,3.1-.19,4.62-.23a25.39,25.39,0,0,0,4.51-.91,55.67,55.67,0,0,1-5,6.53C71.53,78.46,69.87,76.89,69.13,74.64ZM51.28,66.45l1.55,1.4a4.61,4.61,0,0,1,.57.6,5.47,5.47,0,0,0,2.28,1.61,1.63,1.63,0,0,1,.23.11,20.38,20.38,0,0,0,6.67,2.91,5.79,5.79,0,0,1,.75.37l0,.22a7.52,7.52,0,0,0-.85.17c-.28.09-.67.15-.81.35a7.65,7.65,0,0,1-2.13,1.72,23.78,23.78,0,0,1-3.72,2,2.57,2.57,0,0,1-.42.14,21.68,21.68,0,0,1-1.24-3.34c-.45-1.48-.91-3-1.44-4.42-.41-1.15-.95-2.25-1.42-3.37A.59.59,0,0,1,51.28,66.45ZM76,121.17c-.79.11-1.56.35-2.35.47s-.8,0-.73-.73a24.64,24.64,0,0,0,.11-2.72c0-1-.13-1.93-.14-2.9a15.7,15.7,0,0,1,.18-1.79,19.51,19.51,0,0,1,3.89,0,4.67,4.67,0,0,1,.31,2c.06,1.26,0,2.54.15,3.8A1.66,1.66,0,0,1,76,121.17Zm10-2.23c-1.1.42-2.11.83-3.13,1.2a8.29,8.29,0,0,1-3.3.51c-.12-2.32-.25-4.65-.37-7.07,2.5.07,5-.07,7.65.25C86.57,115.63,86.29,117.29,86,118.94Zm5.13-11.65c-.32.8-.56,1.62-.84,2.43a8.3,8.3,0,0,1-.45,1.17,1.43,1.43,0,0,1-1.6.87c-1.13-.14-2.28,0-3.41-.13-3.28-.35-6.56,0-9.84-.2-1.16-.08-2.33,0-3.5,0a8,8,0,0,1-1.9-.2,12.5,12.5,0,0,0-2.72-.34,8.52,8.52,0,0,1-1.07-.18c-.27-2.1-.52-4.07-.79-6.18.36,0,.62,0,.87,0l3.07.27c.78.08,1.55.22,2.32.23,2.31,0,4.61,0,6.92,0,1.38,0,2.77.14,4.15.21.67,0,1.34,0,2,0,.44,0,.88,0,1.32.08.61,0,1.21.09,1.82.11.89,0,1.77,0,2.65,0,.48,0,1-.06,1.49-.09A4.39,4.39,0,0,1,91.15,107.29Zm7.8-1.93c-1.39-.44-2.78-.9-4.17-1.35a1.33,1.33,0,0,1-1-1c.62-.54.31-1.29.14-2.21a7.85,7.85,0,0,0,4,.92,2.34,2.34,0,0,1-.11.47,1.09,1.09,0,0,0,.17,1.25c.44.53.92,1,1.39,1.52l.41.46A4.33,4.33,0,0,1,99,105.36Zm-4-14.48a4.6,4.6,0,0,1,.69.24c.39.19.77.43,1.16.63s.43.54.44,1.07a13.76,13.76,0,0,1-2.58.21A5.42,5.42,0,0,1,94.92,90.88Zm10.94-1.41a12.46,12.46,0,0,1-2.37,4.6,37.86,37.86,0,0,0-3.24,4.41,8.71,8.71,0,0,1-1.14,1.3.7.7,0,0,1-.29.13.3.3,0,0,1-.16,0,18.7,18.7,0,0,1-3.24-.7A2.36,2.36,0,0,1,95,99c.23-.6.83-.79,1.25-1.2l.3.63a.83.83,0,0,0,.57-.81,5.89,5.89,0,0,1,1.43-2.85,1.11,1.11,0,0,1,.82-.5c.75-.1.9-.58.46-1.23a1,1,0,0,1-.14-.52A1.64,1.64,0,0,0,99,91.08c-.43-.3-.89-.55-1.33-.85s-.85-.6-1.28-.9a2.19,2.19,0,0,0-.5-.27,3.35,3.35,0,0,0-.64-.17c-.48-.09-1-.3-1.45,0s-.51.74-.6,1.21c-.29,1.47-.64,2.93-.9,4.41a13.63,13.63,0,0,0-.09,1.81,3,3,0,0,1-.55,2.2c-.15.15-.12.54-.06.79a2.46,2.46,0,0,1-.21,1.77,2.43,2.43,0,0,0-.26,1.61,1.23,1.23,0,0,1-.06.41,8.88,8.88,0,0,1-3.77.3c-2-.18-4-.12-6-.18-.72,0-1.44-.07-2.16-.1-1,0-2.05-.11-3.08-.09-1.69,0-3.38,0-5.08-.07-1.91-.13-3.81-.35-5.71-.63A9.45,9.45,0,0,1,64,102c-.32-.1-.39-.35-.38-.66,0-.75,0-1.5,0-2.25,0-1.53.11-3,.12-4.57a1.55,1.55,0,0,1,.43-1.09A7,7,0,0,1,67,91.61c1.5-.68,3.05-1.16,4.58-1.74.9-.33,1.86-.53,2.79-.8a7.68,7.68,0,0,0,1-.35c1-.47,2-1,3-1.44s2-.72,3.07-1.07,2.31-.78,3.45-1.21a11.32,11.32,0,0,1,1.8-.81c.47-.1.75-.62.93-1.1a.61.61,0,0,0-.27-.8A4.22,4.22,0,0,1,86.08,81c-.42-.51-.87-1-1.31-1.48,3.15-1,6.41-1.19,9.67-1.55C95,78.75,96,79,96.78,79.52c1.1.7,2.25,1.32,3.33,2.06a28.41,28.41,0,0,1,2.66,2.12,10,10,0,0,1,1.33,1.57c.52.72,1,1.5,1.46,2.23A2.23,2.23,0,0,1,105.86,89.47Zm-1.18-7.15a5.26,5.26,0,0,0-.16-2.18,5.76,5.76,0,0,1,.06-2.06c0-.16.11-.33.09-.49a21.43,21.43,0,0,1,.24-4.38,97.5,97.5,0,0,1,1.21-10.92c.29-1.69.79-3.35,1.18-5,.15-.64.26-1.29.42-1.94a5.16,5.16,0,0,1,.36-1.09c.45-.89,1-1.74,1.4-2.64a2.74,2.74,0,0,0,.24-1.2c0-.78-.09-1.56-.16-2.33a1.52,1.52,0,0,0-.17-.64,5.14,5.14,0,0,1-.46-3.48,10.9,10.9,0,0,0-.06-2c0-.55,0-1.11,0-1.66a10.56,10.56,0,0,0-.13-1.39c-.37-1.91-.71-3.83-1.18-5.71a21.5,21.5,0,0,0-1.16-2.93c-.3-.74-.59-1.5-.94-2.22a14.37,14.37,0,0,0-1.87-3.1c-.45-.53-.87-1.09-1.36-1.58-.78-.78-1.6-1.53-2.41-2.28-.18-.17-.4-.3-.56-.48a16.63,16.63,0,0,0-4.71-3.22c-.44-.24-.89-.45-1.3-.73A29.18,29.18,0,0,0,90,15a30.19,30.19,0,0,0-3.32-1.54A29.39,29.39,0,0,0,78,11.81a9.51,9.51,0,0,0-3.15.1c-1.15.32-2.3.64-3.46.91a2.69,2.69,0,0,1-1.23,0,10.16,10.16,0,0,0-3.93-.37,9.79,9.79,0,0,0-4.51,1.31,18.25,18.25,0,0,1-2.49,1.15,31,31,0,0,0-3,1.55A38.7,38.7,0,0,0,52.66,19a19.9,19.9,0,0,0-2,2c-.32.34-.63.71-.92,1.08-1,1.27-2.11,2.51-3.05,3.85a11.69,11.69,0,0,0-1.78,4.09c-.26,1.06-.56,2.1-.77,3.16a24,24,0,0,0-.45,3.14,28.66,28.66,0,0,0,.13,3.07c0,.56.08,1.11.13,1.74a2.25,2.25,0,0,1-.68-.07,13.4,13.4,0,0,1-2.81-1.4c-1.3-1-2.82-2-3-3.89-.09-1.05-.14-2.1-.21-3.16,0-.25,0-.5,0-.75a3.43,3.43,0,0,1,0-.4,1.11,1.11,0,0,1,0-.48,2.47,2.47,0,0,0,.06-.29c0-.14,0-.28,0-.42s-.09-.39-.14-.58A1.41,1.41,0,0,0,35.09,29a.55.55,0,0,0-.21.34,3.86,3.86,0,0,0-.06.9,9,9,0,0,1-1.77,6c-.47.64-.81,1.39-1.33,2a9.54,9.54,0,0,1-4,3.13c-.47.16-1,.34-1,1s.54.85,1,1.1a.83.83,0,0,0,.47.06,3,3,0,0,1,2.6.82,8.76,8.76,0,0,1,2.07,2.78c.5,1,1.26,1.91,1.76,2.93A37.81,37.81,0,0,1,36,53.65c.25.68.4,1.38.59,2.08a1.19,1.19,0,0,0,1.42,1,1.23,1.23,0,0,0,.71-1.51A5.21,5.21,0,0,1,38.51,54a7.57,7.57,0,0,1,1.54-4.56,11.81,11.81,0,0,1,1.87-1.87,3.17,3.17,0,0,1,.47-.27c.08.07.15.1.16.14a4.45,4.45,0,0,0,1.65,3,3.89,3.89,0,0,1,1.51,2.75c.11,1.32.59,2.6.81,3.91a20.52,20.52,0,0,0,1,4.1c.15.39.36.75.49,1.15a5.78,5.78,0,0,1,.18.94c0,.1,0,.25,0,.31a5.16,5.16,0,0,1,.83,2.32c.41,1.6,1.14,3.07,1.69,4.61.38,1.07.71,2.16,1,3.25.26.82.46,1.65.77,2.45a5.13,5.13,0,0,1,.47,2.5,2.43,2.43,0,0,0,.15.63,31.76,31.76,0,0,1-3.48,2,9.75,9.75,0,0,0-1.12.56,4,4,0,0,1-1.75.45c-.65-1.52-1.32-3-1.92-4.52-1-2.43-1.83-4.89-2.82-7.3-.67-1.61-1.49-3.16-2.19-4.76-1-2.34-2-4.69-3-7-.19-.46-.45-.89-.65-1.34-.52-1.23-1.08-2.44-1.52-3.7a3.88,3.88,0,0,0-.88-1.38.65.65,0,0,0-.59-.14c-.57.2-1.12.46-1.68.7l-1.21.52c-.18.08-.38.1-.55.19a1.22,1.22,0,0,0-.57,1.55c.21.64.42,1.28.69,1.9.74,1.74,1.47,3.47,2.27,5.18.55,1.18,1.19,2.31,1.65,3.54.64,1.69,1.43,3.31,2.17,5,.93,2.11,1.93,4.19,2.67,6.38a26.37,26.37,0,0,0,1.1,2.42c.36.78.7,1.56,1.1,2.45-3.68.55-7.35.25-10.93.52-.13-.9-.25-1.71-.36-2.52-.06-.47-.12-.94-.16-1.41a1,1,0,0,0-.84-1,17.92,17.92,0,0,0-2.72-.35c-3,0-6,.05-9,.08-1.05,0-2.11-.09-3.16,0a12.1,12.1,0,0,0-2.52.5,1.47,1.47,0,0,0-1,1.25,6,6,0,0,0,.29,2.63c.07.29.11.58.16.88a3.89,3.89,0,0,1-1.87.29c-.58,0-1.16,0-1.84,0-.11-.77-.18-1.53-.31-2.29s-.32-1.39-.46-2.09Q6,77.85,6,77.23c-.18-1.7-.29-3.41-.56-5.1a15.09,15.09,0,0,1-.27-3.48,1.84,1.84,0,0,0,0-.41c-.25-1.71-.52-3.41-.76-5.11-.2-1.42-.38-2.84-.56-4.25a12.47,12.47,0,0,1-.12-1.49,23.94,23.94,0,0,0-.48-4c-.17-.86-.2-1.75-.29-2.63,0-.06,0-.12,0-.17a8,8,0,0,1-.46-2.86c-.2-1.49-.32-3-.47-4.48s-.26-2.76-.35-4.15c-.07-1.18-.11-2.36-.12-3.55s.05-2.27.06-3.4c0-1.69,0-3.39,0-5.08,0-.69.11-1.38.14-2.07.06-1.63.1-3.27.17-4.9,0-.56.14-1.1.21-1.65.14-1,.25-1.94.42-2.89.13-.74.32-1.46.52-2.18A9.66,9.66,0,0,1,3.52,12,7,7,0,0,1,8.24,8c.89-.24,1.77-.51,2.65-.76a17.24,17.24,0,0,1,2.75-.58c1.27-.12,2.52-.38,3.78-.52A17.89,17.89,0,0,1,20.25,6a13.42,13.42,0,0,0,3.47-.36,32.41,32.41,0,0,1,6.88-.45c.92,0,1.84-.09,2.75-.14,1.16-.06,2.32-.14,3.48-.19.56,0,1.12,0,1.67,0s1.11-.22,1.67-.25,1,.08,1.48.05c1.24-.07,2.48-.24,3.73-.27a16.13,16.13,0,0,1,3.4.09,13.35,13.35,0,0,0,2,0c1.13,0,2.26.1,3.4.09.8,0,1.6-.13,2.4-.18.3,0,.61,0,.92,0L62,4.31c1.33,0,2.66-.07,4-.12a2.8,2.8,0,0,0,.64-.13,1.74,1.74,0,0,1,.57-.13,24.19,24.19,0,0,0,5-.22c1.69-.14,3.36-.39,5-.58C78.05,3,78.91,3,79.76,2.9a2.15,2.15,0,0,0,.58-.07,10.59,10.59,0,0,1,4.11-.38c1.67,0,3.33-.16,5-.23.84,0,1.67,0,2.51,0,1.75-.07,3.51-.07,5.25-.28,1.06-.13,2.09.08,3.14,0,2.07-.16,4.15,0,6.23,0,1.72,0,3.44.11,5.16.13,1,0,2-.12,2.92-.12s2.11.1,3.16.11a3.3,3.3,0,0,0,1.63-.24,2.42,2.42,0,0,1,1.23,0c1.59.22,3.2.41,4.77.73a9.85,9.85,0,0,1,5.79,3A8.19,8.19,0,0,1,132.32,8a17.55,17.55,0,0,1,.86,6c.08,2.11.26,4.22.31,6.33,0,1.56-.05,3.11-.08,4.67s-.13,2.84,0,4.25c.15,2.58.44,5.15.6,7.73.1,1.47,0,2.95.06,4.42,0,.92,0,1.84.06,2.75s.06,2,.09,3c.07,2.59.15,5.17.2,7.76,0,1,0,1.89,0,2.84,0,1.53.13,3.06.19,4.59,0,.64.07,1.28.07,1.91,0,3,0,6,0,9,0,1.89.06,3.78.06,5.68,0,1.22,0,2.45-.1,3.67a5.24,5.24,0,0,1-.35,1.17l-5.95.09c-1.64,0-3.28,0-4.92,0a67.89,67.89,0,0,1-6.84-.14c-1.74-.19-3.5-.09-5.25-.16-1.08,0-2.16-.17-3.24-.26-.66-.06-1.33-.14-2-.18A1.58,1.58,0,0,1,104.68,82.32ZM43.17,43.48c-.32.38-.67.58-.66,1a.7.7,0,0,1-.3.48,16.06,16.06,0,0,1-1.8,1.14c-.71.35-1.07,1-1.58,1.56a6.13,6.13,0,0,0-1.68,2.79,6.09,6.09,0,0,1-1.21-2.1A1.24,1.24,0,0,0,35.8,48c-.43-.78-.89-1.53-1.32-2.31a9.63,9.63,0,0,0-2.77-2.95l-1.25-.93.62-.35A10.82,10.82,0,0,0,33.73,39a23.67,23.67,0,0,0,1.54-2.46c0-.07,0-.16.15-.21.38,2.16,1.81,3.5,3.3,4.81a18.12,18.12,0,0,0,3.61,2C42.57,43.22,42.83,43.32,43.17,43.48Zm94.26,49.18c-.56,0-1.14,0-1.72,0-2.14,0-4.28-.15-6.42-.13-1.74,0-3.49.2-5.24.25-1.33,0-2.67,0-4,0-2.22,0-4.45,0-6.67.06-1.94.07-3.88.29-5.82.43-.29,0-.59,0-1,0l.87-1.63a8.11,8.11,0,0,0,.79-3.29,4.64,4.64,0,0,0-.65-1.84c-.16-.37-.38-.72-.66-1.23.48.07.78.1,1.06.15a28.06,28.06,0,0,0,4.58.15c1.56.06,3.11.18,4.66.27.47,0,.94,0,1.41,0,1.47,0,2.94-.1,4.41-.06,1.64,0,3.26,0,4.9,0,1.92-.1,3.84,0,5.76-.07,1.55,0,3.09.21,4.63.27.05,0,.1.05.14.08A41,41,0,0,1,137.43,92.66Z"/><path d="M39.58,89.43c-.14-.06-.21-.12-.29-.12a.44.44,0,0,0-.21.07.79.79,0,0,0,.18.22S39.38,89.54,39.58,89.43Z"/><path class="b1886b84-4d34-4905-b8f9-b84cb92817a3" d="M134.26,83.74l-5.95.09c-1.64,0-3.28,0-4.92,0a67.89,67.89,0,0,1-6.84-.14c-1.74-.19-3.5-.09-5.25-.16-1.08,0-2.16-.17-3.24-.26-.66-.06-1.33-.14-2-.18a1.58,1.58,0,0,1-1.39-.81,5.26,5.26,0,0,0-.16-2.18,5.76,5.76,0,0,1,.06-2.06c0-.16.11-.33.09-.49a21.43,21.43,0,0,1,.24-4.38,97.5,97.5,0,0,1,1.21-10.92c.29-1.69.79-3.35,1.18-5,.15-.64.26-1.29.42-1.94a5.16,5.16,0,0,1,.36-1.09c.45-.89,1-1.74,1.4-2.64a2.74,2.74,0,0,0,.24-1.2c0-.78-.09-1.56-.16-2.33a1.52,1.52,0,0,0-.17-.64,5.14,5.14,0,0,1-.46-3.48,10.9,10.9,0,0,0-.06-2c0-.55,0-1.11,0-1.66a10.56,10.56,0,0,0-.13-1.39c-.37-1.91-.71-3.83-1.18-5.71a21.5,21.5,0,0,0-1.16-2.93c-.3-.74-.59-1.5-.94-2.22a14.37,14.37,0,0,0-1.87-3.1c-.45-.53-.87-1.09-1.36-1.58-.78-.78-1.6-1.53-2.41-2.28-.18-.17-.4-.3-.56-.48a16.63,16.63,0,0,0-4.71-3.22c-.44-.24-.89-.45-1.3-.73A29.18,29.18,0,0,0,90,15a30.19,30.19,0,0,0-3.32-1.54A29.39,29.39,0,0,0,78,11.81a9.51,9.51,0,0,0-3.15.1c-1.15.32-2.3.64-3.46.91a2.69,2.69,0,0,1-1.23,0,10.16,10.16,0,0,0-3.93-.37,9.79,9.79,0,0,0-4.51,1.31,18.25,18.25,0,0,1-2.49,1.15,31,31,0,0,0-3,1.55A38.7,38.7,0,0,0,52.66,19a19.9,19.9,0,0,0-2,2c-.32.34-.63.71-.92,1.08-1,1.27-2.11,2.51-3.05,3.85a11.69,11.69,0,0,0-1.78,4.09c-.26,1.06-.56,2.1-.77,3.16a24,24,0,0,0-.45,3.14,28.66,28.66,0,0,0,.13,3.07c0,.56.08,1.11.13,1.74a2.25,2.25,0,0,1-.68-.07,13.4,13.4,0,0,1-2.81-1.4c-1.3-1-2.82-2-3-3.89-.09-1.05-.14-2.1-.21-3.16,0-.25,0-.5,0-.75-.09-.75-.08-.81.65-.95.38-.07.56-.19.42-.67l-1,.17c-.06-.24-.11-.49-.17-.72A1.41,1.41,0,0,0,35.09,29a.55.55,0,0,0-.21.34,3.86,3.86,0,0,0-.06.9,9,9,0,0,1-1.77,6c-.47.64-.81,1.39-1.33,2a9.54,9.54,0,0,1-4,3.13c-.47.16-1,.34-1,1s.54.85,1,1.1a.83.83,0,0,0,.47.06,3,3,0,0,1,2.6.82,8.76,8.76,0,0,1,2.07,2.78c.5,1,1.26,1.91,1.76,2.93A37.81,37.81,0,0,1,36,53.65c.25.68.4,1.38.59,2.08a1.19,1.19,0,0,0,1.42,1,1.23,1.23,0,0,0,.71-1.51A5.21,5.21,0,0,1,38.51,54a7.57,7.57,0,0,1,1.54-4.56,11.81,11.81,0,0,1,1.87-1.87,3.17,3.17,0,0,1,.47-.27c.08.07.15.1.16.14a4.45,4.45,0,0,0,1.65,3,3.89,3.89,0,0,1,1.51,2.75c.11,1.32.59,2.6.81,3.91a20.52,20.52,0,0,0,1,4.1c.15.39.36.75.49,1.15a5.78,5.78,0,0,1,.18.94c0,.1,0,.25,0,.31a5.16,5.16,0,0,1,.83,2.32c.41,1.6,1.14,3.07,1.69,4.61.38,1.07.71,2.16,1,3.25.26.82.46,1.65.77,2.45a5.13,5.13,0,0,1,.47,2.5,2.43,2.43,0,0,0,.15.63,31.76,31.76,0,0,1-3.48,2,9.75,9.75,0,0,0-1.12.56,4,4,0,0,1-1.75.45c-.65-1.52-1.32-3-1.92-4.52-1-2.43-1.83-4.89-2.82-7.3-.67-1.61-1.49-3.16-2.19-4.76-1-2.34-2-4.69-3-7-.19-.46-.45-.89-.65-1.34-.52-1.23-1.08-2.44-1.52-3.7a3.88,3.88,0,0,0-.88-1.38.65.65,0,0,0-.59-.14c-.57.2-1.12.46-1.68.7l-1.21.52c-.18.08-.38.1-.55.19a1.22,1.22,0,0,0-.57,1.55c.21.64.42,1.28.69,1.9.74,1.74,1.47,3.47,2.27,5.18.55,1.18,1.19,2.31,1.65,3.54.64,1.69,1.43,3.31,2.17,5,.93,2.11,1.93,4.19,2.67,6.38a26.37,26.37,0,0,0,1.1,2.42c.36.78.7,1.56,1.1,2.45-3.68.55-7.35.25-10.93.52-.13-.9-.25-1.71-.36-2.52-.06-.47-.12-.94-.16-1.41a1,1,0,0,0-.84-1,17.92,17.92,0,0,0-2.72-.35c-3,0-6,.05-9,.08-1.05,0-2.11-.09-3.16,0a12.1,12.1,0,0,0-2.52.5,1.47,1.47,0,0,0-1,1.25,6,6,0,0,0,.29,2.63c.07.29.11.58.16.88a3.89,3.89,0,0,1-1.87.29c-.58,0-1.16,0-1.84,0-.11-.77-.18-1.53-.31-2.29s-.32-1.39-.46-2.09Q6,77.85,6,77.23c-.18-1.7-.29-3.41-.56-5.1a15.09,15.09,0,0,1-.27-3.48,1.84,1.84,0,0,0,0-.41c-.25-1.71-.52-3.41-.76-5.11-.2-1.42-.38-2.84-.56-4.25a12.47,12.47,0,0,1-.12-1.49,23.94,23.94,0,0,0-.48-4c-.17-.86-.2-1.75-.29-2.63,0-.06,0-.12,0-.17a7.94,7.94,0,0,1-.46-2.86c-.2-1.49-.32-3-.47-4.48s-.26-2.76-.35-4.15c-.07-1.18-.11-2.36-.12-3.55s.05-2.27.06-3.4c0-1.69,0-3.39,0-5.08,0-.69.11-1.38.14-2.07.06-1.63.1-3.27.17-4.9,0-.56.14-1.1.21-1.65.14-1,.25-1.94.42-2.89.13-.74.32-1.46.52-2.18A9.66,9.66,0,0,1,3.52,12,7,7,0,0,1,8.24,8c.89-.24,1.77-.51,2.65-.76a17.24,17.24,0,0,1,2.75-.58c1.27-.12,2.52-.38,3.78-.52A17.89,17.89,0,0,1,20.25,6a13.42,13.42,0,0,0,3.47-.36,32.41,32.41,0,0,1,6.88-.45c.92,0,1.84-.09,2.75-.14,1.16-.06,2.32-.14,3.48-.19.56,0,1.12,0,1.67,0s1.11-.22,1.67-.25,1,.08,1.48.05c1.24-.07,2.48-.24,3.73-.27a16.13,16.13,0,0,1,3.4.09,13.35,13.35,0,0,0,2,0c1.13,0,2.26.1,3.4.09.8,0,1.6-.13,2.4-.18.3,0,.61,0,.92,0L62,4.31c1.33,0,2.66-.07,4-.12a2.8,2.8,0,0,0,.64-.13,1.74,1.74,0,0,1,.57-.13,24.19,24.19,0,0,0,5-.22c1.69-.14,3.36-.39,5-.58C78.05,3,78.91,3,79.76,2.9a2.15,2.15,0,0,0,.58-.07,10.59,10.59,0,0,1,4.11-.38c1.67,0,3.33-.16,5-.23.84,0,1.67,0,2.51,0,1.75-.07,3.51-.07,5.25-.28,1.06-.13,2.09.08,3.14,0,2.07-.16,4.15,0,6.23,0,1.72,0,3.44.11,5.16.13,1,0,2-.12,2.92-.12s2.11.1,3.16.11a3.3,3.3,0,0,0,1.63-.24,2.42,2.42,0,0,1,1.23,0c1.59.22,3.2.41,4.77.73a9.85,9.85,0,0,1,5.79,3A8.19,8.19,0,0,1,132.32,8a17.55,17.55,0,0,1,.86,6c.08,2.11.26,4.22.31,6.33,0,1.56-.05,3.11-.08,4.67s-.13,2.84,0,4.25c.15,2.58.44,5.15.6,7.73.1,1.47,0,2.95.06,4.42,0,.92,0,1.84.06,2.75s.06,2,.09,3c.07,2.59.15,5.17.2,7.76,0,1,0,1.89,0,2.84,0,1.53.13,3.06.19,4.59,0,.64.07,1.28.07,1.91,0,3,0,6,0,9,0,1.89.06,3.78.06,5.68,0,1.22,0,2.45-.1,3.67A5.24,5.24,0,0,1,134.26,83.74ZM25,20c.58.44.46,1,.43,1.6a10,10,0,0,1-1,3.23A2.84,2.84,0,0,1,23,26.31c-.78.4-.71,1,.06,1.44a1.54,1.54,0,0,0,.44.23,3.33,3.33,0,0,1,1.83,1.36c.51.64,1,1.29,1.51,2a2.6,2.6,0,0,1,.55,1.28,1.2,1.2,0,0,0,1.11,1.25.63.63,0,0,0,.76-.34c.19-.32.63-.56.34-1a2.15,2.15,0,0,1-.15-1.7c.1-.46.17-.93.3-1.38a4.84,4.84,0,0,1,1.32-2.36c1.13-1,1-1.75-.42-2.3a3.23,3.23,0,0,1-1.79-1.42A9.25,9.25,0,0,1,27.77,21c-.13-.64-.31-1.28-.47-1.91C26.25,18.53,25.9,18.64,25,20Z"/><path class="afd713ee-12d7-48b2-b63d-3b41e94c189f" d="M106.8,45.17l-2.18.3a2,2,0,0,1-.08-.59,9.93,9.93,0,0,0-.53-4.59A6.41,6.41,0,0,0,103,38.62a23,23,0,0,0-2.8-3.27,10.09,10.09,0,0,0-1.2-.86,19.06,19.06,0,0,0-5-2.31c-1.57-.46-3.14-1-4.73-1.33-1.22-.28-2.47-.38-3.71-.57a18.37,18.37,0,0,1-2.78-.49C80.39,29,78,28.14,75.66,27.38a12.42,12.42,0,0,1-3.78-2.19,27.43,27.43,0,0,1-2.5-2,3.9,3.9,0,0,1-1-1.52,1.18,1.18,0,0,0-2-.63,12.26,12.26,0,0,1-3.09,1.75,12.16,12.16,0,0,0-3.66,2.3c-.77.71-1.6,1.37-2.41,2a28.21,28.21,0,0,0-5.07,5.62,5.58,5.58,0,0,1-2.14,2,4.67,4.67,0,0,0-1.58,1.55c-.43.59-.31.87.31,1.27a2.67,2.67,0,0,1,.23.18L48,41.14l-1.92.26A10,10,0,0,1,45.84,40c-.05-1.31-.14-2.62-.07-3.92A17.32,17.32,0,0,1,46.66,31,20.13,20.13,0,0,1,47.74,28a19.54,19.54,0,0,1,3.35-4.63c.91-.89,1.75-1.87,2.63-2.79a5.57,5.57,0,0,1,.64-.52c.28-.22.56-.44.83-.67a10.87,10.87,0,0,1,2.44-1.53c1.37-.67,2.73-1.35,4.12-2a7.9,7.9,0,0,1,2-.69,17,17,0,0,1,3.11-.51c.73,0,1.44.06,2.15.13a4.36,4.36,0,0,1,1.27.35,1.33,1.33,0,0,0,1.48-.1,5.57,5.57,0,0,1,1.76-.69,11.3,11.3,0,0,1,2.36-.51,20.78,20.78,0,0,1,6.14.44c.6.12,1.21.18,1.8.33a16.49,16.49,0,0,1,2.15.63c1,.41,2.09.87,3.11,1.37s1.82,1,2.72,1.46l3.84,2.17a3.36,3.36,0,0,1,.54.39c1.54,1.35,3.15,2.64,4.6,4.1A12.8,12.8,0,0,1,104,29.62a10.74,10.74,0,0,0,.54,1.2,27.84,27.84,0,0,1,2.31,8.74C107.07,41.45,106.73,43.29,106.8,45.17Z"/><path class="ab418911-b04d-4c5a-b095-11f1a4651398" d="M48,53.84l1.72,1.4c.26.21.5.44.77.63.62.43,1.27.81,1.86,1.27a5.25,5.25,0,0,0,5.78.62,20.08,20.08,0,0,0,5.16-3.28c1.18-1,2.43-2,3.65-3a4.22,4.22,0,0,1,.54-.28A6.14,6.14,0,0,1,66.11,54a5.48,5.48,0,0,1-1.06.6c-.37.2-.9.21-.88.84A1.23,1.23,0,0,0,65,56.63c1.07.44,2.12.94,3.19,1.4a.84.84,0,0,0,.47,0,2.38,2.38,0,0,0,.73-1.4.84.84,0,0,0-.76-.77,1.36,1.36,0,0,1-.48-.12c-.26-.13-.52-.3-.78-.46.37-.51.75-1,1.08-1.48a4.71,4.71,0,0,0,1-3,4.19,4.19,0,0,1,.14-.9,2.73,2.73,0,0,1,1.75-.36,11.21,11.21,0,0,0,1.42,0,3.62,3.62,0,0,1,1.84.46c.16.09.36.23.52.21.78-.1,1.15.4,1.53.93a4.12,4.12,0,0,0,.49.67c.8.77,1.62,1.51,2.42,2.27.24.23.44.49.69.71A22.13,22.13,0,0,0,83.92,58a14.21,14.21,0,0,0,2.41,1.11,3.55,3.55,0,0,0,2,0,12,12,0,0,0,3.07-1.24,25.55,25.55,0,0,0,3.09-2.11c1.24-.93,2.43-1.92,3.67-2.86a25.39,25.39,0,0,0,3.65-3.15,16.94,16.94,0,0,1,1.61-1.43,1,1,0,0,1,.37-.16,12.52,12.52,0,0,0,1.35-.59,1.15,1.15,0,0,1,1.39,0,2.74,2.74,0,0,1,1.12,2.9,8.17,8.17,0,0,1-3.87,5.46,2.87,2.87,0,0,1-1.74.46c-.91,0-1.34.28-1.4,1.16a7.63,7.63,0,0,1-1.06,3,8.31,8.31,0,0,1-2.09,2.88c-1.21,1-2.23,2.23-3.81,2.68,0,0-.06,0-.08,0a6,6,0,0,1-1,.85c-.35.18-.75.2-1.13.43a7.92,7.92,0,0,1-2.07.82c-1.52.43-3,1-4.46,1.54-.34.13-.68.26-1,.36L78.1,71.6a27.41,27.41,0,0,1-6.22,1.09,10.53,10.53,0,0,1-3.06-.28c-.7-.19-1.42-.28-2.13-.42A35.63,35.63,0,0,1,61,70.44a16.9,16.9,0,0,1-5.23-2.86c-1-.83-2.07-1.51-3-2.4-1.8-1.78-3.45-3.67-3.92-6.32-.28-1.63-.72-3.24-1.09-4.86Zm21,7c-.5-.3-1-.62-1.5-.89a2.9,2.9,0,0,0-2.17-.26,8.39,8.39,0,0,0-3.94,2.79.8.8,0,0,0-.18.76A7.37,7.37,0,0,0,63,66.4a8.09,8.09,0,0,0,3.12,2.43,5.7,5.7,0,0,0,2.72.7c.77,0,1.55-.13,2.32-.11A3.68,3.68,0,0,0,73.11,69a11.42,11.42,0,0,0,4.17-3.64,2.31,2.31,0,0,1,.53-.63,1.08,1.08,0,0,0,.4-1.32,4,4,0,0,1-1.82-1.68,6.48,6.48,0,0,0-2.55-2.07,3.39,3.39,0,0,0-3.87.44C69.68,60.29,69.42,60.53,69.05,60.85ZM104.92,51a3.45,3.45,0,0,1-2.75,1.93,4.16,4.16,0,0,0-.16.4c-.09.29-.24.61.11.83s.93.72,1.36.41c1.11-.8,2.44-1.32,3.15-2.67a2.47,2.47,0,0,0,.13-2.28,1,1,0,0,0-.87-.68,7.57,7.57,0,0,0-2,.38.82.82,0,0,0-.53.94c.07.4.3.59.84.66Z"/><path class="ab418911-b04d-4c5a-b095-11f1a4651398" d="M90.28,33.29c-.25,0-.37,0-.5,0a3.51,3.51,0,0,0-2.21.52c-1,.6-2.09,1-3.14,1.53-.7.34-1.41.67-2.07,1.07a10.9,10.9,0,0,1-3.71,1.19c-1,.19-1,.16-1.59,1.06a1.37,1.37,0,0,0,1.45,1,8.54,8.54,0,0,0,3.42-.95c2-1,4-2,6-3a3,3,0,0,1,3.22.2,5.87,5.87,0,0,1,2.27,2,.88.88,0,0,0,.7.3.61.61,0,0,0,.57-.62,5.57,5.57,0,0,0-.1-.82c0-.16-.14-.36-.08-.48.28-.59-.09-.76-.52-1a13.9,13.9,0,0,1-2.3-1.59c.65.2,1.31.37,2,.61.91.33,1.8.7,2.7,1.06a3.36,3.36,0,0,1,.6.3,11.92,11.92,0,0,1,4.13,4.16H99a44.09,44.09,0,0,0-6.07.39,89,89,0,0,0-11.86,2.63c-1.25.36-2.54.55-3.81.84A4.8,4.8,0,0,0,76,44.1a1.75,1.75,0,0,1-1.66,0A3.85,3.85,0,0,0,72,44c-.62.12-1.28.06-1.91.15s-1.16.26-1.86.43c-1-1-2.49-1.27-3.89-1.75A10.82,10.82,0,0,0,62,42.5c-1.16-.13-2.32-.24-3.47-.41s-2.07-.39-3.12-.53c-.6-.09-1.22-.06-1.83-.09-1,0-2-.09-3.08-.17-.56,0-.79-.34-.59-.84a16.62,16.62,0,0,1,2.17-4.09l2.07.62,1.59.49a22.52,22.52,0,0,1,5.1,2.43,2.82,2.82,0,0,0,.84.35,1,1,0,0,0,1.29-1c0-.22,0-.44,0-.79l-9.63-4a1.13,1.13,0,0,1,.12-.38c.81-1,1.56-2.1,2.46-3s2.1-2,3.17-2.93c.71-.63,1.47-1.19,2.17-1.82A13.56,13.56,0,0,1,65.13,24l1.74-.74c.48.51,1,1,1.52,1.64a9.35,9.35,0,0,0,2.19,1.78,31.34,31.34,0,0,0,2.77,1.81,6.52,6.52,0,0,0,2.14.82,10,10,0,0,1,1.87.69c1.69.6,3.38,1.22,5.07,1.8a5.64,5.64,0,0,0,1.47.29A31.14,31.14,0,0,1,90,33.13,3,3,0,0,1,90.28,33.29Z"/><path class="ad5cb15f-ed69-41ab-9b8d-2139d2763573" d="M39,88.67l-.87-.12-.47,1c.28.11.77-.21.76.43-1.07.09-2.14.21-3.21.28s-2,0-3.08.1c-.74.05-1.47.26-2.22.31-1.47.11-2.94.17-4.41.22-1.69.05-3.38.09-5.08.1-1.22,0-2.44,0-3.67,0-.52,0-1,.14-1.57.13-1.25,0-2.5-.06-3.75-.1A44.72,44.72,0,0,0,4,91a13.73,13.73,0,0,1-1.71,0,7.13,7.13,0,0,1-.15-1.25c0-1.24.15-2.49.24-3.74.05-.68.15-.76.83-.94a21.52,21.52,0,0,1,4.81-.34c1.08,0,2.16-.18,3.24-.23s2.39-.12,3.58-.1c1.61,0,3.22.15,4.82.16,1.36,0,2.71-.1,4.07-.12.71,0,1.43.12,2.15.11,1.7,0,3.39-.14,5.08-.18s3.38,0,5.07,0a16.82,16.82,0,0,0,2.24-.22,5.8,5.8,0,0,1,3.14.14c-.18.36-.56.36-.84.44-1.56.48-2,1.18-1.76,3.22C38.88,88.11,38.94,88.31,39,88.67Z"/><path class="ad5cb15f-ed69-41ab-9b8d-2139d2763573" d="M137.43,92.66c-.56,0-1.14,0-1.72,0-2.14,0-4.28-.15-6.42-.13-1.74,0-3.49.2-5.24.25-1.33,0-2.67,0-4,0-2.22,0-4.45,0-6.67.06-1.94.07-3.88.29-5.82.43-.29,0-.59,0-1,0l.87-1.63a8.11,8.11,0,0,0,.79-3.29,4.64,4.64,0,0,0-.65-1.84c-.16-.37-.38-.72-.66-1.23.48.07.78.1,1.06.15a28.06,28.06,0,0,0,4.58.15c1.56.06,3.11.18,4.66.27.47,0,.94,0,1.41,0,1.47,0,2.94-.1,4.41-.06,1.64,0,3.26,0,4.9,0,1.92-.1,3.84,0,5.76-.07,1.55,0,3.09.21,4.63.27.05,0,.1.05.14.08A41,41,0,0,1,137.43,92.66Z"/><path class="a5d3854c-4ab7-419c-9ba8-1e7d9f09d816" d="M48.71,42.86l3.74.26c.59,0,1.18,0,1.75.08,1.13.14,2.25.35,3.38.53.3.05.6.12.9.15,1.3.12,2.59.25,3.9.32a16.45,16.45,0,0,1,3.84,1.06,1.58,1.58,0,0,1,1,.94,1.08,1.08,0,0,0,1.81.46,3.44,3.44,0,0,1,2.09-.72,6.35,6.35,0,0,1,2.64.09c.36.14.73.27,1.08.42s.71.34,1.1,0a7.61,7.61,0,0,1,3.35-1.3c1.15-.21,2.28-.52,3.41-.82s2.5-.76,3.77-1,2.41-.42,3.61-.62c1-.17,1.91-.38,2.87-.5a24,24,0,0,1,4.56-.29c.67,0,1.34,0,2,0a6.48,6.48,0,0,1,2.34.52c.25.1.46.21.48.51a13.74,13.74,0,0,1,0,2.72.46.46,0,0,1-.11.22,14.83,14.83,0,0,1-1.33,1.79,35,35,0,0,1-3.65,3.34c-.59.45-1.14.95-1.73,1.41-1.6,1.24-3.17,2.52-4.83,3.68a5.79,5.79,0,0,1-3.53,1.09,3.33,3.33,0,0,1-1.69-.63,26,26,0,0,1-3.4-3c-.66-.68-1.42-1.25-2.1-1.91s-1.32-1.41-2-2.11c-.21-.22-.41-.52-.68-.61a7.52,7.52,0,0,1-1.77-1,3.89,3.89,0,0,0-2.23-.54c-1.19,0-2.38.15-3.57.25a7.47,7.47,0,0,0-1.24.21,1.79,1.79,0,0,0-1.17.72,1.68,1.68,0,0,1-.68.59,8.85,8.85,0,0,0-2.09,1.65c-1,.86-2,1.79-3.05,2.68A14.91,14.91,0,0,1,57.55,56a3.83,3.83,0,0,1-4-.48c-1.33-1-2.65-2-3.95-3-.6-.48-1.1-1.1-1.73-1.55a23.66,23.66,0,0,1-2.5-2.18,5.23,5.23,0,0,1-1.19-3,.93.93,0,0,1,.1-.48,2.88,2.88,0,0,1,2.31-2A18.78,18.78,0,0,0,48.71,42.86ZM98.82,46c-.08-1-.31-1.28-1.16-1.59-.15-.06-.32-.06-.48-.11a10.18,10.18,0,0,0-3.89,0c-2,.23-4.07.51-6.11.77-2.65.34-5.3.71-8,1a1,1,0,0,0-.91,1.41c.2.65.44,1.3.69,1.94a2.92,2.92,0,0,0,.54.9,11.92,11.92,0,0,0,1.28,1,20,20,0,0,1,1.75,1.41,11.09,11.09,0,0,0,2.94,2.17,3.27,3.27,0,0,0,3,.38,5.41,5.41,0,0,0,.94-.53c.74-.53,1.46-1.11,2.2-1.64,1.22-.88,2.5-1.67,3.65-2.61a14.85,14.85,0,0,0,3-3.22A5.61,5.61,0,0,0,98.82,46ZM55.44,54.86a5.78,5.78,0,0,0,1.83-.45,19.35,19.35,0,0,0,3.11-2.32c.91-.89,1.92-1.67,2.78-2.63a4.18,4.18,0,0,0,1-1.87,1.54,1.54,0,0,0-1.41-2c-1.88-.19-3.75-.38-5.63-.53-1.22-.1-2.44-.12-3.65-.2-.77,0-1.54-.15-2.32-.19a17.34,17.34,0,0,1-1.91,0,3.62,3.62,0,0,0-2.85.86c-.66.49-.75.69-.42,1.48a13.49,13.49,0,0,1,.88,1.68,3.61,3.61,0,0,0,1.08,1.51,4.92,4.92,0,0,0,.63.66,26.72,26.72,0,0,0,2.57,1.95c1.08.68,2.25,1.22,3.38,1.8A6.63,6.63,0,0,0,55.44,54.86Z"/><path class="b0537f9f-12fb-4d16-bc32-35e57df36d8e" d="M91.64,105.46a4.39,4.39,0,0,1-.49,1.83c-.32.8-.56,1.62-.84,2.43a8.3,8.3,0,0,1-.45,1.17,1.43,1.43,0,0,1-1.6.87c-1.13-.14-2.28,0-3.41-.13-3.28-.35-6.56,0-9.84-.2-1.16-.08-2.33,0-3.5,0a8,8,0,0,1-1.9-.2,12.5,12.5,0,0,0-2.72-.34,8.52,8.52,0,0,1-1.07-.18L65,104.52c.36,0,.62,0,.87,0l3.07.27c.78.08,1.55.22,2.32.23,2.31,0,4.61,0,6.92,0,1.38,0,2.77.14,4.15.21.67,0,1.34,0,2,0,.44,0,.88,0,1.32.08.61,0,1.21.09,1.82.11.89,0,1.77,0,2.65,0C90.63,105.55,91.12,105.49,91.64,105.46Z"/><path class="abc893bb-aa34-428d-b7df-b72331464894" d="M61.26,77.23a4.94,4.94,0,0,1-.8,1.91c-.61,1-.41,1.67.68,2.17s2.07,1.08,3.13,1.55c1.21.53,2.46,1,3.69,1.48.41.16.79.37,1.26.58a3.86,3.86,0,0,1-1.28,1.37,2.18,2.18,0,0,0-1.11,1.07,2.11,2.11,0,0,1-.49.66,14.46,14.46,0,0,0-2.65,3,2.31,2.31,0,0,1-.5.43c-.23-.57-.47-1.07-.63-1.59a3,3,0,0,0-2.35-2.14,6.7,6.7,0,0,0-4.57.55,19.74,19.74,0,0,1-4.25,1.45,17.31,17.31,0,0,0-2.42.77c-.62-1.17-1.3-2.32-1.86-3.52a2.29,2.29,0,0,1-.18-2.22c.14-.26.24-.49.5-.57.63-.19,1.28-.35,1.91-.52a2.53,2.53,0,0,0,.49-.14c.84-.41,1.66-.88,2.52-1.26A12.78,12.78,0,0,0,55,80.64a8.83,8.83,0,0,1,1.51-.82A24.6,24.6,0,0,0,61,77.31.79.79,0,0,1,61.26,77.23Z"/><path class="abc893bb-aa34-428d-b7df-b72331464894" d="M68.68,88.64a3.51,3.51,0,0,1,.44-.56,23.54,23.54,0,0,0,4.18-4.83c.64-.93,1.44-1.76,2.16-2.64.12-.15.21-.32.32-.47.28-.42.54-.85.84-1.24,1-1.28,2-2.55,3-3.84.48-.62.9-1.27,1.37-1.88a1.26,1.26,0,0,1,.61-.39c1.11-.34,2.24-.62,3.35-1a26.18,26.18,0,0,0,2.89-1,1.86,1.86,0,0,1,2.26.43,19.09,19.09,0,0,0,1.44,1.26A11,11,0,0,1,94,75.75a4.2,4.2,0,0,1-1.88.34c-.55,0-1.11,0-1.65,0s-1.36.27-2,.41c-1.09.22-2.17.48-3.26.64a15.54,15.54,0,0,1-2.16.07c-.17,0-.33,0-.5,0-.78.07-1.05.6-.75,1.34a1.78,1.78,0,0,0,.82,1.08c.24.13.39.44.57.68.58.78,1.14,1.56,1.8,2.46a14.54,14.54,0,0,1-1.64.71,60.44,60.44,0,0,0-7,2.6,28.41,28.41,0,0,1-4,1.49c-1.07.25-2.1.69-3.16,1A2.44,2.44,0,0,1,68.68,88.64Z"/><path class="afd713ee-12d7-48b2-b63d-3b41e94c189f" d="M105.17,57.39c-1.94,7.61-2.39,15.33-2.72,23.13-1.18-.41-1.94-1.4-3-1.92s-2-1.1-3.08-1.68c.72-.55.7-.61.12-1.15a5.2,5.2,0,0,1-.6-.78c-1-1.39-2.09-2.8-3.17-4.18a8.33,8.33,0,0,0-1.15-1c1-.4,1.93-.75,2.84-1.06a5.34,5.34,0,0,0,1.14-.65,15.54,15.54,0,0,0,3.72-3.87,32.34,32.34,0,0,0,2.12-3.08,13.28,13.28,0,0,0,1-2.2,1.29,1.29,0,0,1,1-.87A12.33,12.33,0,0,0,105.17,57.39Z"/><path class="ad5cb15f-ed69-41ab-9b8d-2139d2763573" d="M43.17,43.48c-.32.38-.67.58-.66,1a.7.7,0,0,1-.3.48,16.06,16.06,0,0,1-1.8,1.14c-.71.35-1.07,1-1.58,1.56a6.13,6.13,0,0,0-1.68,2.79,6.09,6.09,0,0,1-1.21-2.1A1.24,1.24,0,0,0,35.8,48c-.43-.78-.89-1.53-1.32-2.31a9.63,9.63,0,0,0-2.77-2.95l-1.25-.93.62-.35A10.82,10.82,0,0,0,33.73,39a23.67,23.67,0,0,0,1.54-2.46c0-.07,0-.16.15-.21.38,2.16,1.81,3.5,3.3,4.81a18.12,18.12,0,0,0,3.61,2C42.57,43.22,42.83,43.32,43.17,43.48Z"/><path class="ad5cb15f-ed69-41ab-9b8d-2139d2763573" d="M12.51,82.43c-.21-.66-.47-1.33-.65-2s0-.84.56-1.11A2.92,2.92,0,0,1,13.54,79c2.91,0,5.83,0,8.74,0,1.53,0,3,.11,4.58.19.62,0,.8.2.82.8a15.22,15.22,0,0,1,0,1.91c-.06.63-.2.71-.8.71-2.89,0-5.78,0-8.67,0C16.35,82.63,14.52,82.51,12.51,82.43Z"/><path class="f8e09997-bb5b-4a67-b979-d2e1102038fe" d="M44.49,82.3l-.62,1c-.34-.56-.64-1-.88-1.48-.35-.69-.66-1.4-1-2.1-.73-1.55-1.48-3.1-2.18-4.66s-1.39-3.28-2.1-4.91q-1.89-4.3-3.8-8.6c-.62-1.39-1.34-2.74-2-4.13a19.38,19.38,0,0,1-.62-2.06l1.58-.85,1.49,3.45c.32.73.65,1.46,1,2.19.22.51.45,1,.68,1.52.55,1.22,1.1,2.43,1.64,3.65.34.76.67,1.53,1,2.29q1,2.3,2,4.6c.25.61.51,1.21.75,1.83.69,1.82,1.37,3.63,2,5.45C43.8,80.34,44.12,81.25,44.49,82.3Z"/><path class="afd713ee-12d7-48b2-b63d-3b41e94c189f" d="M63.3,73.67a7.52,7.52,0,0,0-.85.17c-.28.09-.67.15-.81.35a7.65,7.65,0,0,1-2.13,1.72,23.78,23.78,0,0,1-3.72,2,2.57,2.57,0,0,1-.42.14,21.68,21.68,0,0,1-1.24-3.34c-.45-1.48-.91-3-1.44-4.42-.41-1.15-.95-2.25-1.42-3.37a.59.59,0,0,1,0-.47l1.55,1.4a4.61,4.61,0,0,1,.57.6,5.47,5.47,0,0,0,2.28,1.61,1.63,1.63,0,0,1,.23.11,20.38,20.38,0,0,0,6.67,2.91,5.79,5.79,0,0,1,.75.37Z"/><path class="ab418911-b04d-4c5a-b095-11f1a4651398" d="M86,118.94c-1.1.42-2.11.83-3.13,1.2a8.29,8.29,0,0,1-3.3.51l-.37-7.07c2.5.07,5-.07,7.65.25C86.57,115.63,86.29,117.29,86,118.94Z"/><path class="abc893bb-aa34-428d-b7df-b72331464894" d="M72,81.82A12.37,12.37,0,0,1,71.06,83a.79.79,0,0,1-.67.12,24.29,24.29,0,0,1-5.07-2.28A17,17,0,0,0,63.43,80c-.36-.17-.69-.4-1.09-.64l.89-1.8,1.55-3a1.62,1.62,0,0,1,.3-.39.46.46,0,0,1,.74,0,20.46,20.46,0,0,1,1.53,1.82,8,8,0,0,1,.86,1.6,8,8,0,0,0,2,2.52C70.79,80.61,71.36,81.2,72,81.82Z"/><path class="ab418911-b04d-4c5a-b095-11f1a4651398" d="M73.07,113.5a19.51,19.51,0,0,1,3.89,0,4.67,4.67,0,0,1,.31,2c.06,1.26,0,2.54.15,3.8A1.66,1.66,0,0,1,76,121.17c-.79.11-1.56.35-2.35.47s-.8,0-.73-.73a24.64,24.64,0,0,0,.11-2.72c0-1-.13-1.93-.14-2.9A15.7,15.7,0,0,1,73.07,113.5Z"/><path class="ab418911-b04d-4c5a-b095-11f1a4651398" d="M73.26,80c-1.73-1.57-3.39-3.14-4.13-5.39,1.59-.08,3.1-.19,4.62-.23a25.39,25.39,0,0,0,4.51-.91A55.67,55.67,0,0,1,73.26,80Z"/><path class="ab418911-b04d-4c5a-b095-11f1a4651398" d="M93.88,100.83a7.85,7.85,0,0,0,4,.92,2.34,2.34,0,0,1-.11.47,1.09,1.09,0,0,0,.17,1.25c.44.53.92,1,1.39,1.52l.41.46a4.33,4.33,0,0,1-.75-.09L94.78,104a1.36,1.36,0,0,1-1-1C94.36,102.5,94.05,101.75,93.88,100.83Z"/><path class="ab418911-b04d-4c5a-b095-11f1a4651398" d="M40.84,87.18c.33-.8,1-.88,1.44-1.16.31-.17.66-.29,1-.44a1.2,1.2,0,0,1,1.79.84,16.22,16.22,0,0,0,1.4,3.36c.19.36.33.74.51,1.16-1.36.35-2.58.73-3.83.2V91h1c.69,0,1-.41,1-1.22,0-.58-.17-.75-.89-.83l-.33,0a9.17,9.17,0,0,1,.26-1.18c.13-.38,0-.61-.36-.67a4.09,4.09,0,0,0-1.05,0C42.21,87,41.59,87.1,40.84,87.18Z"/><path class="ad5cb15f-ed69-41ab-9b8d-2139d2763573" d="M19.83,92.83a88.52,88.52,0,0,1-16.44,0L4,92.72a39.2,39.2,0,0,1,6.59-.08c.33,0,.66.13,1,.14,1.22,0,2.43,0,3.65,0s2.27,0,3.4-.07c.25,0,.5-.07.75-.09a4.17,4.17,0,0,1,.5,0Z"/><path class="ad5cb15f-ed69-41ab-9b8d-2139d2763573" d="M60.47,91l-6.86.39,0-.09c.21-.09.41-.18.62-.25l3.08-1c.38-.13.76-.39,1.18,0,.07.06.29,0,.44-.08A1.19,1.19,0,0,1,60.47,91Z"/><path class="f8e09997-bb5b-4a67-b979-d2e1102038fe" d="M49.28,95.44l-1.08.33c-.47-.87-1.3-1.46-1.49-2.58l1.3-.48A17.83,17.83,0,0,1,49.28,95.44Z"/><path class="ad5cb15f-ed69-41ab-9b8d-2139d2763573" d="M97.21,92.82a13.76,13.76,0,0,1-2.58.21,5.42,5.42,0,0,1,.29-2.15,4.6,4.6,0,0,1,.69.24c.39.19.77.43,1.16.63S97.2,92.29,97.21,92.82Z"/><path class="ad5cb15f-ed69-41ab-9b8d-2139d2763573" d="M39.58,89.43c-.2.11-.3.19-.32.17a.79.79,0,0,1-.18-.22.44.44,0,0,1,.21-.07C39.37,89.31,39.44,89.37,39.58,89.43Z"/><path d="M25,20c.93-1.31,1.28-1.42,2.33-.83.16.63.34,1.27.47,1.91a9.25,9.25,0,0,0,1.12,2.3,3.23,3.23,0,0,0,1.79,1.42c1.38.55,1.55,1.3.42,2.3a4.84,4.84,0,0,0-1.32,2.36c-.13.45-.2.92-.3,1.38a2.15,2.15,0,0,0,.15,1.7c.29.44-.15.68-.34,1a.63.63,0,0,1-.76.34,1.2,1.2,0,0,1-1.11-1.25,2.6,2.6,0,0,0-.55-1.28c-.48-.67-1-1.32-1.51-2A3.33,3.33,0,0,0,23.53,28a1.54,1.54,0,0,1-.44-.23c-.77-.46-.84-1-.06-1.44a2.84,2.84,0,0,0,1.32-1.53,10,10,0,0,0,1-3.23C25.43,21,25.55,20.39,25,20Zm2.84,9.37a11.75,11.75,0,0,1,.52-1.64,11.64,11.64,0,0,1,.85-1.38l-2.41-2.64a12.8,12.8,0,0,0-1.53,2.93Z"/><path class="abc893bb-aa34-428d-b7df-b72331464894" d="M105.56,87.5c-.51-.73-.94-1.51-1.46-2.23a10,10,0,0,0-1.33-1.57,28.41,28.41,0,0,0-2.66-2.12c-1.08-.74-2.23-1.36-3.33-2.06C96,79,95,78.75,94.44,77.94c-3.26.36-6.52.51-9.67,1.55.44.49.89,1,1.31,1.48a4.22,4.22,0,0,0,1.24,1.32.61.61,0,0,1,.27.8c-.18.48-.46,1-.93,1.1a11.32,11.32,0,0,0-1.8.81c-1.14.43-2.3.81-3.45,1.21s-2.07.66-3.07,1.07-2,1-3,1.44a7.68,7.68,0,0,1-1,.35c-.93.27-1.89.47-2.79.8-1.53.58-3.08,1.06-4.58,1.74a7,7,0,0,0-2.8,1.79,1.55,1.55,0,0,0-.43,1.09c0,1.52-.08,3-.12,4.57,0,.75,0,1.5,0,2.25,0,.31.06.56.38.66a9.45,9.45,0,0,0,1.36.37c1.9.28,3.8.5,5.71.63,1.7.11,3.39.1,5.08.07,1,0,2.05.06,3.08.09.72,0,1.44.09,2.16.1,2,.06,4,0,6,.18a8.88,8.88,0,0,0,3.77-.3,1.23,1.23,0,0,0,.06-.41,2.43,2.43,0,0,1,.26-1.61,2.46,2.46,0,0,0,.21-1.77c-.06-.25-.09-.64.06-.79a3,3,0,0,0,.55-2.2,13.63,13.63,0,0,1,.09-1.81c.26-1.48.61-2.94.9-4.41.09-.47.13-.93.6-1.21s1-.1,1.45,0a3.35,3.35,0,0,1,.64.17,2.19,2.19,0,0,1,.5.27c.43.3.85.61,1.28.9s.9.55,1.33.85a1.64,1.64,0,0,1,.71,1.43,1,1,0,0,0,.14.52c.44.65.29,1.13-.46,1.23a1.11,1.11,0,0,0-.82.5,9.88,9.88,0,0,0-1.2,1.93c.24-.87.35-1.15-.67.69-.1-.22-.33.62-.43.41-.42.41-1,.6-1.25,1.2a2.36,2.36,0,0,0,.38.24,18.7,18.7,0,0,0,3.24.7.3.3,0,0,0,.16,0,.7.7,0,0,0,.29-.13,8.71,8.71,0,0,0,1.14-1.3,37.86,37.86,0,0,1,3.24-4.41,12.46,12.46,0,0,0,2.37-4.6A2.23,2.23,0,0,0,105.56,87.5Z"/><path d="M69.05,60.85c.37-.32.63-.56.92-.79a3.39,3.39,0,0,1,3.87-.44,6.48,6.48,0,0,1,2.55,2.07,4,4,0,0,0,1.82,1.68,1.08,1.08,0,0,1-.4,1.32,2.31,2.31,0,0,0-.53.63A11.42,11.42,0,0,1,73.11,69a3.68,3.68,0,0,1-1.91.46c-.77,0-1.55.06-2.32.11a5.7,5.7,0,0,1-2.72-.7A8.09,8.09,0,0,1,63,66.4a7.37,7.37,0,0,1-1.78-3.15.8.8,0,0,1,.18-.76,8.39,8.39,0,0,1,3.94-2.79,2.9,2.9,0,0,1,2.17.26C68.06,60.23,68.55,60.55,69.05,60.85ZM74.82,63l.05-.23a12.83,12.83,0,0,0-1.37-1.19,2.12,2.12,0,0,0-2.75.12,14.55,14.55,0,0,0-1,1.18c-.44.52-.53.51-1.06.09a14.15,14.15,0,0,0-1.54-1.13,1.77,1.77,0,0,0-1.68-.16,3.82,3.82,0,0,0-1.74,1.37,8.26,8.26,0,0,0,2.28,1c1.32.6,2.62.28,3.92.1s2.34-.46,3.5-.72C73.89,63.32,74.35,63.17,74.82,63Zm-.13,2.18c-1,.21-2,.4-3,.62a14.52,14.52,0,0,1-5.21.35c-.37-.06-.73-.14-1.18-.23C67.46,68.64,73.16,68.36,74.69,65.22Z"/><path d="M104.92,51l-.67-.08c-.54-.07-.77-.26-.84-.66a.82.82,0,0,1,.53-.94,7.57,7.57,0,0,1,2-.38,1,1,0,0,1,.87.68,2.47,2.47,0,0,1-.13,2.28c-.71,1.35-2,1.87-3.15,2.67-.43.31-.94-.15-1.36-.41s-.2-.54-.11-.83a4.16,4.16,0,0,1,.16-.4A3.45,3.45,0,0,0,104.92,51Z"/><path d="M98.82,46a5.61,5.61,0,0,1-.48,1.3,14.85,14.85,0,0,1-3,3.22c-1.15.94-2.43,1.73-3.65,2.61-.74.53-1.46,1.11-2.2,1.64a5.41,5.41,0,0,1-.94.53,3.27,3.27,0,0,1-3-.38,11.09,11.09,0,0,1-2.94-2.17,20,20,0,0,0-1.75-1.41,11.92,11.92,0,0,1-1.28-1,2.92,2.92,0,0,1-.54-.9c-.25-.64-.49-1.29-.69-1.94A1,1,0,0,1,79.23,46c2.65-.31,5.3-.68,8-1,2-.26,4.07-.54,6.11-.77a10.18,10.18,0,0,1,3.89,0c.16.05.33.05.48.11C98.51,44.71,98.74,45,98.82,46Zm-2,.21a9,9,0,0,0-1.26-.11c-1.75.11-3.49.21-5.23.38s-3.39.4-5.09.61L82,47.5a2.11,2.11,0,0,0-1.36.62,14.84,14.84,0,0,0,1.17,1.41,23,23,0,0,0,4.75,3.74A1.8,1.8,0,0,0,89,53a10.24,10.24,0,0,1,1.57-1.23A22.41,22.41,0,0,0,95.47,48,4.19,4.19,0,0,0,96.78,46.2Z"/><path d="M55.44,54.86a6.63,6.63,0,0,1-.95-.33c-1.13-.58-2.3-1.12-3.38-1.8a26.72,26.72,0,0,1-2.57-1.95,4.92,4.92,0,0,1-.63-.66,3.61,3.61,0,0,1-1.08-1.51A13.49,13.49,0,0,0,46,46.93c-.33-.79-.24-1,.42-1.48a3.62,3.62,0,0,1,2.85-.86,17.34,17.34,0,0,0,1.91,0c.78,0,1.55.15,2.32.19,1.21.08,2.43.1,3.65.2,1.88.15,3.75.34,5.63.53a1.54,1.54,0,0,1,1.41,2,4.18,4.18,0,0,1-1,1.87c-.86,1-1.87,1.74-2.78,2.63a19.35,19.35,0,0,1-3.11,2.32A5.78,5.78,0,0,1,55.44,54.86Zm6.63-7.21c-.14-.11-.19-.2-.25-.21-1.69-.15-3.38-.31-5.07-.43-1.21-.09-2.43-.1-3.65-.19s-2.58-.29-3.87-.4a2.75,2.75,0,0,0-1.13.19.35.35,0,0,0,0,.65,1.7,1.7,0,0,1,1.07,1.28c0,.09.14.16.21.24a17.38,17.38,0,0,0,4.17,3.16c.42.25.89.44,1.33.68a1.7,1.7,0,0,0,2.07-.28c.33-.26.63-.54,1-.78a16.23,16.23,0,0,0,3.26-2.76C61.46,48.44,61.75,48.05,62.07,47.65Z"/><path class="ad5cb15f-ed69-41ab-9b8d-2139d2763573" d="M27.81,29.32l-2.57-2.73a12.8,12.8,0,0,1,1.53-2.93l2.41,2.64a11.64,11.64,0,0,0-.85,1.38A11.75,11.75,0,0,0,27.81,29.32Z"/><path class="a5d3854c-4ab7-419c-9ba8-1e7d9f09d816" d="M74.82,63c-.47.13-.93.28-1.4.39-1.16.26-2.32.55-3.5.72s-2.6.5-3.92-.1a8.26,8.26,0,0,1-2.28-1,3.82,3.82,0,0,1,1.74-1.37,1.77,1.77,0,0,1,1.68.16A14.15,14.15,0,0,1,68.68,63c.53.42.62.43,1.06-.09a14.55,14.55,0,0,1,1-1.18,2.12,2.12,0,0,1,2.75-.12,12.83,12.83,0,0,1,1.37,1.19Z"/><path class="a5d3854c-4ab7-419c-9ba8-1e7d9f09d816" d="M74.69,65.22c-1.53,3.14-7.23,3.42-9.38.74.45.09.81.17,1.18.23a14.52,14.52,0,0,0,5.21-.35C72.7,65.62,73.7,65.43,74.69,65.22Z"/><path class="ad5cb15f-ed69-41ab-9b8d-2139d2763573" d="M96.78,46.2A4.19,4.19,0,0,1,95.47,48a22.41,22.41,0,0,1-4.89,3.7A10.24,10.24,0,0,0,89,53a1.8,1.8,0,0,1-2.46.3,23,23,0,0,1-4.75-3.74,14.84,14.84,0,0,1-1.17-1.41A2.11,2.11,0,0,1,82,47.5l3.21-.42c1.7-.21,3.39-.45,5.09-.61s3.48-.27,5.23-.38A9,9,0,0,1,96.78,46.2Z"/><path class="ad5cb15f-ed69-41ab-9b8d-2139d2763573" d="M62.07,47.65c-.32.4-.61.79-.93,1.15a16.23,16.23,0,0,1-3.26,2.76c-.34.24-.64.52-1,.78a1.7,1.7,0,0,1-2.07.28c-.44-.24-.91-.43-1.33-.68a17.38,17.38,0,0,1-4.17-3.16c-.07-.08-.18-.15-.21-.24a1.7,1.7,0,0,0-1.07-1.28.35.35,0,0,1,0-.65,2.75,2.75,0,0,1,1.13-.19c1.29.11,2.58.29,3.87.4s2.44.1,3.65.19c1.69.12,3.38.28,5.07.43C61.88,47.45,61.93,47.54,62.07,47.65Z"/><path class="abc893bb-aa34-428d-b7df-b72331464894" d="M96,98.88a9.85,9.85,0,0,1,2-3c.44-.5.9-1,1.34-1.47a7.6,7.6,0,0,1,1.37-1.29l-.52-.52a13.75,13.75,0,0,1-1.84,2.77,6.93,6.93,0,0,1-.5.58c-.19.18-.42.32-.61.49a2.64,2.64,0,0,0-.74,1.31.38.38,0,0,0,.63.36,34.07,34.07,0,0,0,3.32-4.76c.21-.33-.19-.68-.51-.51a.12.12,0,0,1-.13,0l.22.55a1.84,1.84,0,0,0,.31-1c0-.41-.66-.52-.74-.1a2.93,2.93,0,0,1-.4,1.08,4.87,4.87,0,0,0-.54.94.38.38,0,0,0,.55.43,3.05,3.05,0,0,0,1.18-1.26,3.11,3.11,0,0,0,.26-.78.86.86,0,0,0,0-.39c0-.13-.15-.18-.22-.28l0,.29v0c.07-.47-.65-.68-.73-.2a.5.5,0,0,0,.17.5q.12.11,0,0c0,.07,0,.13,0,.19a2.19,2.19,0,0,1-.12.33,2.37,2.37,0,0,1-.93,1l.55.42a6.88,6.88,0,0,1,.59-1,3.57,3.57,0,0,0,.35-1.06l-.73-.1a1.11,1.11,0,0,1-.2.61.38.38,0,0,0,.22.55.93.93,0,0,0,.71-.08L99.89,93a31.86,31.86,0,0,1-3.2,4.61l.62.36a2.36,2.36,0,0,1,.31-.71,2.33,2.33,0,0,1,.6-.53,7.19,7.19,0,0,0,1-1.08A14,14,0,0,0,100.93,93c.14-.31-.17-.74-.51-.51A7.73,7.73,0,0,0,99,93.76l-1.51,1.65a10.64,10.64,0,0,0-2.16,3.27c-.17.46.55.65.72.2Z"/><path class="ad5cb15f-ed69-41ab-9b8d-2139d2763573" d="M37.64,88.52a1.23,1.23,0,0,0,.23,1,.37.37,0,0,0,.68-.08,1.84,1.84,0,0,0,.09-.73l-.7.19.16.25a.38.38,0,0,0,.7-.19l.05-.4-.7.19a3.41,3.41,0,0,0,.82,1.1l.08-.59a2.72,2.72,0,0,1-1.1.11l-1.11,0-2.31.08-4.61.17c-.48,0-.49.77,0,.75l5-.18,2.4-.09,1.29,0a1.56,1.56,0,0,0,.83-.18.37.37,0,0,0,.08-.59,3,3,0,0,1-.71-1c-.17-.37-.66-.13-.69.19l-.05.4.7-.19-.16-.25c-.19-.29-.73-.2-.7.19a1.38,1.38,0,0,1-.06.53l.69-.09a.54.54,0,0,1-.15-.45c.07-.47-.65-.68-.73-.2Z"/><path class="b1886b84-4d34-4905-b8f9-b84cb92817a3" d="M37.57,29.9a8.65,8.65,0,0,0-.24,2.15.37.37,0,0,0,.37.37.38.38,0,0,0,.38-.37,6.77,6.77,0,0,1,.05-1s0-.08,0-.12v-.06s0,0,0,0a2,2,0,0,1,0-.24c0-.17.06-.33.1-.5a.37.37,0,1,0-.72-.2Z"/><path class="b1886b84-4d34-4905-b8f9-b84cb92817a3" d="M37.24,29.66v1.47a1.91,1.91,0,0,0,.14.71l.27.68a.38.38,0,0,0,.69.09,5.45,5.45,0,0,0,.4-1.11l.36-1.14-.74-.1a1.41,1.41,0,0,1-.13.76.38.38,0,0,0,.14.51.37.37,0,0,0,.51-.13,2.25,2.25,0,0,0,.23-1.14.37.37,0,0,0-.73-.1L38,31.25a5.17,5.17,0,0,1-.35,1l.69.09-.26-.63a1.83,1.83,0,0,1-.11-.33,1.32,1.32,0,0,1,0-.28V29.66a.38.38,0,0,0-.75,0Z"/><path class="b1886b84-4d34-4905-b8f9-b84cb92817a3" d="M25.35,20.67l0-1c0-.15,0-.3,0-.46v-.12c0,.07,0,0,0,0l0-.1a.14.14,0,0,1,0-.06s0,0,0,0a.37.37,0,1,0-.64-.38,2.09,2.09,0,0,0-.17,1.08l0,1.1A.38.38,0,0,0,25,21a.38.38,0,0,0,.38-.37Z"/><path class="ad5cb15f-ed69-41ab-9b8d-2139d2763573" d="M58.39,90.53c.16,0,.32-.11.49-.15l.12,0c.08,0-.06,0,0,0h.25l.09,0,.07,0s0,0,0,0l0,0,.08,0,0,0,0,0a.43.43,0,0,0,.06.07c0-.05,0-.05,0,0s0,0,0,0a.39.39,0,0,0,.52.14.4.4,0,0,0,.13-.52,1.28,1.28,0,0,0-1-.57,2.48,2.48,0,0,0-1.14.2.37.37,0,1,0,.2.72Z"/><path class="f199c129-bdb2-49b0-b25e-85c21671bfd4" d="M94,101.79a1.6,1.6,0,0,0,.4,1.62.38.38,0,0,0,.53,0,.4.4,0,0,0,0-.53.6.6,0,0,1-.08-.08s0-.08,0,0l0,0a1.28,1.28,0,0,1-.11-.2l0,.09a1.68,1.68,0,0,1-.09-.32l0,.1a1,1,0,0,1,0-.34l0,.1a.83.83,0,0,1,.06-.21.38.38,0,1,0-.73-.2Z"/></g></g></svg>