<svg xmlns="http://www.w3.org/2000/svg" xmlns:xlink="http://www.w3.org/1999/xlink" viewBox="0 0 72.17 70.75"><defs><style>.ab2f320f-bf93-4a2a-aa2a-95340704832d{fill:url(#b02cf13b-d374-4333-a3ee-637414cf28bb);}.a79ba538-b6eb-4fb9-b939-59a39c2a24e6{fill:#fbdfb1;}.a0da8d9c-afa5-4ea9-a56e-07358efe930c,.a5fd59cf-20be-4a44-ae51-bda328264593,.a79ba538-b6eb-4fb9-b939-59a39c2a24e6,.f33cfb7d-4079-4dba-8ce7-72ab18b0bbe9{stroke:#231815;stroke-linecap:round;stroke-linejoin:round;}.a0da8d9c-afa5-4ea9-a56e-07358efe930c,.a5fd59cf-20be-4a44-ae51-bda328264593,.a79ba538-b6eb-4fb9-b939-59a39c2a24e6{stroke-width:0.5px;}.a5fd59cf-20be-4a44-ae51-bda328264593{fill:#231815;}.a0da8d9c-afa5-4ea9-a56e-07358efe930c,.babeb53e-a0c8-49ad-bab0-76df56623939{fill:#fff;}.f33cfb7d-4079-4dba-8ce7-72ab18b0bbe9{fill:none;stroke-width:0.75px;}</style><radialGradient id="b02cf13b-d374-4333-a3ee-637414cf28bb" cx="36.08" cy="27.83" r="34.34" gradientTransform="translate(0 5.09) scale(1 1.09)" gradientUnits="userSpaceOnUse"><stop offset="0.07" stop-color="#fac100"/><stop offset="0.15" stop-color="#fac309" stop-opacity="0.96"/><stop offset="0.28" stop-color="#fbc922" stop-opacity="0.87"/><stop offset="0.45" stop-color="#fbd34b" stop-opacity="0.71"/><stop offset="0.64" stop-color="#fde183" stop-opacity="0.49"/><stop offset="0.85" stop-color="#fef2ca" stop-opacity="0.21"/><stop offset="1" stop-color="#fff" stop-opacity="0"/></radialGradient></defs><g id="a7e0c93f-e8a4-440b-a614-6e58172c7515" data-name="레이어 2"><g id="f6ec5bb7-f49e-46e7-8985-13c6ab26072d" data-name="레이어 1"><ellipse class="ab2f320f-bf93-4a2a-aa2a-95340704832d" cx="36.08" cy="35.37" rx="36.08" ry="35.37"/><path class="a79ba538-b6eb-4fb9-b939-59a39c2a24e6" d="M57.94,48.37a3.61,3.61,0,0,1-2.18.65c2.42-2.86-1.5-3.33-1.5-3.33-4.31.58-2.95,2.68-2.95,2.68-3.34,1-6.81-2.39-8.25-4-.1-.34-.17-.55-.17-.55h-.3l-.23-.29v.29H29.7v-.29l-.23.29h-.06l-.06.14c-1.13,1.35-5,5.48-8.6,4.42,0,0,1.35-2.1-3-2.68,0,0-3.92.47-1.5,3.33a3.58,3.58,0,0,1-2.17-.65c-1-.74-1.41,0-1.21.44s3,2.64,5.46,2.35c0,0,4.83,2,8.88.42a12.35,12.35,0,0,0-.1,2.83H44.82a7.48,7.48,0,0,0,0-2.84c4.05,1.62,8.89-.41,8.89-.41,2.47.29,5.27-1.89,5.47-2.35S58.91,47.63,57.94,48.37Zm-39.55.28a.86.86,0,1,1,.93-.86A.91.91,0,0,1,18.39,48.65Zm35.28,0a.86.86,0,1,1,.93-.86A.9.9,0,0,1,53.67,48.65Z"/><path class="a79ba538-b6eb-4fb9-b939-59a39c2a24e6" d="M36.41,54.41S45,48.53,48.7,54c0,0,1.29,3.85-4.45,3.78Z"/><path class="a79ba538-b6eb-4fb9-b939-59a39c2a24e6" d="M44.25,57.78c-.58,0-19.1-10.19-20.9-2.45s18.19,4.1,18.19,4.1Z"/><path class="a5fd59cf-20be-4a44-ae51-bda328264593" d="M15.3,56.36s17,9.1,35-1.16c0,0,5.45-2.36,9.34-.64l-1.91,3L59.5,61s-6.72.83-9.49,2.32c-2.46,1.32-17.35,8.26-36,.77l2.65-3Z"/><path class="babeb53e-a0c8-49ad-bab0-76df56623939" d="M24.56,65.35l-.18,0-.19-.09-.14-.12a.26.26,0,0,1-.07-.15l-.2-2.26L23,65.29l-1.11-.21L23.17,61a.51.51,0,0,1,.12-.23.65.65,0,0,1,.18-.15.6.6,0,0,1,.21-.08l.21,0a1,1,0,0,1,.23.06.65.65,0,0,1,.22.11,1,1,0,0,1,.17.19.77.77,0,0,1,.08.27L24.81,64,26,61.41a.62.62,0,0,1,.17-.22.7.7,0,0,1,.23-.11.67.67,0,0,1,.24,0l.23,0a.93.93,0,0,1,.2.1.8.8,0,0,1,.17.15.67.67,0,0,1,.12.2.74.74,0,0,1,0,.26L27.14,66,26,65.84l.22-2.73-1,2.07a.29.29,0,0,1-.11.11.48.48,0,0,1-.18.06l-.2,0Z"/><path class="babeb53e-a0c8-49ad-bab0-76df56623939" d="M29.73,61.84a.66.66,0,0,1,.32-.36.87.87,0,0,1,.47-.1.91.91,0,0,1,.44.14.7.7,0,0,1,.28.39l1.36,4.42-1.32-.06-.2-.75-1.54-.07-.26.73L28,66.12Zm.17,2.61.92,0L30.43,63Z"/><path class="babeb53e-a0c8-49ad-bab0-76df56623939" d="M34.45,62.77a.34.34,0,0,0,.22.28,2.68,2.68,0,0,0,.57.19l.3.08a2,2,0,0,1,.5.21,1.4,1.4,0,0,1,.38.31,1.29,1.29,0,0,1,.26.42,1.42,1.42,0,0,1,.09.52,1.25,1.25,0,0,1-.44,1,2.19,2.19,0,0,1-1.27.46,3.36,3.36,0,0,1-.78,0,1.62,1.62,0,0,1-.63-.23.81.81,0,0,1-.16-.16.5.5,0,0,1-.1-.19.47.47,0,0,1,0-.21.63.63,0,0,1,.07-.22.55.55,0,0,1,.17-.17.73.73,0,0,1,.24-.07.4.4,0,0,1,.25,0,1,1,0,0,0,.18.09,1,1,0,0,0,.28.09,1.39,1.39,0,0,0,.47,0,.69.69,0,0,0,.38-.12.3.3,0,0,0,.12-.29.23.23,0,0,0-.08-.16.63.63,0,0,0-.2-.13L35,64.39l-.36-.09-.15,0-.14-.05a1.68,1.68,0,0,1-.58-.31,1.45,1.45,0,0,1-.35-.44,1.29,1.29,0,0,1-.14-.5,1.44,1.44,0,0,1,0-.51,1.34,1.34,0,0,1,.52-.79,2,2,0,0,1,1-.34h.41l.32,0,.24.06.19.07a.92.92,0,0,1,.35.3.54.54,0,0,1,.08.41.43.43,0,0,1-.18.28.63.63,0,0,1-.31.1h-.15a.32.32,0,0,1-.13,0,1.39,1.39,0,0,0-.29-.1,1.49,1.49,0,0,0-.44,0,.62.62,0,0,0-.33.11A.34.34,0,0,0,34.45,62.77Z"/><path class="babeb53e-a0c8-49ad-bab0-76df56623939" d="M39,65.66,38.28,62l-.9.18a.45.45,0,0,1-.23,0,.37.37,0,0,1-.17-.1.44.44,0,0,1-.12-.15.64.64,0,0,1-.06-.18.55.55,0,0,1,0-.18.48.48,0,0,1,.05-.18.44.44,0,0,1,.12-.15.67.67,0,0,1,.21-.09l3-.61h.23a.56.56,0,0,1,.17.09.58.58,0,0,1,.11.15.56.56,0,0,1,.08.36.6.6,0,0,1-.06.19.35.35,0,0,1-.12.15.34.34,0,0,1-.21.09l-.9.18.75,3.7Z"/><path class="babeb53e-a0c8-49ad-bab0-76df56623939" d="M42.74,61.67l1.56-.52a.45.45,0,0,1,.22,0,.48.48,0,0,1,.18.07.47.47,0,0,1,.14.14.65.65,0,0,1,.09.16,1.13,1.13,0,0,1,0,.18.63.63,0,0,1,0,.19.47.47,0,0,1-.1.16.75.75,0,0,1-.2.11l-1.55.53.22.66c0,.07.05.11.08.12s.08,0,.14,0l1.5-.51a.62.62,0,0,1,.23,0,.43.43,0,0,1,.18.06.8.8,0,0,1,.13.13.65.65,0,0,1,.08.17,1,1,0,0,1,0,.18.69.69,0,0,1,0,.2.39.39,0,0,1-.1.16.48.48,0,0,1-.2.12l-1.94.65a1.7,1.7,0,0,1-.44.1.58.58,0,0,1-.56-.29,1.66,1.66,0,0,1-.18-.4l-.94-2.78a1.73,1.73,0,0,1-.1-.43.59.59,0,0,1,.27-.58,1.76,1.76,0,0,1,.41-.19l1.88-.64a.62.62,0,0,1,.23,0,.45.45,0,0,1,.18.07.62.62,0,0,1,.14.14l.08.16a1.16,1.16,0,0,1,0,.18.58.58,0,0,1,0,.19.44.44,0,0,1-.1.16.56.56,0,0,1-.2.12l-1.44.48c-.07,0-.11,0-.12.08s0,.08,0,.14Z"/><path class="babeb53e-a0c8-49ad-bab0-76df56623939" d="M49.07,58.94a1.34,1.34,0,0,1,.09.78,1.58,1.58,0,0,1-.29.68l1.77,1.35-1.26.51L48,61.09l-.72.29.61,1.5-1.15.46-1.44-3.61a1.36,1.36,0,0,1-.12-.42.61.61,0,0,1,0-.33.64.64,0,0,1,.21-.26,1.29,1.29,0,0,1,.39-.21l1-.42a3.14,3.14,0,0,1,.7-.18,1.68,1.68,0,0,1,.64.06,1.37,1.37,0,0,1,.53.31,1.77,1.77,0,0,1,.38.6Zm-2.21,1.5.72-.29a.59.59,0,0,0,.36-.33.51.51,0,0,0,0-.42l0,0a.52.52,0,0,0-.29-.31.6.6,0,0,0-.49,0l-.56.23a.17.17,0,0,0-.11.08s0,.08,0,.14Z"/><path class="a0da8d9c-afa5-4ea9-a56e-07358efe930c" d="M31.26,45a13.11,13.11,0,0,0,5.06.74S32.68,51,31.26,45Z"/><path class="a0da8d9c-afa5-4ea9-a56e-07358efe930c" d="M41.27,45a13.27,13.27,0,0,1-5.06.75S39.86,51,41.27,45Z"/><path class="a79ba538-b6eb-4fb9-b939-59a39c2a24e6" d="M22.91,27.33s-3.8,18.42,13.43,18.42S52.7,23,39.59,19.67C39.59,19.67,28.52,15.45,22.91,27.33Z"/><path class="f33cfb7d-4079-4dba-8ce7-72ab18b0bbe9" d="M35,37.31a1.9,1.9,0,0,0,2.16,0"/><path class="f33cfb7d-4079-4dba-8ce7-72ab18b0bbe9" d="M26.11,32.08s1.32,4.91,6,1.13"/><path class="f33cfb7d-4079-4dba-8ce7-72ab18b0bbe9" d="M24.35,34.31s.9.2,2.06-1.22"/><path class="f33cfb7d-4079-4dba-8ce7-72ab18b0bbe9" d="M45.13,32.39s-1.48,4.86-6,.94"/><path class="f33cfb7d-4079-4dba-8ce7-72ab18b0bbe9" d="M46.79,34.69s-.9.17-2-1.29"/><path class="f33cfb7d-4079-4dba-8ce7-72ab18b0bbe9" d="M45.16,35.65s-.63.16-1.41-1.17"/><path class="f33cfb7d-4079-4dba-8ce7-72ab18b0bbe9" d="M25.85,35.32s.63.19,1.46-1.12"/><path class="f33cfb7d-4079-4dba-8ce7-72ab18b0bbe9" d="M31.9,39.88s4.19,3.93,8.26-.91"/><ellipse class="a79ba538-b6eb-4fb9-b939-59a39c2a24e6" cx="32.63" cy="18.24" rx="2.21" ry="1.81"/><ellipse class="a79ba538-b6eb-4fb9-b939-59a39c2a24e6" cx="29.69" cy="19.44" rx="2.21" ry="1.81"/><ellipse class="a79ba538-b6eb-4fb9-b939-59a39c2a24e6" cx="26.64" cy="21.25" rx="2.21" ry="1.81"/><ellipse class="a79ba538-b6eb-4fb9-b939-59a39c2a24e6" cx="24.91" cy="23.63" rx="2.21" ry="1.81"/><circle class="a79ba538-b6eb-4fb9-b939-59a39c2a24e6" cx="23.19" cy="25.79" r="1.72"/><ellipse class="a79ba538-b6eb-4fb9-b939-59a39c2a24e6" cx="48.33" cy="25.04" rx="1.72" ry="1.41"/><ellipse class="a79ba538-b6eb-4fb9-b939-59a39c2a24e6" cx="38.76" cy="18.24" rx="2.21" ry="1.81"/><ellipse class="a79ba538-b6eb-4fb9-b939-59a39c2a24e6" cx="35.55" cy="18.11" rx="2.21" ry="1.94"/><ellipse class="a79ba538-b6eb-4fb9-b939-59a39c2a24e6" cx="41.81" cy="19.04" rx="2.21" ry="1.81"/><ellipse class="a79ba538-b6eb-4fb9-b939-59a39c2a24e6" cx="45.31" cy="20.17" rx="1.81" ry="2.21" transform="translate(16.69 60.67) rotate(-78.75)"/><ellipse class="a79ba538-b6eb-4fb9-b939-59a39c2a24e6" cx="48.49" cy="23.06" rx="1.81" ry="2.21" transform="translate(6.33 56.31) rotate(-63.69)"/><ellipse class="a79ba538-b6eb-4fb9-b939-59a39c2a24e6" cx="33.32" cy="21.3" rx="2.39" ry="2.03" transform="translate(-1.63 2.8) rotate(-4.7)"/><ellipse class="a79ba538-b6eb-4fb9-b939-59a39c2a24e6" cx="29.06" cy="22.65" rx="2.39" ry="2.03"/><ellipse class="a79ba538-b6eb-4fb9-b939-59a39c2a24e6" cx="26.28" cy="24.68" rx="2.39" ry="2.03" transform="translate(-2.89 3.49) rotate(-7.2)"/><ellipse class="a79ba538-b6eb-4fb9-b939-59a39c2a24e6" cx="23.9" cy="27.36" rx="2.39" ry="2.03" transform="translate(-5.29 5.74) rotate(-12.33)"/><ellipse class="a79ba538-b6eb-4fb9-b939-59a39c2a24e6" cx="22.32" cy="29.97" rx="1.86" ry="1.58"/><ellipse class="a79ba538-b6eb-4fb9-b939-59a39c2a24e6" cx="49.74" cy="28.94" rx="1.86" ry="1.58"/><ellipse class="a79ba538-b6eb-4fb9-b939-59a39c2a24e6" cx="37.79" cy="21.3" rx="2.03" ry="2.39" transform="translate(9.53 54.21) rotate(-78.75)"/><ellipse class="a79ba538-b6eb-4fb9-b939-59a39c2a24e6" cx="42.18" cy="22.2" rx="2.39" ry="2.03"/><ellipse class="a79ba538-b6eb-4fb9-b939-59a39c2a24e6" cx="45.98" cy="23.33" rx="2.39" ry="2.03"/><ellipse class="a79ba538-b6eb-4fb9-b939-59a39c2a24e6" cx="48.69" cy="25.91" rx="2.03" ry="2.39" transform="translate(13.78 68.61) rotate(-78.75)"/></g></g></svg>