<svg xmlns="http://www.w3.org/2000/svg" viewBox="0 0 36.02 65.9"><defs><style>.ea7877ad-e104-49af-baf6-f32f9bd9f7ff{fill:#e5dced;}.af0a111a-d205-4e9b-96b6-89f0581c0249{fill:#feefe5;}.a5d7cfbe-912f-4e78-8355-ecb96ca0deaf,.ab3c5253-148f-4449-b7b1-d7960c506cf0,.af0a111a-d205-4e9b-96b6-89f0581c0249,.b6fe063c-7139-4fb3-884f-33f158e17fc8,.e28ee284-6f28-43ae-bc80-60dddf65b221,.e83e0c35-9296-429b-ada6-dd0a24735c6f,.f849bc81-e841-4ffc-b5fa-c5afa2f47e96{stroke:#231815;stroke-linecap:round;stroke-linejoin:round;}.a5d7cfbe-912f-4e78-8355-ecb96ca0deaf,.af0a111a-d205-4e9b-96b6-89f0581c0249,.b6fe063c-7139-4fb3-884f-33f158e17fc8,.e28ee284-6f28-43ae-bc80-60dddf65b221,.e83e0c35-9296-429b-ada6-dd0a24735c6f{stroke-width:0.5px;}.a5d7cfbe-912f-4e78-8355-ecb96ca0deaf{fill:#523015;}.e83e0c35-9296-429b-ada6-dd0a24735c6f{fill:#4f2d13;}.e28ee284-6f28-43ae-bc80-60dddf65b221,.f849bc81-e841-4ffc-b5fa-c5afa2f47e96{fill:none;}.ab3c5253-148f-4449-b7b1-d7960c506cf0,.f849bc81-e841-4ffc-b5fa-c5afa2f47e96{stroke-width:0.75px;}.b6fe063c-7139-4fb3-884f-33f158e17fc8{fill:#fff;}.ab3c5253-148f-4449-b7b1-d7960c506cf0,.b597fb9a-cf8b-4abc-91c4-2b4328dbf4e2{fill:#231815;}</style></defs><g id="baa2ee5c-c55b-4bb3-b1bc-31b9eb96c771" data-name="레이어 2"><g id="b40fee3a-b0ce-4cb3-8a57-aba5ec1bc820" data-name="레이어 1"><path class="ea7877ad-e104-49af-baf6-f32f9bd9f7ff" d="M28.84,55.53c4-7.67-3.38-11.23-3.38-11.23-6.37,3.33-13.63.22-13.63.22S5.09,50.23,9.55,56.36h0s-.67,5.19,0,7.65,17.57,1.8,19.45.32a44.72,44.72,0,0,0-.14-8.8Z"/><path class="af0a111a-d205-4e9b-96b6-89f0581c0249" d="M5.23,27.62S1.75,46.1,19,45.81s16-23,2.81-26.13C21.78,19.68,17.62,25.39,5.23,27.62Z"/><path class="a5d7cfbe-912f-4e78-8355-ecb96ca0deaf" d="M21.73,19.68s1.36-8.61-9.67-3.67-10.84,10.83-9,21.58S.25,45.33.25,45.33s7,3.93,9.32-2.19c0,0-6.19-4.62-4.38-15.52C5.19,27.62,16.15,26.2,21.73,19.68Z"/><path class="e83e0c35-9296-429b-ada6-dd0a24735c6f" d="M21,15.94S37.9,13.62,33.64,38.72c0,0-1.42,5,2.13,6.25,0,0-4.76,1.67-8.13-2.13,0,0,6-4.42,3.41-14,0,0-2.19-7.79-9.32-9.15A5,5,0,0,0,21,15.94Z"/><path class="e28ee284-6f28-43ae-bc80-60dddf65b221" d="M25.51,49.36h0c1.16,2.65-1.61,5.87-1.61,5.87l3.74,2.26c6.45-9-2.18-13.19-2.18-13.19-6.37,3.33-13.63.22-13.63.22S3.82,51.3,11,58l3.91-2.65a6.14,6.14,0,0,1-2.33-5.55"/><path class="e28ee284-6f28-43ae-bc80-60dddf65b221" d="M9.54,56.36s-.67,5.19,0,7.65,17.57,1.8,19.45.32a44.72,44.72,0,0,0-.14-8.8h0"/><path class="af0a111a-d205-4e9b-96b6-89f0581c0249" d="M11.4,57.75s1.46,3,3.95,1.8-.85-3.9-.85-3.9Z"/><path class="af0a111a-d205-4e9b-96b6-89f0581c0249" d="M27.44,57.44s-1.23,3.11-3.8,2.11.54-4,.54-4Z"/><path class="f849bc81-e841-4ffc-b5fa-c5afa2f47e96" d="M17.49,37.39a1.89,1.89,0,0,0,2.16,0"/><path class="b6fe063c-7139-4fb3-884f-33f158e17fc8" d="M13.62,45.13a13.11,13.11,0,0,0,5.06.74S15,51.16,13.62,45.13Z"/><path class="b6fe063c-7139-4fb3-884f-33f158e17fc8" d="M23.63,45.13a13.18,13.18,0,0,1-5.06.74S22.21,51.16,23.63,45.13Z"/><path class="f849bc81-e841-4ffc-b5fa-c5afa2f47e96" d="M15.46,41.48A12.24,12.24,0,0,1,22,40.72"/><path class="f849bc81-e841-4ffc-b5fa-c5afa2f47e96" d="M22.27,27.19a16.71,16.71,0,0,0,4.69,0"/><path class="f849bc81-e841-4ffc-b5fa-c5afa2f47e96" d="M7.71,33.41s2.94-3.33,7.93-1.28"/><path class="ab3c5253-148f-4449-b7b1-d7960c506cf0" d="M9.45,32.2a6,6,0,0,1,3.45-.69s1.21,4.34-1.39,4.56-2.06-3.61-2.06-3.61"/><line class="ab3c5253-148f-4449-b7b1-d7960c506cf0" x1="7.86" y1="33.26" x2="6.94" y2="32.54"/><line class="ab3c5253-148f-4449-b7b1-d7960c506cf0" x1="8.79" y1="32.43" x2="8.01" y2="31.56"/><path class="f849bc81-e841-4ffc-b5fa-c5afa2f47e96" d="M28.58,33.41s-2.94-3.33-7.93-1.28"/><path class="ab3c5253-148f-4449-b7b1-d7960c506cf0" d="M26.84,32.2a6,6,0,0,0-3.45-.69s-1.21,4.34,1.39,4.56,2.06-3.61,2.06-3.61"/><line class="ab3c5253-148f-4449-b7b1-d7960c506cf0" x1="28.43" y1="33.26" x2="29.35" y2="32.54"/><line class="ab3c5253-148f-4449-b7b1-d7960c506cf0" x1="27.5" y1="32.43" x2="28.28" y2="31.56"/><path class="f849bc81-e841-4ffc-b5fa-c5afa2f47e96" d="M15.46,7.55,17.88,11l1.77-3.49s10.17.52,10-3.09-9-4.07-9-4.07S7.69-.12,6.4,4.59,15.46,7.55,15.46,7.55Z"/><circle class="b597fb9a-cf8b-4abc-91c4-2b4328dbf4e2" cx="12.91" cy="4.47" r="1.24"/><circle class="b597fb9a-cf8b-4abc-91c4-2b4328dbf4e2" cx="17.99" cy="4.47" r="1.24"/><circle class="b597fb9a-cf8b-4abc-91c4-2b4328dbf4e2" cx="23.11" cy="4.39" r="1.24"/></g></g></svg>