<svg xmlns="http://www.w3.org/2000/svg" viewBox="0 0 39.97 61.17"><defs><style>.bca8fc46-a9f5-4190-87a5-9f2415640c60{fill:#f3fafd;}.a67c94d0-cebe-490b-88c9-d1a87b88faab,.aede20b0-3718-4cfa-be81-2eef9388d1d0,.b1ac5026-921c-4a5b-a81f-fbf92929a5fd,.ba9e290c-41ea-421d-b574-20144900fcb9,.bca8fc46-a9f5-4190-87a5-9f2415640c60,.bcc12ed2-1340-4a87-a451-d72609ee5113,.e451750b-3c89-4f1d-a02a-9103680d13df,.f4340913-42ff-4956-90c4-d46237e241f4,.f798cb90-0421-4e9e-80aa-194c08c4ddf7{stroke:#231815;stroke-linecap:round;stroke-linejoin:round;}.a67c94d0-cebe-490b-88c9-d1a87b88faab,.aede20b0-3718-4cfa-be81-2eef9388d1d0,.bca8fc46-a9f5-4190-87a5-9f2415640c60,.bcc12ed2-1340-4a87-a451-d72609ee5113,.e451750b-3c89-4f1d-a02a-9103680d13df,.f4340913-42ff-4956-90c4-d46237e241f4,.f798cb90-0421-4e9e-80aa-194c08c4ddf7{stroke-width:0.5px;}.f4340913-42ff-4956-90c4-d46237e241f4{fill:#d4ecec;}.e451750b-3c89-4f1d-a02a-9103680d13df{fill:#feefe5;}.a67c94d0-cebe-490b-88c9-d1a87b88faab,.ba9e290c-41ea-421d-b574-20144900fcb9{fill:none;}.f798cb90-0421-4e9e-80aa-194c08c4ddf7{fill:#523015;}.aede20b0-3718-4cfa-be81-2eef9388d1d0{fill:#4f2d13;}.b1ac5026-921c-4a5b-a81f-fbf92929a5fd,.ba9e290c-41ea-421d-b574-20144900fcb9{stroke-width:0.75px;}.b1ac5026-921c-4a5b-a81f-fbf92929a5fd,.bb6ea19c-543c-4af9-8f96-0f8592abbab2{fill:#231815;}.bc92c929-ddfd-40f3-a186-ec91d391115c,.bcc12ed2-1340-4a87-a451-d72609ee5113{fill:#fff;}.bb6ea19c-543c-4af9-8f96-0f8592abbab2{font-size:4px;font-family:S-CoreDream-6Bold, S-Core Dream;font-weight:700;letter-spacing:-0.1em;}</style></defs><g id="b5cce3ed-0039-4a41-8a12-499c38c48523" data-name="레이어 2"><g id="ba46e301-72ce-4c24-a39a-da4b04adff97" data-name="레이어 1"><rect class="bca8fc46-a9f5-4190-87a5-9f2415640c60" x="0.25" y="56.34" width="38.92" height="4.58"/><path class="f4340913-42ff-4956-90c4-d46237e241f4" d="M3.1,49A2.79,2.79,0,0,0,.29,52c-.09,3.1,0,5.62,0,5.62a173.53,173.53,0,0,1,39.1,0s2.1-9-4.29-8.62S3.1,49,3.1,49Z"/><path class="e451750b-3c89-4f1d-a02a-9103680d13df" d="M27.05,48.37c-6.59-1.44-9,1.35-9.79,2.75a1.42,1.42,0,0,1-.38.51c11.18,2.24,13.7-.31,13.7-.31s1-10.64-3.63-9.19-13.4,0-13.4,0-2.42.77-2.62,6.87S17,51.55,17,51.55"/><path class="a67c94d0-cebe-490b-88c9-d1a87b88faab" d="M21.65,48.15s-3-2.25-7.91-.87"/><path class="e451750b-3c89-4f1d-a02a-9103680d13df" d="M7.21,26.68S3.72,45.16,21,44.87s16-23,2.8-26.12C23.75,18.75,19.59,24.45,7.21,26.68Z"/><path class="f798cb90-0421-4e9e-80aa-194c08c4ddf7" d="M23.71,18.75s1.36-8.62-9.68-3.68S3.19,25.91,5,36.65s-2.8,7.74-2.8,7.74,7,3.94,9.32-2.19c0,0-6.19-4.62-4.39-15.52C7.16,26.68,18.13,25.26,23.71,18.75Z"/><path class="aede20b0-3718-4cfa-be81-2eef9388d1d0" d="M23,15s16.9-2.32,12.64,22.78c0,0-1.42,5,2.13,6.26,0,0-4.76,1.67-8.12-2.14,0,0,6-4.42,3.41-14,0,0-2.19-7.79-9.32-9.14A5.1,5.1,0,0,0,23,15Z"/><path class="ba9e290c-41ea-421d-b574-20144900fcb9" d="M19.46,36.45a1.91,1.91,0,0,0,2.17,0"/><path class="b1ac5026-921c-4a5b-a81f-fbf92929a5fd" d="M11.19,31.69A17.83,17.83,0,0,1,15.05,31s1.35,4.12-1.55,4.33-2.31-3.42-2.31-3.42"/><ellipse class="bc92c929-ddfd-40f3-a186-ec91d391115c" cx="12.14" cy="31.74" rx="0.81" ry="0.67" transform="translate(-7.04 3.68) rotate(-13.42)"/><path class="ba9e290c-41ea-421d-b574-20144900fcb9" d="M9.21,31.56A31,31,0,0,0,16.76,30"/><path class="b1ac5026-921c-4a5b-a81f-fbf92929a5fd" d="M28.78,31.69A17.83,17.83,0,0,0,24.92,31s-1.35,4.12,1.55,4.33,2.31-3.42,2.31-3.42"/><ellipse class="bc92c929-ddfd-40f3-a186-ec91d391115c" cx="25.84" cy="31.56" rx="0.67" ry="0.81" transform="translate(-10.85 49.36) rotate(-76.58)"/><path class="ba9e290c-41ea-421d-b574-20144900fcb9" d="M30.76,31.56A31,31,0,0,1,23.21,30"/><path class="ba9e290c-41ea-421d-b574-20144900fcb9" d="M10.16,29.07s4.07.58,5-2.77"/><path class="ba9e290c-41ea-421d-b574-20144900fcb9" d="M24.32,26.54s1.49,2.2,5.33,2.33"/><path class="ba9e290c-41ea-421d-b574-20144900fcb9" d="M17.3,40.67s3-2.64,3.95-1.67a6.29,6.29,0,0,0,1.42,1.22"/><path class="bcc12ed2-1340-4a87-a451-d72609ee5113" d="M19.57,9l1.51,3,2-2.77s12.39.85,12.4-3.74C35.47-.12,22.83.34,22.83.34S8.31-.82,7.47,5.37C7.47,5.37,7,10.27,19.57,9Z"/><text class="bb6ea19c-543c-4af9-8f96-0f8592abbab2" transform="translate(12.3 6.42)">몸 때문에..?</text></g></g></svg>