<svg xmlns="http://www.w3.org/2000/svg" viewBox="0 0 58.95 68.76"><defs><style>.bf2df5e1-8370-4ae2-a185-e24b5667d6b8{fill:#898989;}.a23c7d5c-c976-49ea-a2a3-bdd282a5574d,.a46446da-0ca0-4f44-9637-a1be8da7030d,.b73613f4-9c9e-47a5-bc05-5f274b083012,.b8158f27-7561-4a19-a14e-508842fc5e94,.bb4a83eb-7088-4b83-8fb4-d6e30cb15ebe,.bd1cc322-46ef-44a0-a2f0-a7b4345dc395,.bf2df5e1-8370-4ae2-a185-e24b5667d6b8,.e7b8f1a3-2717-4bb8-9db1-e33868fb1a87{stroke:#231815;stroke-linecap:round;stroke-linejoin:round;stroke-width:0.5px;}.e7b8f1a3-2717-4bb8-9db1-e33868fb1a87{fill:#e8b4c5;}.b73613f4-9c9e-47a5-bc05-5f274b083012{fill:#fadce9;}.b8158f27-7561-4a19-a14e-508842fc5e94{fill:#feefe5;}.a46446da-0ca0-4f44-9637-a1be8da7030d{fill:#ec6b71;}.a23c7d5c-c976-49ea-a2a3-bdd282a5574d{fill:none;}.a3f65a15-90a9-4ebb-a592-73453457fefa{fill:#eb6776;}.bd1cc322-46ef-44a0-a2f0-a7b4345dc395{fill:#e5dced;}.bb4a83eb-7088-4b83-8fb4-d6e30cb15ebe{fill:#4f2d13;}.b6bfe76b-6b22-401a-bc74-3b57303047ed{fill:#e73b8b;}.a2aa4278-baef-4868-abd0-216deb901e1c{fill:#b5b5b6;}</style></defs><g id="ae8dc603-d03f-435f-8d5c-bb496a60eeed" data-name="레이어 2"><g id="ab50a9bb-1fa6-4c51-8d69-beff4389aa27" data-name="레이어 1"><polygon class="bf2df5e1-8370-4ae2-a185-e24b5667d6b8" points="0.25 30.25 0.25 56.15 34.41 40.1 34.41 17.09 0.25 30.25"/><polygon class="e7b8f1a3-2717-4bb8-9db1-e33868fb1a87" points="0.25 13.31 0.25 30.25 2.48 31.77 2.64 14.86 0.25 13.31"/><polygon class="e7b8f1a3-2717-4bb8-9db1-e33868fb1a87" points="0.25 13.31 2.77 14.94 34.41 1.51 31.8 0.25 0.25 13.31"/><polygon class="b73613f4-9c9e-47a5-bc05-5f274b083012" points="2.77 14.94 34.41 1.51 34.41 17.09 2.48 31.77 2.77 14.94"/><path class="b8158f27-7561-4a19-a14e-508842fc5e94" d="M31.28,25.15S14.36,49.72,44.47,49.59c0,0-1.4-5.37.6-8.08,0,0,3.59-.58,2.39-3.64S44.6,36.6,44.6,36.6,32.88,30.21,31.28,25.15Z"/><path class="a46446da-0ca0-4f44-9637-a1be8da7030d" d="M26.84,41.11a10.43,10.43,0,0,0,10,.94s-1.13,4.64-8,2.89A8,8,0,0,1,26.84,41.11Z"/><path class="a23c7d5c-c976-49ea-a2a3-bdd282a5574d" d="M36.84,40.6s2.45.3,1.2,2"/><path class="a3f65a15-90a9-4ebb-a592-73453457fefa" d="M27.16,38a26.82,26.82,0,0,1,4.89-3.45.38.38,0,0,0-.38-.65,27.85,27.85,0,0,0-5,3.57c-.36.32.17.85.53.53Z"/><path class="a3f65a15-90a9-4ebb-a592-73453457fefa" d="M30.11,38.65a47.07,47.07,0,0,1,4.87-3c.43-.23.05-.87-.38-.64a47,47,0,0,0-4.87,3c-.39.28,0,.93.38.65Z"/><path class="a3f65a15-90a9-4ebb-a592-73453457fefa" d="M33.64,39a3.51,3.51,0,0,1,.83-.65c.33-.22.66-.44,1-.65.68-.44,1.36-.86,2.06-1.28.41-.25,0-.9-.38-.65q-1.08.65-2.13,1.32l-1,.68a3.72,3.72,0,0,0-.88.7.39.39,0,0,0,0,.53.38.38,0,0,0,.53,0Z"/><path class="a3f65a15-90a9-4ebb-a592-73453457fefa" d="M36.49,39.43a30.4,30.4,0,0,1,4.14-1.68c.46-.14.27-.87-.19-.72a30.16,30.16,0,0,0-4.33,1.75c-.44.22-.06.87.38.65Z"/><path class="bd1cc322-46ef-44a0-a2f0-a7b4345dc395" d="M33,47.8s8,3.54,16.14.59c0,0,4.85,12.74,2.75,19.18,0,0-14.4,2.1-22,0A59.55,59.55,0,0,1,33,47.8Z"/><path class="a23c7d5c-c976-49ea-a2a3-bdd282a5574d" d="M38.74,51.44S34.54,58.88,33.1,59l3.74,3.1s5.6-4.25,6.75-9"/><path class="b8158f27-7561-4a19-a14e-508842fc5e94" d="M34.13,62.69s-4-1.18-.07-2.89l2,1.63S36.07,62.3,34.13,62.69Z"/><path class="bb4a83eb-7088-4b83-8fb4-d6e30cb15ebe" d="M31.28,25.15s.27,4,13.32,11.45c0,0,1.49-1.6,2.64.77s.36,3.26-2.17,4.14c0,0-5.66,13.42,10.19,12.45,0,0-1.6-8.23,2-12.76s-.67-14.59-.67-14.59-5.35-10.85-20.05-6.52c0,0-7.63,1.6-6.11,6.42Z"/><path class="b6bfe76b-6b22-401a-bc74-3b57303047ed" d="M7,17.25l1-.45,0,.95c.05,1.4.57,1.8,1.37,1.75l0,1.15a1.84,1.84,0,0,1-1.84-.43A4.87,4.87,0,0,1,5.91,22.3l0-1.15a3.4,3.4,0,0,0,1.19-3Zm-.55,6.8A2.28,2.28,0,0,1,7,22.56a4.85,4.85,0,0,1,1.93-1.38,2.8,2.8,0,0,1,2-.3,1,1,0,0,1,.6,1,2.38,2.38,0,0,1-.5,1.5,4.77,4.77,0,0,1-1.92,1.37,2.9,2.9,0,0,1-2,.31A1.05,1.05,0,0,1,6.47,24.05Zm1-.45a.31.31,0,0,0,.22.32A2.22,2.22,0,0,0,9,23.65a3.2,3.2,0,0,0,1.25-.82.74.74,0,0,0,.19-.49.31.31,0,0,0-.22-.32A2.2,2.2,0,0,0,9,22.29a3.44,3.44,0,0,0-1.25.82A.71.71,0,0,0,7.51,23.6Zm3.57-8.15.18,4.62-1,.44-.09-2.2-1.21.52,0-1.12,1.21-.53L10,15.89Z"/><path class="b6bfe76b-6b22-401a-bc74-3b57303047ed" d="M12.84,17.07a3.73,3.73,0,0,1,.48-2.15,2.42,2.42,0,0,1,1.12-1,1.21,1.21,0,0,1,1.16,0,2.08,2.08,0,0,1,.62,1.68,3.88,3.88,0,0,1-.47,2.15,2.47,2.47,0,0,1-1.13,1,1.19,1.19,0,0,1-1.16,0A2.07,2.07,0,0,1,12.84,17.07Zm5.5,2.39.05,1.12-4.89,2.1-.11-2.88,1-.45.07,1.77Zm-4.5-2.82a1.35,1.35,0,0,0,.27.95.41.41,0,0,0,.47,0A.84.84,0,0,0,15,17.2a2.24,2.24,0,0,0,.2-1.16,1.35,1.35,0,0,0-.28-.95.38.38,0,0,0-.46,0,.91.91,0,0,0-.45.42A2.41,2.41,0,0,0,13.84,16.64ZM18,12.47l.22,5.69-1,.45-.22-5.69Z"/><path class="b6bfe76b-6b22-401a-bc74-3b57303047ed" d="M19.87,13.28a1.87,1.87,0,0,1,.36-1.21,4.91,4.91,0,0,1,2.15-1.5,3,3,0,0,1,2.19-.38.91.91,0,0,1,.44.87,1.87,1.87,0,0,1-.36,1.21,2.8,2.8,0,0,1-.52.57l0,.67L25.36,13l0,1.08-5.69,2.46,0-1.09,1.24-.53,0-.66a1.28,1.28,0,0,1-.58-.1A.93.93,0,0,1,19.87,13.28Zm.2,5.11A2,2,0,0,1,20.54,17a5.41,5.41,0,0,1,2-1.35,3.39,3.39,0,0,1,2.07-.42.87.87,0,0,1,.56.91,2,2,0,0,1-.47,1.37,5.18,5.18,0,0,1-2,1.35,3.33,3.33,0,0,1-2.07.42C20.29,19.2,20.09,18.92,20.07,18.39Zm.83-5.55a.26.26,0,0,0,.13.22,2.58,2.58,0,0,0,1.43-.36,3.59,3.59,0,0,0,1.41-.87.56.56,0,0,0,.11-.32.26.26,0,0,0-.13-.23c-.23-.11-.73.07-1.43.37a3.56,3.56,0,0,0-1.41.86A.52.52,0,0,0,20.9,12.84ZM21.1,18a.23.23,0,0,0,.17.25,2.76,2.76,0,0,0,1.39-.38A3.83,3.83,0,0,0,24,17a.51.51,0,0,0,.15-.39.23.23,0,0,0-.17-.25,2.92,2.92,0,0,0-1.38.39,4.1,4.1,0,0,0-1.37.79A.56.56,0,0,0,21.1,18Zm2-4.46-.61.29-.6.24,0,.45,1.2-.52Z"/><path class="b6bfe76b-6b22-401a-bc74-3b57303047ed" d="M28.93,12.46l-2.33,1,0-1.1,5.69-2.46,0,1.1L30,12l0,.59,1.94-.84.12,3-4.92,2.12-.11-3L29,13.05Zm2-3.54.94-.4,0,1.07L26.82,11.8l0-1.07.86-.37,0-.87-.75.33,0-1.08,4.91-2.12.05,1.07L31,8v.39A1.45,1.45,0,0,1,31,8.92Zm-2.85,6.42L31,14.11l0-.82-2.85,1.23ZM30,8.46l-1.36.59,0,.87L30,9.35A1.3,1.3,0,0,0,30,8.91Z"/><path class="a2aa4278-baef-4868-abd0-216deb901e1c" d="M21.13,27.43Q15.57,35.35,9.94,43.24L6.75,47.68c-.28.4.37.77.65.38q5.65-7.87,11.23-15.78l3.15-4.48c.28-.39-.37-.77-.65-.37Z"/><path class="a2aa4278-baef-4868-abd0-216deb901e1c" d="M25.5,28.53,17.67,40.92c-.26.41.39.79.65.38l7.83-12.39c.26-.41-.39-.79-.65-.38Z"/><path class="a2aa4278-baef-4868-abd0-216deb901e1c" d="M10.61,33.59,3.76,43.51c-.27.39.38.77.65.38L11.26,34c.27-.4-.38-.78-.65-.38Z"/></g></g></svg>