<svg xmlns="http://www.w3.org/2000/svg" viewBox="0 0 36.02 50.19"><defs><style>.b5dfe737-7ce2-4179-94ab-fe997c1017ae{fill:#e5dced;}.a125514e-324b-4197-bf2b-bfe90761af2e,.a3583b42-b54e-4a46-a7b5-8b71ed8f5bde,.a36598ea-9dfd-4f64-b8fe-828915cf0d70,.a5a2cc02-c216-4e19-bd30-d686d1bf3a0b,.afff747e-12ac-4cf2-a5e5-751d57dd0445,.b5dfe737-7ce2-4179-94ab-fe997c1017ae,.bd7f9898-22d3-4043-9fff-51e4aef3b8cc,.bfa67879-bcb7-4bca-b441-7e5c50a9da47,.eebaa10b-56f8-457e-8d0b-dd87af4d1e21{stroke:#231815;stroke-linecap:round;stroke-linejoin:round;}.a125514e-324b-4197-bf2b-bfe90761af2e,.a3583b42-b54e-4a46-a7b5-8b71ed8f5bde,.a5a2cc02-c216-4e19-bd30-d686d1bf3a0b,.afff747e-12ac-4cf2-a5e5-751d57dd0445,.b5dfe737-7ce2-4179-94ab-fe997c1017ae,.bd7f9898-22d3-4043-9fff-51e4aef3b8cc,.eebaa10b-56f8-457e-8d0b-dd87af4d1e21{stroke-width:0.5px;}.ba34ab46-1801-469d-b69f-0d9aa51be32d,.eebaa10b-56f8-457e-8d0b-dd87af4d1e21{fill:#fff;}.bd7f9898-22d3-4043-9fff-51e4aef3b8cc{fill:#feefe5;}.a125514e-324b-4197-bf2b-bfe90761af2e{fill:#523015;}.a5a2cc02-c216-4e19-bd30-d686d1bf3a0b{fill:#4f2d13;}.a36598ea-9dfd-4f64-b8fe-828915cf0d70{fill:none;}.a36598ea-9dfd-4f64-b8fe-828915cf0d70,.bfa67879-bcb7-4bca-b441-7e5c50a9da47{stroke-width:0.75px;}.afff747e-12ac-4cf2-a5e5-751d57dd0445{fill:#ec6b71;}.bfa67879-bcb7-4bca-b441-7e5c50a9da47{fill:#231815;}.a3583b42-b54e-4a46-a7b5-8b71ed8f5bde{fill:#fffff9;}</style></defs><g id="a33ed416-b561-41ee-b10b-3f64f0786cee" data-name="레이어 2"><g id="ba61ef71-f549-4df7-a148-3facc17ba04b" data-name="레이어 1"><path class="b5dfe737-7ce2-4179-94ab-fe997c1017ae" d="M18.19,30.8S15.13,32,10.52,29.62c0,0-6.12-.28-1.71,6.74,0,0-2,8.08-.6,11.84,0,0,10.89,3.92,20.12,0,0,0,.7-5.61,0-9S18.19,30.8,18.19,30.8Z"/><path class="eebaa10b-56f8-457e-8d0b-dd87af4d1e21" d="M12.92,30.32a13,13,0,0,0,5.06.75S14.34,36.35,12.92,30.32Z"/><path class="eebaa10b-56f8-457e-8d0b-dd87af4d1e21" d="M22.93,30.32a13,13,0,0,1-5.06.75S21.51,36.35,22.93,30.32Z"/><path class="bd7f9898-22d3-4043-9fff-51e4aef3b8cc" d="M5.23,13.39S1.75,31.87,19,31.58s16-23,2.81-26.13C21.78,5.45,17.62,11.16,5.23,13.39Z"/><path class="a125514e-324b-4197-bf2b-bfe90761af2e" d="M21.73,5.45s1.36-8.61-9.67-3.67-10.84,10.84-9,21.58S.25,31.1.25,31.1s7,3.93,9.32-2.19c0,0-6.19-4.62-4.38-15.52C5.19,13.39,16.15,12,21.73,5.45Z"/><path class="a5a2cc02-c216-4e19-bd30-d686d1bf3a0b" d="M21,1.71S37.9-.61,33.64,24.49c0,0-1.42,5,2.13,6.25,0,0-4.76,1.68-8.13-2.13,0,0,6-4.42,3.41-14,0,0-2.19-7.79-9.32-9.15A5,5,0,0,0,21,1.71Z"/><path class="a36598ea-9dfd-4f64-b8fe-828915cf0d70" d="M17.49,23.16a1.89,1.89,0,0,0,2.16,0"/><path class="a36598ea-9dfd-4f64-b8fe-828915cf0d70" d="M22.66,12.82a16.71,16.71,0,0,1,4.69,0"/><path class="a36598ea-9dfd-4f64-b8fe-828915cf0d70" d="M9.36,12.87a16.67,16.67,0,0,1,4.69-.18"/><circle class="a36598ea-9dfd-4f64-b8fe-828915cf0d70" cx="11.94" cy="19.77" r="5.2"/><circle class="a36598ea-9dfd-4f64-b8fe-828915cf0d70" cx="25.2" cy="19.77" r="5.2"/><path class="a36598ea-9dfd-4f64-b8fe-828915cf0d70" d="M17.19,19.77s1.68-1.1,2.75,0"/><path class="afff747e-12ac-4cf2-a5e5-751d57dd0445" d="M14.77,25.47s3.48,5.81,7.59-.07Z"/><path class="bfa67879-bcb7-4bca-b441-7e5c50a9da47" d="M9.62,18a7.64,7.64,0,0,1,3.86-.65s1.36,4.11-1.55,4.32-2.31-3.42-2.31-3.42"/><ellipse class="ba34ab46-1801-469d-b69f-0d9aa51be32d" cx="10.57" cy="18.14" rx="0.81" ry="0.67" transform="translate(-3.92 2.95) rotate(-13.42)"/><path class="a36598ea-9dfd-4f64-b8fe-828915cf0d70" d="M8,18.82s2.6-3.88,7.54-1.26"/><path class="bfa67879-bcb7-4bca-b441-7e5c50a9da47" d="M22.71,17.92a7.7,7.7,0,0,1,3.88-.44s1.13,4.18-1.78,4.23-2.12-3.54-2.12-3.54"/><ellipse class="ba34ab46-1801-469d-b69f-0d9aa51be32d" cx="23.65" cy="18.07" rx="0.81" ry="0.67" transform="translate(-2.85 4.53) rotate(-10.32)"/><path class="a36598ea-9dfd-4f64-b8fe-828915cf0d70" d="M21.08,18.61s2.8-3.67,7.6-.82"/><polygon class="ba34ab46-1801-469d-b69f-0d9aa51be32d" points="11.69 18.3 12.09 19.11 12.98 19.24 12.33 19.87 12.48 20.76 11.69 20.34 10.89 20.76 11.04 19.87 10.39 19.24 11.29 19.11 11.69 18.3"/><polygon class="ba34ab46-1801-469d-b69f-0d9aa51be32d" points="24.7 18.3 25.1 19.11 26 19.24 25.35 19.87 25.5 20.76 24.7 20.34 23.9 20.76 24.05 19.87 23.41 19.24 24.3 19.11 24.7 18.3"/><line class="a36598ea-9dfd-4f64-b8fe-828915cf0d70" x1="10.39" y1="16.87" x2="10.39" y2="15.71"/><line class="a36598ea-9dfd-4f64-b8fe-828915cf0d70" x1="11.81" y1="16.65" x2="11.95" y2="15.32"/><line class="a36598ea-9dfd-4f64-b8fe-828915cf0d70" x1="24.33" y1="16.65" x2="24.43" y2="15.32"/><line class="a36598ea-9dfd-4f64-b8fe-828915cf0d70" x1="25.64" y1="16.65" x2="25.88" y2="15.32"/><path class="b5dfe737-7ce2-4179-94ab-fe997c1017ae" d="M26.16,31.12s7.35,1.74,2,9a3.43,3.43,0,0,1-4.4.56C21,39.15,26.16,31.12,26.16,31.12Z"/><polyline class="a3583b42-b54e-4a46-a7b5-8b71ed8f5bde" points="15.54 40.83 19.15 29.21 28.69 29.26 29.58 30.29 25.55 42.02 16.48 42.32 15.54 41.02"/><polyline class="a3583b42-b54e-4a46-a7b5-8b71ed8f5bde" points="19.25 29.39 20.21 30.29 29.58 30.29"/><line class="a3583b42-b54e-4a46-a7b5-8b71ed8f5bde" x1="20.21" y1="30.29" x2="16.48" y2="42.32"/><path class="b5dfe737-7ce2-4179-94ab-fe997c1017ae" d="M10.52,29.62s-7.37.45,0,8.58a10.49,10.49,0,0,0,3.85,2.26L16,36.7a9.78,9.78,0,0,1-4.12-2.86"/><path class="bd7f9898-22d3-4043-9fff-51e4aef3b8cc" d="M14.38,40.33s2.66,1.93,4.07-.25-2.62-3-2.62-3Z"/></g></g></svg>