<svg xmlns="http://www.w3.org/2000/svg" viewBox="0 0 49.96 49.87"><defs><style>.bdb689b4-365e-4ba7-9a12-aa762317b2f1{fill:#d4ecec;}.a93f3903-54e4-4ad4-a1a7-86101cc78d5f,.b8eb44aa-27ea-4a3e-a151-f2bff181ed7a,.bdb689b4-365e-4ba7-9a12-aa762317b2f1,.bfb075e3-49bc-446b-bed5-d521aee6f32a,.f3d3767b-0694-4a75-b10c-d6809b6c2447,.f866b419-22e0-4fa7-ae13-bfeac2d2548f{stroke:#231815;stroke-linecap:round;stroke-linejoin:round;}.a93f3903-54e4-4ad4-a1a7-86101cc78d5f,.b8eb44aa-27ea-4a3e-a151-f2bff181ed7a,.bdb689b4-365e-4ba7-9a12-aa762317b2f1,.f3d3767b-0694-4a75-b10c-d6809b6c2447,.f866b419-22e0-4fa7-ae13-bfeac2d2548f{stroke-width:0.5px;}.b8eb44aa-27ea-4a3e-a151-f2bff181ed7a{fill:#feefe5;}.bfb075e3-49bc-446b-bed5-d521aee6f32a,.f3d3767b-0694-4a75-b10c-d6809b6c2447{fill:none;}.a93f3903-54e4-4ad4-a1a7-86101cc78d5f{fill:#523015;}.f866b419-22e0-4fa7-ae13-bfeac2d2548f{fill:#4f2d13;}.bfb075e3-49bc-446b-bed5-d521aee6f32a{stroke-width:0.75px;}.ef263100-1e0e-4de0-bebf-5b1756385c08{fill:#231815;}.b40906a7-816c-48d5-9a08-d6479a53b4c2{fill:#e4007f;}</style></defs><g id="e0f6c71b-4eae-4084-8209-0662fecf35b2" data-name="레이어 2"><g id="afc71b45-e239-4324-807a-17d1102c1bb0" data-name="레이어 1"><path class="bdb689b4-365e-4ba7-9a12-aa762317b2f1" d="M.25,36.28s23-2.5,27.89,4c0,0,12,6.82,21.57-4l-.07,13.3-49,.12Z" transform="translate(0 -0.08)"/><path class="b8eb44aa-27ea-4a3e-a151-f2bff181ed7a" d="M22.74,36.31c-5.5-1-7.45,1.35-8.06,2.54a1.08,1.08,0,0,1-.3.43c9.34,1.57,11.37-.62,11.37-.62s.52-8.86-3.25-7.53-11.13.35-11.13.35-2,.7-2,5.77,5.12,2,5.12,2" transform="translate(0 -0.08)"/><path class="f3d3767b-0694-4a75-b10c-d6809b6c2447" d="M18.26,36.27a7.83,7.83,0,0,0-6.59-.52" transform="translate(0 -0.08)"/><path class="b8eb44aa-27ea-4a3e-a151-f2bff181ed7a" d="M6.1,17.92s-2.69,15.43,11.66,15,13-19.37,2-21.8C19.79,11.11,16.39,15.92,6.1,17.92Z" transform="translate(0 -0.08)"/><path class="a93f3903-54e4-4ad4-a1a7-86101cc78d5f" d="M19.75,11.11s1-7.19-8.1-2.95-8.9,9.16-7.24,18.08-2.25,6.49-2.25,6.49,5.9,3.19,7.74-1.94c0,0-5.21-3.77-3.84-12.87C6.06,17.92,15.18,16.6,19.75,11.11Z" transform="translate(0 -0.08)"/><path class="f866b419-22e0-4fa7-ae13-bfeac2d2548f" d="M19.09,8s14.05-2.13,10.8,18.82c0,0-1.12,4.21,1.85,5.19A6.52,6.52,0,0,1,25,30.33s5-3.75,2.67-11.71c0,0-1.91-6.46-7.87-7.51A4.23,4.23,0,0,0,19.09,8Z" transform="translate(0 -0.08)"/><path class="bfb075e3-49bc-446b-bed5-d521aee6f32a" d="M16.42,25.91a1.61,1.61,0,0,0,1.81,0" transform="translate(0 -0.08)"/><path class="bfb075e3-49bc-446b-bed5-d521aee6f32a" d="M8.88,21.79s1.23,4.06,5,.79" transform="translate(0 -0.08)"/><path class="bfb075e3-49bc-446b-bed5-d521aee6f32a" d="M7.48,23.69s.75.15,1.68-1.07" transform="translate(0 -0.08)"/><path class="bfb075e3-49bc-446b-bed5-d521aee6f32a" d="M24.73,21.56s-1.11,4.08-5,.93" transform="translate(0 -0.08)"/><path class="bfb075e3-49bc-446b-bed5-d521aee6f32a" d="M26.17,23.43s-.75.17-1.72-1" transform="translate(0 -0.08)"/><path class="bfb075e3-49bc-446b-bed5-d521aee6f32a" d="M24.84,24.27s-.52.15-1.21-.94" transform="translate(0 -0.08)"/><path class="bfb075e3-49bc-446b-bed5-d521aee6f32a" d="M8.75,24.5s.53.13,1.19-1" transform="translate(0 -0.08)"/><path class="bfb075e3-49bc-446b-bed5-d521aee6f32a" d="M13.91,28.13s3.59,3.16,6.85-1" transform="translate(0 -0.08)"/><path class="b8eb44aa-27ea-4a3e-a151-f2bff181ed7a" d="M28.54,34.78s-6.16,2.6-10.53.33-6.23,7.41,10.13,5.2c0,0,5.57,4.23,15,.83a4.69,4.69,0,0,0-.89-4.69S33.14,40.56,28.54,34.78Z" transform="translate(0 -0.08)"/><circle class="b8eb44aa-27ea-4a3e-a151-f2bff181ed7a" cx="35.4" cy="26.1" r="12.35"/><path class="bfb075e3-49bc-446b-bed5-d521aee6f32a" d="M32.35,26.28s1.72,4.22,6.08,1.13" transform="translate(0 -0.08)"/><path class="bfb075e3-49bc-446b-bed5-d521aee6f32a" d="M25.22,22.91A2.33,2.33,0,0,0,28,25.17" transform="translate(0 -0.08)"/><path class="ef263100-1e0e-4de0-bebf-5b1756385c08" d="M29.32,28.88a1.28,1.28,0,0,0-1.79-1,1.2,1.2,0,0,0-.7.86,1.35,1.35,0,0,0,0,.63c0,.09.07.19.11.28a1,1,0,0,1,.13.23V29.7l.09-.16s.15-.07,0,0l-.09,0a1.79,1.79,0,0,0-.24.12,1,1,0,0,0-.32.32,1.06,1.06,0,0,0-.14.85,1.22,1.22,0,0,0,1.33.87.38.38,0,0,0,.37-.37.38.38,0,0,0-.37-.38.55.55,0,0,1-.49-.11l-.05-.05s-.06-.1,0-.06a.36.36,0,0,1,0-.23c0,.07,0-.11,0-.05l.06-.11s.07,0,.07,0l.09-.05a1,1,0,0,0,.33-.18.48.48,0,0,0,0-.57,1,1,0,0,1-.21-.58.43.43,0,0,1,.25-.36.57.57,0,0,1,.51,0,.39.39,0,0,1,.26.32c0,.48.77.49.75,0Z" transform="translate(0 -0.08)"/><path class="b40906a7-816c-48d5-9a08-d6479a53b4c2" d="M32.37,3.23a2.91,2.91,0,0,1,.1-1.38A2.7,2.7,0,0,1,33.68.7a3.13,3.13,0,0,1,1-.44,2,2,0,0,1,2,1.3,3.59,3.59,0,0,1-.09,2.5,18.15,18.15,0,0,1-1.15,2.29A15.18,15.18,0,0,0,34,10.93c-.55-.93-.85-2.07-1.72-2.71a4.93,4.93,0,0,0-.9-.5,7.12,7.12,0,0,1-3.24-2.6,5.37,5.37,0,0,1-.67-2.32,1.56,1.56,0,0,1,.17-1,1.57,1.57,0,0,1,.95-.56,5.2,5.2,0,0,1,1.62-.13,2.23,2.23,0,0,1,1,.29,2.93,2.93,0,0,1,1.18,1.83" transform="translate(0 -0.08)"/><path class="ef263100-1e0e-4de0-bebf-5b1756385c08" d="M32.56,3.23a2,2,0,0,1,.55-1.91A3.16,3.16,0,0,1,34.93.44c1.6,0,2,1.9,1.67,3.11a23.78,23.78,0,0,1-1.71,3.61,16.1,16.1,0,0,0-1.11,3.72l.34,0c-.6-1-.94-2.29-2-2.95-.59-.35-1.23-.59-1.82-.95A6.37,6.37,0,0,1,28.7,5.63a4.57,4.57,0,0,1-1-2.07,4.07,4.07,0,0,1-.11-1.2,1.1,1.1,0,0,1,.92-.92A3.71,3.71,0,0,1,31,1.49a2.63,2.63,0,0,1,1.22,1.79c.05.23.42.13.36-.1A2.7,2.7,0,0,0,30.35.94c-.93-.11-2.64-.06-3,1a3.31,3.31,0,0,0,.06,1.79,4.81,4.81,0,0,0,.8,1.84A7.47,7.47,0,0,0,31,7.75a4,4,0,0,1,1.83,1.39c.38.6.63,1.27,1,1.89a.19.19,0,0,0,.34,0,15.72,15.72,0,0,1,1.67-4.84c.71-1.31,1.61-2.77,1.2-4.33A2.15,2.15,0,0,0,34.21.22a4.06,4.06,0,0,0-1.66,1.14,2.5,2.5,0,0,0-.37,1.87c0,.23.4.24.38,0Z" transform="translate(0 -0.08)"/><path class="b40906a7-816c-48d5-9a08-d6479a53b4c2" d="M39.94,11.3l-.26-4.48A1.71,1.71,0,0,1,39.77,6,1,1,0,0,1,41,5.54a1.51,1.51,0,0,1,.92,1A3.3,3.3,0,0,1,42,7.94a4.22,4.22,0,0,1,1-1.26,1.44,1.44,0,0,1,1.51-.21A1.41,1.41,0,0,1,45,8.19,3.45,3.45,0,0,1,43.7,9.64a14.83,14.83,0,0,1-3.88,2.13l.13,0" transform="translate(0 -0.08)"/><path class="ef263100-1e0e-4de0-bebf-5b1756385c08" d="M40.13,11.3,40,8.88c-.05-.77-.13-1.55-.13-2.33a.79.79,0,0,1,.52-.84,1,1,0,0,1,.92.22,2.25,2.25,0,0,1,.48,2c0,.19.27.24.35.09.42-.69,1.1-1.75,2.07-1.46s.75,1.44.32,2a7.08,7.08,0,0,1-2.1,1.7,16.12,16.12,0,0,1-2.64,1.29l.09.36.13,0c.23-.07.13-.44-.1-.36l-.12.05c-.23.08-.13.44.09.36a15.08,15.08,0,0,0,2.5-1.19,9.7,9.7,0,0,0,2.17-1.59,2.17,2.17,0,0,0,.67-1.92,1.31,1.31,0,0,0-1.42-1.09c-1,.09-1.52.92-2,1.68l.35.1a2.55,2.55,0,0,0-.6-2.27,1.29,1.29,0,0,0-1.75,0,1.33,1.33,0,0,0-.33,1c0,.51.06,1,.09,1.54l.18,3.15c0,.24.39.25.38,0Z" transform="translate(0 -0.08)"/><path class="ef263100-1e0e-4de0-bebf-5b1756385c08" d="M6.18,4.87l-1.85.79L4,5,8.68,3l.3.69-1.85.79.14.33-.95.41ZM5.77,1.29,7.45.57l.29.68L3.43,3.1l-.29-.68L4.8,1.7l-.16-.38L5.6.9ZM7.24,6a4.16,4.16,0,0,1-2,1.37L5,6.7c.9-.43,1.6-.88,1.38-1.39v0l1-.42v0c.21.5,1,.31,2-.05l.3.7A4.2,4.2,0,0,1,7.24,6ZM4,3.94a.65.65,0,0,1,.17-.74,4.16,4.16,0,0,1,1.49-.92,4.23,4.23,0,0,1,1.7-.45A.68.68,0,0,1,8,2.21.67.67,0,0,1,7.81,3a4.41,4.41,0,0,1-1.49.92,4.31,4.31,0,0,1-1.7.45A.65.65,0,0,1,4,3.94Zm.94-.41s.06.05.13.05a4.77,4.77,0,0,0,1-.36A5.38,5.38,0,0,0,7,2.75c0-.06.07-.1.06-.13S7,2.57,6.91,2.57a4.07,4.07,0,0,0-1,.36A3.85,3.85,0,0,0,5,3.41S4.89,3.49,4.91,3.53Z" transform="translate(0 -0.08)"/><path class="ef263100-1e0e-4de0-bebf-5b1756385c08" d="M9.31,2.27l2.1-.9.35.8-2.11.9Z" transform="translate(0 -0.08)"/></g></g></svg>