<svg xmlns="http://www.w3.org/2000/svg" viewBox="0 0 174.8 55.15"><defs><style>.bc459f0d-0cd0-4b21-92cc-f5e721456f6c{fill:#ad0712;}</style></defs><g id="a839e7ea-3c1b-427e-9cc1-f5a17e8926eb" data-name="레이어 2"><g id="be8ff0aa-5b14-4db5-b2a5-b7649fb2ffa3" data-name="레이어 1"><path class="bc459f0d-0cd0-4b21-92cc-f5e721456f6c" d="M19,21a3.24,3.24,0,0,1-1.19,2.69,4.65,4.65,0,0,1-3,.93H4.15a4.66,4.66,0,0,1-2.95-.93A3.22,3.22,0,0,1,0,21V18.35a3.22,3.22,0,0,1,1.2-2.69,4.67,4.67,0,0,1,3-.94H14.8a4.66,4.66,0,0,1,3,.94A3.24,3.24,0,0,1,19,18.35ZM18.53,5.47h3.3V8.33a1.31,1.31,0,0,1-.47,1.12,2.11,2.11,0,0,1-1.28.35H18.53v2.65A1.57,1.57,0,0,1,18,13.69a2,2,0,0,1-1.4.46H13.45V13a7.11,7.11,0,0,1-2.2.7,15.45,15.45,0,0,1-2.3.2H1.48a1.56,1.56,0,0,1-1.09-.33,1.33,1.33,0,0,1-.36-1V1.6H12.4V4.1A1.36,1.36,0,0,1,12,5.15,1.58,1.58,0,0,1,11,5.47H5.12V10h4a10.72,10.72,0,0,0,2.18-.23,10.37,10.37,0,0,0,2.12-.6V1.55h5.08ZM13.85,19.55a.89.89,0,0,0-.23-.65c-.14-.17-.49-.25-1-.25H6.35a1.42,1.42,0,0,0-1,.25.9.9,0,0,0-.24.65v.17a.92.92,0,0,0,.24.66,1.48,1.48,0,0,0,1,.24H12.6a1.46,1.46,0,0,0,1-.24.92.92,0,0,0,.23-.66Z"/><path class="bc459f0d-0cd0-4b21-92cc-f5e721456f6c" d="M28.1,11.9a6,6,0,0,1-3,2.4,10.39,10.39,0,0,1-4,1V11.2a4.93,4.93,0,0,0,3-1.62q1.38-1.45,1.38-5.06v-3h5.18v3q0,3.6,1.35,5.06a4.75,4.75,0,0,0,3,1.62v4.1a10.13,10.13,0,0,1-4-1A5.65,5.65,0,0,1,28.1,11.9ZM24.77,24.52a1.68,1.68,0,0,1-1.21-.41A1.51,1.51,0,0,1,23.12,23V15.88h5.1v4.74H41.08V23a1.49,1.49,0,0,1-.46,1.16,1.69,1.69,0,0,1-1.22.41ZM41,16.08a1.54,1.54,0,0,1-.53,1.23,2,2,0,0,1-1.39.46H35.92V1.55H41Z"/><path class="bc459f0d-0cd0-4b21-92cc-f5e721456f6c" d="M62.65,21.27a3.19,3.19,0,0,1-3.25,3.25H57.58V24a9.85,9.85,0,0,1-1.08.23,10.82,10.82,0,0,1-1.65.13H44.73A2,2,0,0,1,43.41,24a1.55,1.55,0,0,1-.49-1.23V20.5H55a10.41,10.41,0,0,0,1.58-.12,3.65,3.65,0,0,0,1-.21V1.55h5.07ZM43.1,5.42a3.84,3.84,0,0,1,1.06-2.84A3.78,3.78,0,0,1,47,1.5h5.64a3.78,3.78,0,0,1,2.82,1.08A3.84,3.84,0,0,1,56.5,5.42V14.7a3.89,3.89,0,0,1-1.06,2.84,3.78,3.78,0,0,1-2.82,1.08H47a3.78,3.78,0,0,1-2.82-1.08A3.89,3.89,0,0,1,43.1,14.7Zm5.15,8a1.45,1.45,0,0,0,.25,1,.89.89,0,0,0,.65.23h1.3a.89.89,0,0,0,.65-.23,1.45,1.45,0,0,0,.25-1V6.7a1.46,1.46,0,0,0-.25-1,.93.93,0,0,0-.65-.22h-1.3a.93.93,0,0,0-.65.22,1.46,1.46,0,0,0-.25,1Z"/><path class="bc459f0d-0cd0-4b21-92cc-f5e721456f6c" d="M87.88,5.67h3.29V8.52a1.32,1.32,0,0,1-.46,1.13,2.13,2.13,0,0,1-1.29.35H87.88v2.45a1.57,1.57,0,0,1-.53,1.24,2,2,0,0,1-1.4.46H82.8V13a12.47,12.47,0,0,1-2.58.65,18.28,18.28,0,0,1-2.14.13H71a1.72,1.72,0,0,1-1.24-.39,1.57,1.57,0,0,1-.41-1.21V1.58h5.07V10H78.2a15,15,0,0,0,2.22-.18,14.16,14.16,0,0,0,2.38-.62V1.55h5.08Zm-18.13,9.1H87.88V23a1.55,1.55,0,0,1-.43,1.16,1.62,1.62,0,0,1-1.2.41H71.38a1.66,1.66,0,0,1-1.21-.41A1.54,1.54,0,0,1,69.75,23Zm13,5.85V18.67h-8v1.95Z"/><path class="bc459f0d-0cd0-4b21-92cc-f5e721456f6c" d="M97.1,20.58a6.29,6.29,0,0,1-2.78,2.62,8.24,8.24,0,0,1-3.95,1.22V20.33a4.63,4.63,0,0,0,2.83-1.92c.83-1.09,1.25-2.83,1.25-5.24V5.5H92a1.55,1.55,0,0,1-1.08-.33,1.34,1.34,0,0,1-.37-1V1.6h12.85V4.12a1.33,1.33,0,0,1-.36,1A1.56,1.56,0,0,1,102,5.5h-2.3v7.67c0,2.41.4,4.15,1.2,5.24a4.46,4.46,0,0,0,2.68,1.92v4.09a7.64,7.64,0,0,1-3.78-1.22A6.33,6.33,0,0,1,97.1,20.58ZM109.25,9.33h3.47v2.75a1.4,1.4,0,0,1-.53,1.22,2.48,2.48,0,0,1-1.44.37h-1.5v7.6A3.19,3.19,0,0,1,106,24.52h-1.83v-23h5.08Z"/><path class="bc459f0d-0cd0-4b21-92cc-f5e721456f6c" d="M118.8,12.35a6.2,6.2,0,0,1-3,2.29,10.72,10.72,0,0,1-3.93.88v-4.1A5,5,0,0,0,114.8,10c.78-.73,1.23-2.05,1.35-4h-2.88a1.33,1.33,0,0,1-1-.32,1.53,1.53,0,0,1-.3-1V2.12h4.22V0h5.18V2.12h4V4.65a1.59,1.59,0,0,1-.29,1,1.29,1.29,0,0,1-1,.32h-2.68c.1,1.9.51,3.22,1.23,4a4.65,4.65,0,0,0,2.87,1.45v4.1a10.17,10.17,0,0,1-3.85-.88A5.59,5.59,0,0,1,118.8,12.35Zm-3.28,12.17a1.68,1.68,0,0,1-1.21-.41,1.51,1.51,0,0,1-.44-1.16V16.3H119v4.32h12.85V23a1.48,1.48,0,0,1-.45,1.16,1.7,1.7,0,0,1-1.22.41Zm16.23-8.44a1.57,1.57,0,0,1-.53,1.23,2,2,0,0,1-1.4.46h-3.15V1.55h5.08Z"/><path class="bc459f0d-0cd0-4b21-92cc-f5e721456f6c" d="M146.47,16.12v6.55a1.64,1.64,0,0,1-.62,1.29,2.12,2.12,0,0,1-1.43.54h-3V16.12h-6.75a1.76,1.76,0,0,1-1.2-.36,1.48,1.48,0,0,1-.4-1.16V12.27h14.5a10.64,10.64,0,0,0,.45-2,16.06,16.06,0,0,0,.2-1.85v-3H135.7a1.52,1.52,0,0,1-1.06-.41,1.43,1.43,0,0,1-.47-1.14V1.62h19.1V8.35a9.47,9.47,0,0,1-.25,2.23c-.15.64-.3,1.21-.45,1.69h1.93V14.6a1.48,1.48,0,0,1-.4,1.16,1.76,1.76,0,0,1-1.2.36Z"/><path class="bc459f0d-0cd0-4b21-92cc-f5e721456f6c" d="M174.8,21.27a3.19,3.19,0,0,1-3.25,3.25h-1.83V24a9.08,9.08,0,0,1-1.07.23,10.82,10.82,0,0,1-1.65.13H156.87a2,2,0,0,1-1.31-.43,1.55,1.55,0,0,1-.49-1.23V20.5h12.08a10.18,10.18,0,0,0,1.57-.12,3.57,3.57,0,0,0,1-.21V1.55h5.08ZM155.25,5.42a3.84,3.84,0,0,1,1.06-2.84,3.78,3.78,0,0,1,2.81-1.08h5.65a3.78,3.78,0,0,1,2.82,1.08,3.88,3.88,0,0,1,1.06,2.84V14.7a3.93,3.93,0,0,1-1.06,2.84,3.78,3.78,0,0,1-2.82,1.08h-5.65a3.78,3.78,0,0,1-2.81-1.08,3.89,3.89,0,0,1-1.06-2.84Zm5.15,8a1.45,1.45,0,0,0,.25,1,.89.89,0,0,0,.65.23h1.3a.89.89,0,0,0,.65-.23,1.45,1.45,0,0,0,.25-1V6.7a1.46,1.46,0,0,0-.25-1,.93.93,0,0,0-.65-.22h-1.3a.93.93,0,0,0-.65.22,1.46,1.46,0,0,0-.25,1Z"/><path class="bc459f0d-0cd0-4b21-92cc-f5e721456f6c" d="M21.53,40.8a6,6,0,0,1-3,2.4,10.35,10.35,0,0,1-4,1V40.1a4.85,4.85,0,0,0,3-1.63q1.39-1.44,1.39-5v-1.9h5.18v1.9c0,2.41.43,4.09,1.31,5A4.56,4.56,0,0,0,28.3,40.1v4.1a9.84,9.84,0,0,1-3.94-1A5.63,5.63,0,0,1,21.53,40.8ZM34.7,51a3.24,3.24,0,0,1-1.19,2.69,4.65,4.65,0,0,1-3,.93H19.9A4.66,4.66,0,0,1,17,53.69,3.22,3.22,0,0,1,15.75,51V48.35A3.22,3.22,0,0,1,17,45.66a4.67,4.67,0,0,1,2.95-.94H30.55a4.66,4.66,0,0,1,3,.94,3.24,3.24,0,0,1,1.19,2.69Zm-5.1-1.45a.93.93,0,0,0-.22-.65,1.44,1.44,0,0,0-1-.25H22.1a1.42,1.42,0,0,0-1,.25.9.9,0,0,0-.24.65v.17a.92.92,0,0,0,.24.66,1.48,1.48,0,0,0,1,.24h6.25a1.5,1.5,0,0,0,1-.24,1,1,0,0,0,.22-.66Zm4.83-7.08a1.57,1.57,0,0,1-.53,1.24,2,2,0,0,1-1.4.46H29.35V38.25H27.53a1.42,1.42,0,0,1-1-.39,1.33,1.33,0,0,1-.4-1V34.4h3.25V31.55h5.08Z"/><path class="bc459f0d-0cd0-4b21-92cc-f5e721456f6c" d="M42.85,41a6.14,6.14,0,0,1-3,2.29,10.75,10.75,0,0,1-3.93.89V40.1a5.07,5.07,0,0,0,2.93-1.45,5,5,0,0,0,1.27-3.2H37.45a1.58,1.58,0,0,1-1.09-.33,1.32,1.32,0,0,1-.36-1V31.6H49.4v2.48a1.32,1.32,0,0,1-.36,1,1.58,1.58,0,0,1-1.09.33H45.47a5.39,5.39,0,0,0,1.18,3.2,4.75,4.75,0,0,0,2.88,1.45v4.1a10.24,10.24,0,0,1-3.86-.89A5.58,5.58,0,0,1,42.85,41Zm13,11.83a1.58,1.58,0,0,1-.58,1.24,2.07,2.07,0,0,1-1.37.49H50.75v-6H39.17a1.65,1.65,0,0,1-1.09-.31,1.35,1.35,0,0,1-.38-1.09V44.72H55.83Zm0-10.4a1.57,1.57,0,0,1-.53,1.24,2,2,0,0,1-1.4.46H50.75v-4.5h-1.3a1.42,1.42,0,0,1-1-.39,1.36,1.36,0,0,1-.39-1V35.9h2.72V31.55h5.08Z"/><path class="bc459f0d-0cd0-4b21-92cc-f5e721456f6c" d="M62.8,31.6H75.15v12a1.33,1.33,0,0,1-.36,1.05A1.58,1.58,0,0,1,73.7,45H64.25a1.58,1.58,0,0,1-1.09-.33,1.33,1.33,0,0,1-.36-1.05Zm2.3,22.93a1.66,1.66,0,0,1-1.21-.42A1.51,1.51,0,0,1,63.45,53V45.88h5.1v4.74H81.4V53A1.48,1.48,0,0,1,81,54.11a1.73,1.73,0,0,1-1.23.42ZM67.9,41.1h2.18V35.5H67.9Zm13.4-4.65h3.3V39.3a1.3,1.3,0,0,1-.46,1.12,2.06,2.06,0,0,1-1.29.35H81.3v5.68a1.57,1.57,0,0,1-.53,1.24,2,2,0,0,1-1.39.46H76.22V31.55H81.3Z"/><path class="bc459f0d-0cd0-4b21-92cc-f5e721456f6c" d="M85.28,45a1.72,1.72,0,0,1-1.2-.36,1.5,1.5,0,0,1-.41-1.17V41.15H92v-2a12.5,12.5,0,0,1-1.47.6,18.68,18.68,0,0,1-6,.95v-3.6a11.47,11.47,0,0,0,5-1.13,4.51,4.51,0,0,0,1.15-.72H86.38a1.61,1.61,0,0,1-1.09-.32,1.36,1.36,0,0,1-.37-1.05V31.52h19v2.31a1.36,1.36,0,0,1-.36,1.05,1.6,1.6,0,0,1-1.08.32H98.2a4.51,4.51,0,0,0,1.15.72,11.48,11.48,0,0,0,5,1.13v3.6a18.59,18.59,0,0,1-6-.95c-.47-.17-.9-.33-1.3-.5v1.95h8v2.32a1.53,1.53,0,0,1-.39,1.17,1.76,1.76,0,0,1-1.2.36Zm18.62,7.85a1.57,1.57,0,0,1-.57,1.24,2.12,2.12,0,0,1-1.38.49H98.83v-5H86.3a1.68,1.68,0,0,1-1.1-.31,1.35,1.35,0,0,1-.37-1.09V45.75H103.9ZM94.45,37.27a6.63,6.63,0,0,1-2.35,1.78h4.68A6.36,6.36,0,0,1,94.45,37.27Z"/><path class="bc459f0d-0cd0-4b21-92cc-f5e721456f6c" d="M113.3,50.58v-4.2h5v4.2h8.1v2A1.71,1.71,0,0,1,125.9,54a2.06,2.06,0,0,1-1.43.5H107.12a2.08,2.08,0,0,1-1.41-.5,1.72,1.72,0,0,1-.56-1.35v-2Zm12-16.46a1.38,1.38,0,0,1-.38,1.07,1.61,1.61,0,0,1-1.1.33h-12.4v5.95h14.13V44a1.36,1.36,0,0,1-.38,1.06,1.56,1.56,0,0,1-1.1.34H107.8a1.58,1.58,0,0,1-1.1-.34,1.36,1.36,0,0,1-.38-1.06V31.62h19Z"/><path class="bc459f0d-0cd0-4b21-92cc-f5e721456f6c" d="M128.07,46a1.76,1.76,0,0,1-1.2-.36,1.53,1.53,0,0,1-.4-1.17V42.15h21.45v2.32a1.49,1.49,0,0,1-.4,1.17,1.72,1.72,0,0,1-1.2.36Zm-.37-14.5h5.1v5.58h14v2.3a1.37,1.37,0,0,1-.38,1.06,1.61,1.61,0,0,1-1.1.33H129.17a1.62,1.62,0,0,1-1.1-.33,1.37,1.37,0,0,1-.37-1.06Zm1.65,23a1.66,1.66,0,0,1-1.21-.42A1.48,1.48,0,0,1,127.7,53v-6.1h5.1v3.8h13.9V53a1.48,1.48,0,0,1-.45,1.16,1.73,1.73,0,0,1-1.23.42Z"/><path class="bc459f0d-0cd0-4b21-92cc-f5e721456f6c" d="M161.32,37.92a5.32,5.32,0,0,1-.15,1.27,8.41,8.41,0,0,1-.37,1.17,9.43,9.43,0,0,1-.49,1.06c-.17.34-.34.64-.51.91l-1.93,3.25a2.56,2.56,0,0,0-.42.86,3.49,3.49,0,0,0-.15,1v.75h-4.6v-.75a5.41,5.41,0,0,1,.31-1.65,12.59,12.59,0,0,1,.89-2l1.9-3.25a4.91,4.91,0,0,0,.55-1.31,4.55,4.55,0,0,0,.15-1.06,3.94,3.94,0,0,0-.31-1.73,1.34,1.34,0,0,0-1.32-.62,1.3,1.3,0,0,0-1.15.72,4,4,0,0,0-.42,2h-4.85a7.51,7.51,0,0,1,.44-2.6,6.33,6.33,0,0,1,1.26-2.13,5.87,5.87,0,0,1,2-1.44,6.65,6.65,0,0,1,2.71-.52,9.11,9.11,0,0,1,2.95.42,5,5,0,0,1,2,1.21A4.74,4.74,0,0,1,161,35.39,8.36,8.36,0,0,1,161.32,37.92Zm-3.67,15.93a1.24,1.24,0,0,1-.38,1,1.75,1.75,0,0,1-1.15.32h-3.75v-5h5.28Z"/></g></g></svg>